solid CATIA STL
  facet normal  0.000000e+000 -9.695485e-001  2.448990e-001
    outer loop
      vertex -6.043031e-015  7.880463e+000  6.400000e+001
      vertex -2.800000e+001 -8.285345e+000  0.000000e+000
      vertex  2.800000e+001 -8.285345e+000  0.000000e+000
    endloop
  endfacet
  facet normal -8.396537e-001  4.847743e-001  2.448990e-001
    outer loop
      vertex -6.043031e-015  7.880463e+000  6.400000e+001
      vertex -1.776357e-015  4.021208e+001  0.000000e+000
      vertex -2.800000e+001 -8.285345e+000  0.000000e+000
    endloop
  endfacet
  facet normal  8.396537e-001  4.847743e-001  2.448990e-001
    outer loop
      vertex  2.800000e+001 -8.285345e+000  0.000000e+000
      vertex -1.776357e-015  4.021208e+001  0.000000e+000
      vertex -6.043031e-015  7.880463e+000  6.400000e+001
    endloop
  endfacet
  facet normal  0.000000e+000  0.000000e+000 -1.000000e+000
    outer loop
      vertex  2.800000e+001 -8.285345e+000  0.000000e+000
      vertex -2.800000e+001 -8.285345e+000  0.000000e+000
      vertex -1.776357e-015  4.021208e+001  0.000000e+000
    endloop
  endfacet
endsolid CATIA STL
