solid CATIA STL
  facet normal  0.000000e+000  0.000000e+000  1.000000e+000
    outer loop
      vertex  2.400000e+001 -2.400000e+001  6.400000e+001
      vertex  1.987689e+001 -1.987689e+001  6.400000e+001
      vertex -2.400000e+001 -2.400000e+001  6.400000e+001
    endloop
  endfacet
  facet normal  0.000000e+000  0.000000e+000  9.999999e-001
    outer loop
      vertex -2.400000e+001 -2.400000e+001  6.400000e+001
      vertex  1.987689e+001 -1.987689e+001  6.400000e+001
      vertex -1.987689e+001 -1.987689e+001  6.400000e+001
    endloop
  endfacet
  facet normal  0.000000e+000  0.000000e+000  1.000000e+000
    outer loop
      vertex -2.400000e+001 -2.400000e+001  6.400000e+001
      vertex -1.987689e+001 -1.987689e+001  6.400000e+001
      vertex -2.400000e+001  2.400000e+001  6.400000e+001
    endloop
  endfacet
  facet normal  0.000000e+000  0.000000e+000  9.999999e-001
    outer loop
      vertex -2.400000e+001  2.400000e+001  6.400000e+001
      vertex -1.987689e+001 -1.987689e+001  6.400000e+001
      vertex -1.987689e+001  1.987689e+001  6.400000e+001
    endloop
  endfacet
  facet normal  0.000000e+000  -0.000000e+000  1.000000e+000
    outer loop
      vertex -2.400000e+001  2.400000e+001  6.400000e+001
      vertex -1.987689e+001  1.987689e+001  6.400000e+001
      vertex  2.400000e+001  2.400000e+001  6.400000e+001
    endloop
  endfacet
  facet normal  0.000000e+000  0.000000e+000  9.999999e-001
    outer loop
      vertex  2.400000e+001  2.400000e+001  6.400000e+001
      vertex -1.987689e+001  1.987689e+001  6.400000e+001
      vertex  1.987689e+001  1.987689e+001  6.400000e+001
    endloop
  endfacet
  facet normal  -0.000000e+000  0.000000e+000  1.000000e+000
    outer loop
      vertex  2.400000e+001  2.400000e+001  6.400000e+001
      vertex  1.987689e+001  1.987689e+001  6.400000e+001
      vertex  2.400000e+001 -2.400000e+001  6.400000e+001
    endloop
  endfacet
  facet normal  0.000000e+000  0.000000e+000  9.999999e-001
    outer loop
      vertex  2.400000e+001 -2.400000e+001  6.400000e+001
      vertex  1.987689e+001  1.987689e+001  6.400000e+001
      vertex  1.987689e+001 -1.987689e+001  6.400000e+001
    endloop
  endfacet
  facet normal  -0.000000e+000 -9.701425e-001 -2.425357e-001
    outer loop
      vertex -3.487690e+001  3.487690e+001  4.000000e+000
      vertex  3.487690e+001  3.487690e+001  4.000000e+000
      vertex -1.987689e+001  1.987689e+001  6.400000e+001
    endloop
  endfacet
  facet normal  0.000000e+000 -9.701425e-001 -2.425357e-001
    outer loop
      vertex -1.987689e+001  1.987689e+001  6.400000e+001
      vertex  3.487690e+001  3.487690e+001  4.000000e+000
      vertex  1.987689e+001  1.987689e+001  6.400000e+001
    endloop
  endfacet
  facet normal -9.701425e-001  0.000000e+000 -2.425357e-001
    outer loop
      vertex  3.487690e+001  3.487690e+001  4.000000e+000
      vertex  3.487690e+001 -3.487690e+001  4.000000e+000
      vertex  1.987689e+001  1.987689e+001  6.400000e+001
    endloop
  endfacet
  facet normal -9.701425e-001  -0.000000e+000 -2.425357e-001
    outer loop
      vertex  1.987689e+001  1.987689e+001  6.400000e+001
      vertex  3.487690e+001 -3.487690e+001  4.000000e+000
      vertex  1.987689e+001 -1.987689e+001  6.400000e+001
    endloop
  endfacet
  facet normal  9.701425e-001  0.000000e+000 -2.425357e-001
    outer loop
      vertex -3.487690e+001 -3.487690e+001  4.000000e+000
      vertex -3.487690e+001  3.487690e+001  4.000000e+000
      vertex -1.987689e+001 -1.987689e+001  6.400000e+001
    endloop
  endfacet
  facet normal  9.701425e-001  0.000000e+000 -2.425357e-001
    outer loop
      vertex -1.987689e+001 -1.987689e+001  6.400000e+001
      vertex -3.487690e+001  3.487690e+001  4.000000e+000
      vertex -1.987689e+001  1.987689e+001  6.400000e+001
    endloop
  endfacet
  facet normal  0.000000e+000  9.701425e-001 -2.425357e-001
    outer loop
      vertex  3.487690e+001 -3.487690e+001  4.000000e+000
      vertex -3.487690e+001 -3.487690e+001  4.000000e+000
      vertex  1.987689e+001 -1.987689e+001  6.400000e+001
    endloop
  endfacet
  facet normal  0.000000e+000  9.701425e-001 -2.425357e-001
    outer loop
      vertex  1.987689e+001 -1.987689e+001  6.400000e+001
      vertex -3.487690e+001 -3.487690e+001  4.000000e+000
      vertex -1.987689e+001 -1.987689e+001  6.400000e+001
    endloop
  endfacet
  facet normal  0.000000e+000  0.000000e+000  1.000000e+000
    outer loop
      vertex -3.487690e+001 -3.487690e+001  4.000000e+000
      vertex  3.487690e+001 -3.487690e+001  4.000000e+000
      vertex -3.487690e+001  3.487690e+001  4.000000e+000
    endloop
  endfacet
  facet normal  -0.000000e+000  0.000000e+000  1.000000e+000
    outer loop
      vertex -3.487690e+001  3.487690e+001  4.000000e+000
      vertex  3.487690e+001 -3.487690e+001  4.000000e+000
      vertex  3.487690e+001  3.487690e+001  4.000000e+000
    endloop
  endfacet
  facet normal  0.000000e+000  0.000000e+000 -1.000000e+000
    outer loop
      vertex -4.000000e+001 -4.000000e+001 -7.105427e-015
      vertex -4.000000e+001  4.000000e+001 -7.105427e-015
      vertex  4.000000e+001 -4.000000e+001 -7.105427e-015
    endloop
  endfacet
  facet normal  1.665335e-016  1.665335e-016 -1.000000e+000
    outer loop
      vertex  4.000000e+001 -4.000000e+001 -7.105427e-015
      vertex -4.000000e+001  4.000000e+001 -7.105427e-015
      vertex  4.000000e+001  4.000000e+001  6.217249e-015
    endloop
  endfacet
  facet normal  9.701425e-001 -4.039030e-017  2.425356e-001
    outer loop
      vertex  4.000000e+001 -4.000000e+001 -7.105427e-015
      vertex  4.000000e+001  4.000000e+001  6.217249e-015
      vertex  2.400000e+001 -2.400000e+001  6.400000e+001
    endloop
  endfacet
  facet normal  9.701425e-001  -0.000000e+000  2.425356e-001
    outer loop
      vertex  2.400000e+001 -2.400000e+001  6.400000e+001
      vertex  4.000000e+001  4.000000e+001  6.217249e-015
      vertex  2.400000e+001  2.400000e+001  6.400000e+001
    endloop
  endfacet
  facet normal  0.000000e+000 -9.701425e-001  2.425356e-001
    outer loop
      vertex -4.000000e+001 -4.000000e+001 -7.105427e-015
      vertex  4.000000e+001 -4.000000e+001 -7.105427e-015
      vertex -2.400000e+001 -2.400000e+001  6.400000e+001
    endloop
  endfacet
  facet normal  0.000000e+000 -9.701425e-001  2.425356e-001
    outer loop
      vertex -2.400000e+001 -2.400000e+001  6.400000e+001
      vertex  4.000000e+001 -4.000000e+001 -7.105427e-015
      vertex  2.400000e+001 -2.400000e+001  6.400000e+001
    endloop
  endfacet
  facet normal -9.701425e-001  0.000000e+000  2.425356e-001
    outer loop
      vertex -4.000000e+001  4.000000e+001 -7.105427e-015
      vertex -4.000000e+001 -4.000000e+001 -7.105427e-015
      vertex -2.400000e+001  2.400000e+001  6.400000e+001
    endloop
  endfacet
  facet normal -9.701425e-001  0.000000e+000  2.425356e-001
    outer loop
      vertex -2.400000e+001  2.400000e+001  6.400000e+001
      vertex -4.000000e+001 -4.000000e+001 -7.105427e-015
      vertex -2.400000e+001 -2.400000e+001  6.400000e+001
    endloop
  endfacet
  facet normal -4.039030e-017  9.701425e-001  2.425356e-001
    outer loop
      vertex  4.000000e+001  4.000000e+001  6.217249e-015
      vertex -4.000000e+001  4.000000e+001 -7.105427e-015
      vertex  2.400000e+001  2.400000e+001  6.400000e+001
    endloop
  endfacet
  facet normal  0.000000e+000  9.701425e-001  2.425356e-001
    outer loop
      vertex  2.400000e+001  2.400000e+001  6.400000e+001
      vertex -4.000000e+001  4.000000e+001 -7.105427e-015
      vertex -2.400000e+001  2.400000e+001  6.400000e+001
    endloop
  endfacet
endsolid CATIA STL
