solid CATIA STL
  facet normal  0.000000e+000  0.000000e+000 -1.000000e+000
    outer loop
      vertex  3.423803e+001  1.112461e+001  0.000000e+000
      vertex  1.307777e+001 -4.249224e+000  0.000000e+000
      vertex  5.656854e+000  5.656854e+000  0.000000e+000
    endloop
  endfacet
  facet normal  0.000000e+000  0.000000e+000 -9.999999e-001
    outer loop
      vertex  3.423803e+001  1.112461e+001  0.000000e+000
      vertex  5.656854e+000  5.656854e+000  0.000000e+000
      vertex  3.061467e+000  7.391036e+000  0.000000e+000
    endloop
  endfacet
  facet normal  0.000000e+000  0.000000e+000 -1.000000e+000
    outer loop
      vertex  3.423803e+001  1.112461e+001  0.000000e+000
      vertex  3.061467e+000  7.391036e+000  0.000000e+000
      vertex  4.898587e-016  8.000000e+000  0.000000e+000
    endloop
  endfacet
  facet normal  0.000000e+000  0.000000e+000 -9.999999e-001
    outer loop
      vertex  3.423803e+001  1.112461e+001  0.000000e+000
      vertex  4.898587e-016  8.000000e+000  0.000000e+000
      vertex  8.082503e+000  1.112461e+001  0.000000e+000
    endloop
  endfacet
  facet normal  0.000000e+000  0.000000e+000 -1.000000e+000
    outer loop
      vertex -1.307777e+001 -4.249224e+000  0.000000e+000
      vertex -5.656854e+000  5.656854e+000  0.000000e+000
      vertex -7.391036e+000  3.061467e+000  0.000000e+000
    endloop
  endfacet
  facet normal  0.000000e+000  0.000000e+000 -1.000000e+000
    outer loop
      vertex -1.307777e+001 -4.249224e+000  0.000000e+000
      vertex -7.391036e+000  3.061467e+000  0.000000e+000
      vertex -8.000000e+000  9.797175e-016  0.000000e+000
    endloop
  endfacet
  facet normal  0.000000e+000  -0.000000e+000 -1.000000e+000
    outer loop
      vertex -1.307777e+001 -4.249224e+000  0.000000e+000
      vertex -8.000000e+000  9.797175e-016  0.000000e+000
      vertex -7.391036e+000 -3.061467e+000  0.000000e+000
    endloop
  endfacet
  facet normal  0.000000e+000  -0.000000e+000 -1.000000e+000
    outer loop
      vertex -1.307777e+001 -4.249224e+000  0.000000e+000
      vertex -7.391036e+000 -3.061467e+000  0.000000e+000
      vertex -5.656854e+000 -5.656854e+000  0.000000e+000
    endloop
  endfacet
  facet normal  -0.000000e+000  0.000000e+000 -1.000000e+000
    outer loop
      vertex -1.307777e+001 -4.249224e+000  0.000000e+000
      vertex -5.656854e+000 -5.656854e+000  0.000000e+000
      vertex -2.116027e+001 -2.912461e+001  0.000000e+000
    endloop
  endfacet
  facet normal  -0.000000e+000  -0.000000e+000 -1.000000e+000
    outer loop
      vertex -3.423803e+001  1.112461e+001  0.000000e+000
      vertex -8.082503e+000  1.112461e+001  0.000000e+000
      vertex  4.898587e-016  8.000000e+000  0.000000e+000
    endloop
  endfacet
  facet normal  -0.000000e+000  0.000000e+000 -1.000000e+000
    outer loop
      vertex -3.423803e+001  1.112461e+001  0.000000e+000
      vertex  4.898587e-016  8.000000e+000  0.000000e+000
      vertex -3.061467e+000  7.391036e+000  0.000000e+000
    endloop
  endfacet
  facet normal  -0.000000e+000  0.000000e+000 -9.999999e-001
    outer loop
      vertex -3.423803e+001  1.112461e+001  0.000000e+000
      vertex -3.061467e+000  7.391036e+000  0.000000e+000
      vertex -5.656854e+000  5.656854e+000  0.000000e+000
    endloop
  endfacet
  facet normal  -0.000000e+000  0.000000e+000 -1.000000e+000
    outer loop
      vertex -3.423803e+001  1.112461e+001  0.000000e+000
      vertex -5.656854e+000  5.656854e+000  0.000000e+000
      vertex -1.307777e+001 -4.249224e+000  0.000000e+000
    endloop
  endfacet
  facet normal  0.000000e+000  -0.000000e+000 -1.000000e+000
    outer loop
      vertex -2.116027e+001 -2.912461e+001  0.000000e+000
      vertex -5.656854e+000 -5.656854e+000  0.000000e+000
      vertex -3.061467e+000 -7.391036e+000  0.000000e+000
    endloop
  endfacet
  facet normal  0.000000e+000  -0.000000e+000 -1.000000e+000
    outer loop
      vertex -2.116027e+001 -2.912461e+001  0.000000e+000
      vertex -3.061467e+000 -7.391036e+000  0.000000e+000
      vertex -1.469576e-015 -8.000000e+000  0.000000e+000
    endloop
  endfacet
  facet normal  0.000000e+000  -0.000000e+000 -1.000000e+000
    outer loop
      vertex -2.116027e+001 -2.912461e+001  0.000000e+000
      vertex -1.469576e-015 -8.000000e+000  0.000000e+000
      vertex  3.552714e-015 -1.375078e+001  0.000000e+000
    endloop
  endfacet
  facet normal  0.000000e+000  0.000000e+000 -1.000000e+000
    outer loop
      vertex  1.307777e+001 -4.249224e+000  0.000000e+000
      vertex  2.116027e+001 -2.912461e+001  0.000000e+000
      vertex  5.656854e+000 -5.656854e+000  0.000000e+000
    endloop
  endfacet
  facet normal  0.000000e+000  0.000000e+000 -1.000000e+000
    outer loop
      vertex  1.307777e+001 -4.249224e+000  0.000000e+000
      vertex  5.656854e+000 -5.656854e+000  0.000000e+000
      vertex  7.391036e+000 -3.061467e+000  0.000000e+000
    endloop
  endfacet
  facet normal  0.000000e+000  0.000000e+000 -1.000000e+000
    outer loop
      vertex  1.307777e+001 -4.249224e+000  0.000000e+000
      vertex  7.391036e+000 -3.061467e+000  0.000000e+000
      vertex  8.000000e+000  0.000000e+000  0.000000e+000
    endloop
  endfacet
  facet normal  0.000000e+000  0.000000e+000 -1.000000e+000
    outer loop
      vertex  1.307777e+001 -4.249224e+000  0.000000e+000
      vertex  8.000000e+000  0.000000e+000  0.000000e+000
      vertex  7.391036e+000  3.061467e+000  0.000000e+000
    endloop
  endfacet
  facet normal  0.000000e+000  0.000000e+000 -1.000000e+000
    outer loop
      vertex  1.307777e+001 -4.249224e+000  0.000000e+000
      vertex  7.391036e+000  3.061467e+000  0.000000e+000
      vertex  5.656854e+000  5.656854e+000  0.000000e+000
    endloop
  endfacet
  facet normal  0.000000e+000  0.000000e+000 -1.000000e+000
    outer loop
      vertex  2.116027e+001 -2.912461e+001  0.000000e+000
      vertex  3.552714e-015 -1.375078e+001  0.000000e+000
      vertex -1.469576e-015 -8.000000e+000  0.000000e+000
    endloop
  endfacet
  facet normal  0.000000e+000  0.000000e+000 -1.000000e+000
    outer loop
      vertex  2.116027e+001 -2.912461e+001  0.000000e+000
      vertex -1.469576e-015 -8.000000e+000  0.000000e+000
      vertex  3.061467e+000 -7.391036e+000  0.000000e+000
    endloop
  endfacet
  facet normal  0.000000e+000  0.000000e+000 -1.000000e+000
    outer loop
      vertex  2.116027e+001 -2.912461e+001  0.000000e+000
      vertex  3.061467e+000 -7.391036e+000  0.000000e+000
      vertex  5.656854e+000 -5.656854e+000  0.000000e+000
    endloop
  endfacet
  facet normal  0.000000e+000  0.000000e+000 -1.000000e+000
    outer loop
      vertex  8.082503e+000  1.112461e+001  0.000000e+000
      vertex  4.898587e-016  8.000000e+000  0.000000e+000
      vertex  1.776357e-015  3.600000e+001  0.000000e+000
    endloop
  endfacet
  facet normal  0.000000e+000  0.000000e+000 -1.000000e+000
    outer loop
      vertex  1.776357e-015  3.600000e+001  0.000000e+000
      vertex  4.898587e-016  8.000000e+000  0.000000e+000
      vertex -8.082503e+000  1.112461e+001  0.000000e+000
    endloop
  endfacet
  facet normal  -0.000000e+000  0.000000e+000  1.000000e+000
    outer loop
      vertex  3.423803e+001  1.112461e+001  8.000000e+000
      vertex  8.082503e+000  1.112461e+001  8.000000e+000
      vertex  4.898587e-016  8.000000e+000  8.000000e+000
    endloop
  endfacet
  facet normal  -0.000000e+000  0.000000e+000  1.000000e+000
    outer loop
      vertex  3.423803e+001  1.112461e+001  8.000000e+000
      vertex  4.898587e-016  8.000000e+000  8.000000e+000
      vertex  3.061467e+000  7.391036e+000  8.000000e+000
    endloop
  endfacet
  facet normal  -0.000000e+000  0.000000e+000  9.999999e-001
    outer loop
      vertex  3.423803e+001  1.112461e+001  8.000000e+000
      vertex  3.061467e+000  7.391036e+000  8.000000e+000
      vertex  5.656854e+000  5.656854e+000  8.000000e+000
    endloop
  endfacet
  facet normal  -0.000000e+000  0.000000e+000  1.000000e+000
    outer loop
      vertex  3.423803e+001  1.112461e+001  8.000000e+000
      vertex  5.656854e+000  5.656854e+000  8.000000e+000
      vertex  1.307777e+001 -4.249224e+000  8.000000e+000
    endloop
  endfacet
  facet normal  0.000000e+000  0.000000e+000  1.000000e+000
    outer loop
      vertex -1.307777e+001 -4.249224e+000  8.000000e+000
      vertex -2.116027e+001 -2.912461e+001  8.000000e+000
      vertex -5.656854e+000 -5.656854e+000  8.000000e+000
    endloop
  endfacet
  facet normal  0.000000e+000  0.000000e+000  1.000000e+000
    outer loop
      vertex -1.307777e+001 -4.249224e+000  8.000000e+000
      vertex -5.656854e+000 -5.656854e+000  8.000000e+000
      vertex -7.391036e+000 -3.061467e+000  8.000000e+000
    endloop
  endfacet
  facet normal  0.000000e+000  0.000000e+000  1.000000e+000
    outer loop
      vertex -1.307777e+001 -4.249224e+000  8.000000e+000
      vertex -7.391036e+000 -3.061467e+000  8.000000e+000
      vertex -8.000000e+000  9.797175e-016  8.000000e+000
    endloop
  endfacet
  facet normal  0.000000e+000  -0.000000e+000  1.000000e+000
    outer loop
      vertex -1.307777e+001 -4.249224e+000  8.000000e+000
      vertex -8.000000e+000  9.797175e-016  8.000000e+000
      vertex -7.391036e+000  3.061467e+000  8.000000e+000
    endloop
  endfacet
  facet normal  0.000000e+000  -0.000000e+000  1.000000e+000
    outer loop
      vertex -1.307777e+001 -4.249224e+000  8.000000e+000
      vertex -7.391036e+000  3.061467e+000  8.000000e+000
      vertex -5.656854e+000  5.656854e+000  8.000000e+000
    endloop
  endfacet
  facet normal  0.000000e+000  -0.000000e+000  1.000000e+000
    outer loop
      vertex -3.423803e+001  1.112461e+001  8.000000e+000
      vertex -1.307777e+001 -4.249224e+000  8.000000e+000
      vertex -5.656854e+000  5.656854e+000  8.000000e+000
    endloop
  endfacet
  facet normal  0.000000e+000  -0.000000e+000  9.999999e-001
    outer loop
      vertex -3.423803e+001  1.112461e+001  8.000000e+000
      vertex -5.656854e+000  5.656854e+000  8.000000e+000
      vertex -3.061467e+000  7.391036e+000  8.000000e+000
    endloop
  endfacet
  facet normal  0.000000e+000  -0.000000e+000  1.000000e+000
    outer loop
      vertex -3.423803e+001  1.112461e+001  8.000000e+000
      vertex -3.061467e+000  7.391036e+000  8.000000e+000
      vertex  4.898587e-016  8.000000e+000  8.000000e+000
    endloop
  endfacet
  facet normal  0.000000e+000  0.000000e+000  9.999999e-001
    outer loop
      vertex -3.423803e+001  1.112461e+001  8.000000e+000
      vertex  4.898587e-016  8.000000e+000  8.000000e+000
      vertex -8.082503e+000  1.112461e+001  8.000000e+000
    endloop
  endfacet
  facet normal  0.000000e+000  0.000000e+000  1.000000e+000
    outer loop
      vertex -2.116027e+001 -2.912461e+001  8.000000e+000
      vertex  3.552714e-015 -1.375078e+001  8.000000e+000
      vertex -1.469576e-015 -8.000000e+000  8.000000e+000
    endloop
  endfacet
  facet normal  0.000000e+000  0.000000e+000  1.000000e+000
    outer loop
      vertex -2.116027e+001 -2.912461e+001  8.000000e+000
      vertex -1.469576e-015 -8.000000e+000  8.000000e+000
      vertex -3.061467e+000 -7.391036e+000  8.000000e+000
    endloop
  endfacet
  facet normal  0.000000e+000  0.000000e+000  1.000000e+000
    outer loop
      vertex -2.116027e+001 -2.912461e+001  8.000000e+000
      vertex -3.061467e+000 -7.391036e+000  8.000000e+000
      vertex -5.656854e+000 -5.656854e+000  8.000000e+000
    endloop
  endfacet
  facet normal  0.000000e+000  0.000000e+000  1.000000e+000
    outer loop
      vertex  1.307777e+001 -4.249224e+000  8.000000e+000
      vertex  5.656854e+000  5.656854e+000  8.000000e+000
      vertex  7.391036e+000  3.061467e+000  8.000000e+000
    endloop
  endfacet
  facet normal  0.000000e+000  0.000000e+000  1.000000e+000
    outer loop
      vertex  1.307777e+001 -4.249224e+000  8.000000e+000
      vertex  7.391036e+000  3.061467e+000  8.000000e+000
      vertex  8.000000e+000  0.000000e+000  8.000000e+000
    endloop
  endfacet
  facet normal  0.000000e+000  0.000000e+000  1.000000e+000
    outer loop
      vertex  1.307777e+001 -4.249224e+000  8.000000e+000
      vertex  8.000000e+000  0.000000e+000  8.000000e+000
      vertex  7.391036e+000 -3.061467e+000  8.000000e+000
    endloop
  endfacet
  facet normal  0.000000e+000  0.000000e+000  1.000000e+000
    outer loop
      vertex  1.307777e+001 -4.249224e+000  8.000000e+000
      vertex  7.391036e+000 -3.061467e+000  8.000000e+000
      vertex  5.656854e+000 -5.656854e+000  8.000000e+000
    endloop
  endfacet
  facet normal  -0.000000e+000  0.000000e+000  1.000000e+000
    outer loop
      vertex  1.307777e+001 -4.249224e+000  8.000000e+000
      vertex  5.656854e+000 -5.656854e+000  8.000000e+000
      vertex  2.116027e+001 -2.912461e+001  8.000000e+000
    endloop
  endfacet
  facet normal  0.000000e+000  0.000000e+000  1.000000e+000
    outer loop
      vertex  2.116027e+001 -2.912461e+001  8.000000e+000
      vertex  5.656854e+000 -5.656854e+000  8.000000e+000
      vertex  3.061467e+000 -7.391036e+000  8.000000e+000
    endloop
  endfacet
  facet normal  0.000000e+000  0.000000e+000  1.000000e+000
    outer loop
      vertex  2.116027e+001 -2.912461e+001  8.000000e+000
      vertex  3.061467e+000 -7.391036e+000  8.000000e+000
      vertex -1.469576e-015 -8.000000e+000  8.000000e+000
    endloop
  endfacet
  facet normal  0.000000e+000  0.000000e+000  1.000000e+000
    outer loop
      vertex  2.116027e+001 -2.912461e+001  8.000000e+000
      vertex -1.469576e-015 -8.000000e+000  8.000000e+000
      vertex  3.552714e-015 -1.375078e+001  8.000000e+000
    endloop
  endfacet
  facet normal  0.000000e+000  0.000000e+000  1.000000e+000
    outer loop
      vertex  8.082503e+000  1.112461e+001  8.000000e+000
      vertex  1.776357e-015  3.600000e+001  8.000000e+000
      vertex  4.898587e-016  8.000000e+000  8.000000e+000
    endloop
  endfacet
  facet normal  0.000000e+000  -0.000000e+000  1.000000e+000
    outer loop
      vertex  4.898587e-016  8.000000e+000  8.000000e+000
      vertex  1.776357e-015  3.600000e+001  8.000000e+000
      vertex -8.082503e+000  1.112461e+001  8.000000e+000
    endloop
  endfacet
  facet normal -1.950904e-001  9.807852e-001  0.000000e+000
    outer loop
      vertex -1.469576e-015 -8.000000e+000  0.000000e+000
      vertex  3.061467e+000 -7.391036e+000  8.000000e+000
      vertex  3.061467e+000 -7.391036e+000  0.000000e+000
    endloop
  endfacet
  facet normal -5.555702e-001  8.314695e-001  0.000000e+000
    outer loop
      vertex  3.061467e+000 -7.391036e+000  0.000000e+000
      vertex  3.061467e+000 -7.391036e+000  8.000000e+000
      vertex  5.656854e+000 -5.656854e+000  8.000000e+000
    endloop
  endfacet
  facet normal -5.555702e-001  8.314695e-001  0.000000e+000
    outer loop
      vertex  3.061467e+000 -7.391036e+000  0.000000e+000
      vertex  5.656854e+000 -5.656854e+000  8.000000e+000
      vertex  5.656854e+000 -5.656854e+000  0.000000e+000
    endloop
  endfacet
  facet normal -8.314695e-001  5.555702e-001  0.000000e+000
    outer loop
      vertex  5.656854e+000 -5.656854e+000  0.000000e+000
      vertex  5.656854e+000 -5.656854e+000  8.000000e+000
      vertex  7.391036e+000 -3.061467e+000  8.000000e+000
    endloop
  endfacet
  facet normal -8.314695e-001  5.555702e-001  0.000000e+000
    outer loop
      vertex  5.656854e+000 -5.656854e+000  0.000000e+000
      vertex  7.391036e+000 -3.061467e+000  8.000000e+000
      vertex  7.391036e+000 -3.061467e+000  0.000000e+000
    endloop
  endfacet
  facet normal -9.807852e-001  1.950904e-001  0.000000e+000
    outer loop
      vertex  7.391036e+000 -3.061467e+000  0.000000e+000
      vertex  7.391036e+000 -3.061467e+000  8.000000e+000
      vertex  8.000000e+000  0.000000e+000  8.000000e+000
    endloop
  endfacet
  facet normal -9.807852e-001  1.950904e-001  0.000000e+000
    outer loop
      vertex  7.391036e+000 -3.061467e+000  0.000000e+000
      vertex  8.000000e+000  0.000000e+000  8.000000e+000
      vertex  8.000000e+000  0.000000e+000  0.000000e+000
    endloop
  endfacet
  facet normal -1.950904e-001  9.807852e-001  0.000000e+000
    outer loop
      vertex  3.061467e+000 -7.391036e+000  8.000000e+000
      vertex -1.469576e-015 -8.000000e+000  0.000000e+000
      vertex -1.469576e-015 -8.000000e+000  8.000000e+000
    endloop
  endfacet
  facet normal  1.950904e-001  9.807852e-001  0.000000e+000
    outer loop
      vertex -1.469576e-015 -8.000000e+000  8.000000e+000
      vertex -1.469576e-015 -8.000000e+000  0.000000e+000
      vertex -3.061467e+000 -7.391036e+000  0.000000e+000
    endloop
  endfacet
  facet normal  1.950904e-001  9.807852e-001  -0.000000e+000
    outer loop
      vertex -1.469576e-015 -8.000000e+000  8.000000e+000
      vertex -3.061467e+000 -7.391036e+000  0.000000e+000
      vertex -3.061467e+000 -7.391036e+000  8.000000e+000
    endloop
  endfacet
  facet normal  5.555702e-001  8.314695e-001  0.000000e+000
    outer loop
      vertex -3.061467e+000 -7.391036e+000  8.000000e+000
      vertex -3.061467e+000 -7.391036e+000  0.000000e+000
      vertex -5.656854e+000 -5.656854e+000  0.000000e+000
    endloop
  endfacet
  facet normal  5.555702e-001  8.314695e-001  -0.000000e+000
    outer loop
      vertex -3.061467e+000 -7.391036e+000  8.000000e+000
      vertex -5.656854e+000 -5.656854e+000  0.000000e+000
      vertex -5.656854e+000 -5.656854e+000  8.000000e+000
    endloop
  endfacet
  facet normal  8.314695e-001  5.555702e-001  0.000000e+000
    outer loop
      vertex -5.656854e+000 -5.656854e+000  8.000000e+000
      vertex -5.656854e+000 -5.656854e+000  0.000000e+000
      vertex -7.391036e+000 -3.061467e+000  0.000000e+000
    endloop
  endfacet
  facet normal  8.314695e-001  5.555702e-001  -0.000000e+000
    outer loop
      vertex -5.656854e+000 -5.656854e+000  8.000000e+000
      vertex -7.391036e+000 -3.061467e+000  0.000000e+000
      vertex -7.391036e+000 -3.061467e+000  8.000000e+000
    endloop
  endfacet
  facet normal  9.807852e-001  1.950904e-001  0.000000e+000
    outer loop
      vertex -7.391036e+000 -3.061467e+000  8.000000e+000
      vertex -7.391036e+000 -3.061467e+000  0.000000e+000
      vertex -8.000000e+000  9.797175e-016  0.000000e+000
    endloop
  endfacet
  facet normal  9.807852e-001  1.950904e-001  -0.000000e+000
    outer loop
      vertex -7.391036e+000 -3.061467e+000  8.000000e+000
      vertex -8.000000e+000  9.797175e-016  0.000000e+000
      vertex -8.000000e+000  9.797175e-016  8.000000e+000
    endloop
  endfacet
  facet normal  1.950904e-001 -9.807852e-001  0.000000e+000
    outer loop
      vertex  4.898587e-016  8.000000e+000  0.000000e+000
      vertex -3.061467e+000  7.391036e+000  8.000000e+000
      vertex -3.061467e+000  7.391036e+000  0.000000e+000
    endloop
  endfacet
  facet normal  5.555702e-001 -8.314695e-001  0.000000e+000
    outer loop
      vertex -3.061467e+000  7.391036e+000  0.000000e+000
      vertex -3.061467e+000  7.391036e+000  8.000000e+000
      vertex -5.656854e+000  5.656854e+000  8.000000e+000
    endloop
  endfacet
  facet normal  5.555702e-001 -8.314695e-001  0.000000e+000
    outer loop
      vertex -3.061467e+000  7.391036e+000  0.000000e+000
      vertex -5.656854e+000  5.656854e+000  8.000000e+000
      vertex -5.656854e+000  5.656854e+000  0.000000e+000
    endloop
  endfacet
  facet normal  8.314695e-001 -5.555702e-001  0.000000e+000
    outer loop
      vertex -5.656854e+000  5.656854e+000  0.000000e+000
      vertex -5.656854e+000  5.656854e+000  8.000000e+000
      vertex -7.391036e+000  3.061467e+000  8.000000e+000
    endloop
  endfacet
  facet normal  8.314695e-001 -5.555702e-001  0.000000e+000
    outer loop
      vertex -5.656854e+000  5.656854e+000  0.000000e+000
      vertex -7.391036e+000  3.061467e+000  8.000000e+000
      vertex -7.391036e+000  3.061467e+000  0.000000e+000
    endloop
  endfacet
  facet normal  9.807852e-001 -1.950904e-001  0.000000e+000
    outer loop
      vertex -7.391036e+000  3.061467e+000  0.000000e+000
      vertex -7.391036e+000  3.061467e+000  8.000000e+000
      vertex -8.000000e+000  9.797175e-016  8.000000e+000
    endloop
  endfacet
  facet normal  9.807852e-001 -1.950904e-001  0.000000e+000
    outer loop
      vertex -7.391036e+000  3.061467e+000  0.000000e+000
      vertex -8.000000e+000  9.797175e-016  8.000000e+000
      vertex -8.000000e+000  9.797175e-016  0.000000e+000
    endloop
  endfacet
  facet normal  1.950904e-001 -9.807852e-001  0.000000e+000
    outer loop
      vertex -3.061467e+000  7.391036e+000  8.000000e+000
      vertex  4.898587e-016  8.000000e+000  0.000000e+000
      vertex  4.898587e-016  8.000000e+000  8.000000e+000
    endloop
  endfacet
  facet normal -1.950904e-001 -9.807852e-001  -0.000000e+000
    outer loop
      vertex  4.898587e-016  8.000000e+000  8.000000e+000
      vertex  4.898587e-016  8.000000e+000  0.000000e+000
      vertex  3.061467e+000  7.391036e+000  0.000000e+000
    endloop
  endfacet
  facet normal -1.950904e-001 -9.807852e-001  0.000000e+000
    outer loop
      vertex  4.898587e-016  8.000000e+000  8.000000e+000
      vertex  3.061467e+000  7.391036e+000  0.000000e+000
      vertex  3.061467e+000  7.391036e+000  8.000000e+000
    endloop
  endfacet
  facet normal -5.555702e-001 -8.314695e-001  -0.000000e+000
    outer loop
      vertex  3.061467e+000  7.391036e+000  8.000000e+000
      vertex  3.061467e+000  7.391036e+000  0.000000e+000
      vertex  5.656854e+000  5.656854e+000  0.000000e+000
    endloop
  endfacet
  facet normal -5.555702e-001 -8.314695e-001  0.000000e+000
    outer loop
      vertex  3.061467e+000  7.391036e+000  8.000000e+000
      vertex  5.656854e+000  5.656854e+000  0.000000e+000
      vertex  5.656854e+000  5.656854e+000  8.000000e+000
    endloop
  endfacet
  facet normal -8.314695e-001 -5.555702e-001  -0.000000e+000
    outer loop
      vertex  5.656854e+000  5.656854e+000  8.000000e+000
      vertex  5.656854e+000  5.656854e+000  0.000000e+000
      vertex  7.391036e+000  3.061467e+000  0.000000e+000
    endloop
  endfacet
  facet normal -8.314695e-001 -5.555702e-001  0.000000e+000
    outer loop
      vertex  5.656854e+000  5.656854e+000  8.000000e+000
      vertex  7.391036e+000  3.061467e+000  0.000000e+000
      vertex  7.391036e+000  3.061467e+000  8.000000e+000
    endloop
  endfacet
  facet normal -9.807852e-001 -1.950904e-001  -0.000000e+000
    outer loop
      vertex  7.391036e+000  3.061467e+000  8.000000e+000
      vertex  7.391036e+000  3.061467e+000  0.000000e+000
      vertex  8.000000e+000  0.000000e+000  0.000000e+000
    endloop
  endfacet
  facet normal -9.807852e-001 -1.950904e-001  0.000000e+000
    outer loop
      vertex  7.391036e+000  3.061467e+000  8.000000e+000
      vertex  8.000000e+000  0.000000e+000  0.000000e+000
      vertex  8.000000e+000  0.000000e+000  8.000000e+000
    endloop
  endfacet
  facet normal  0.000000e+000  1.000000e+000  0.000000e+000
    outer loop
      vertex -3.423803e+001  1.112461e+001  8.000000e+000
      vertex -8.082503e+000  1.112461e+001  8.000000e+000
      vertex -3.423803e+001  1.112461e+001  0.000000e+000
    endloop
  endfacet
  facet normal  0.000000e+000  1.000000e+000  0.000000e+000
    outer loop
      vertex -3.423803e+001  1.112461e+001  0.000000e+000
      vertex -8.082503e+000  1.112461e+001  8.000000e+000
      vertex -8.082503e+000  1.112461e+001  0.000000e+000
    endloop
  endfacet
  facet normal -9.510565e-001  3.090170e-001  0.000000e+000
    outer loop
      vertex -8.082503e+000  1.112461e+001  8.000000e+000
      vertex  1.776357e-015  3.600000e+001  8.000000e+000
      vertex -8.082503e+000  1.112461e+001  0.000000e+000
    endloop
  endfacet
  facet normal -9.510565e-001  3.090170e-001  0.000000e+000
    outer loop
      vertex -8.082503e+000  1.112461e+001  0.000000e+000
      vertex  1.776357e-015  3.600000e+001  8.000000e+000
      vertex  1.776357e-015  3.600000e+001  0.000000e+000
    endloop
  endfacet
  facet normal  9.510565e-001  3.090170e-001  0.000000e+000
    outer loop
      vertex  1.776357e-015  3.600000e+001  8.000000e+000
      vertex  8.082503e+000  1.112461e+001  8.000000e+000
      vertex  1.776357e-015  3.600000e+001  0.000000e+000
    endloop
  endfacet
  facet normal  9.510565e-001  3.090170e-001  0.000000e+000
    outer loop
      vertex  1.776357e-015  3.600000e+001  0.000000e+000
      vertex  8.082503e+000  1.112461e+001  8.000000e+000
      vertex  8.082503e+000  1.112461e+001  0.000000e+000
    endloop
  endfacet
  facet normal  0.000000e+000  1.000000e+000  0.000000e+000
    outer loop
      vertex  8.082503e+000  1.112461e+001  8.000000e+000
      vertex  3.423803e+001  1.112461e+001  8.000000e+000
      vertex  8.082503e+000  1.112461e+001  0.000000e+000
    endloop
  endfacet
  facet normal  0.000000e+000  1.000000e+000  0.000000e+000
    outer loop
      vertex  8.082503e+000  1.112461e+001  0.000000e+000
      vertex  3.423803e+001  1.112461e+001  8.000000e+000
      vertex  3.423803e+001  1.112461e+001  0.000000e+000
    endloop
  endfacet
  facet normal  5.877853e-001 -8.090169e-001  0.000000e+000
    outer loop
      vertex  3.423803e+001  1.112461e+001  8.000000e+000
      vertex  1.307777e+001 -4.249224e+000  8.000000e+000
      vertex  3.423803e+001  1.112461e+001  0.000000e+000
    endloop
  endfacet
  facet normal  5.877853e-001 -8.090169e-001  0.000000e+000
    outer loop
      vertex  3.423803e+001  1.112461e+001  0.000000e+000
      vertex  1.307777e+001 -4.249224e+000  8.000000e+000
      vertex  1.307777e+001 -4.249224e+000  0.000000e+000
    endloop
  endfacet
  facet normal  9.510564e-001  3.090170e-001  0.000000e+000
    outer loop
      vertex  1.307777e+001 -4.249224e+000  8.000000e+000
      vertex  2.116027e+001 -2.912461e+001  8.000000e+000
      vertex  1.307777e+001 -4.249224e+000  0.000000e+000
    endloop
  endfacet
  facet normal  9.510564e-001  3.090170e-001  0.000000e+000
    outer loop
      vertex  1.307777e+001 -4.249224e+000  0.000000e+000
      vertex  2.116027e+001 -2.912461e+001  8.000000e+000
      vertex  2.116027e+001 -2.912461e+001  0.000000e+000
    endloop
  endfacet
  facet normal -5.877852e-001 -8.090169e-001  0.000000e+000
    outer loop
      vertex  3.552714e-015 -1.375078e+001  8.000000e+000
      vertex  3.552714e-015 -1.375078e+001  0.000000e+000
      vertex  2.116027e+001 -2.912461e+001  8.000000e+000
    endloop
  endfacet
  facet normal -5.877852e-001 -8.090169e-001  -0.000000e+000
    outer loop
      vertex  2.116027e+001 -2.912461e+001  8.000000e+000
      vertex  3.552714e-015 -1.375078e+001  0.000000e+000
      vertex  2.116027e+001 -2.912461e+001  0.000000e+000
    endloop
  endfacet
  facet normal  5.877852e-001 -8.090169e-001  0.000000e+000
    outer loop
      vertex  3.552714e-015 -1.375078e+001  8.000000e+000
      vertex -2.116027e+001 -2.912461e+001  8.000000e+000
      vertex  3.552714e-015 -1.375078e+001  0.000000e+000
    endloop
  endfacet
  facet normal  5.877852e-001 -8.090169e-001  0.000000e+000
    outer loop
      vertex  3.552714e-015 -1.375078e+001  0.000000e+000
      vertex -2.116027e+001 -2.912461e+001  8.000000e+000
      vertex -2.116027e+001 -2.912461e+001  0.000000e+000
    endloop
  endfacet
  facet normal -9.510564e-001  3.090170e-001  0.000000e+000
    outer loop
      vertex -2.116027e+001 -2.912461e+001  8.000000e+000
      vertex -1.307777e+001 -4.249224e+000  8.000000e+000
      vertex -2.116027e+001 -2.912461e+001  0.000000e+000
    endloop
  endfacet
  facet normal -9.510564e-001  3.090170e-001  0.000000e+000
    outer loop
      vertex -2.116027e+001 -2.912461e+001  0.000000e+000
      vertex -1.307777e+001 -4.249224e+000  8.000000e+000
      vertex -1.307777e+001 -4.249224e+000  0.000000e+000
    endloop
  endfacet
  facet normal -5.877853e-001 -8.090169e-001  0.000000e+000
    outer loop
      vertex -3.423803e+001  1.112461e+001  8.000000e+000
      vertex -3.423803e+001  1.112461e+001  0.000000e+000
      vertex -1.307777e+001 -4.249224e+000  8.000000e+000
    endloop
  endfacet
  facet normal -5.877853e-001 -8.090169e-001  -0.000000e+000
    outer loop
      vertex -1.307777e+001 -4.249224e+000  8.000000e+000
      vertex -3.423803e+001  1.112461e+001  0.000000e+000
      vertex -1.307777e+001 -4.249224e+000  0.000000e+000
    endloop
  endfacet
endsolid CATIA STL
