solid CATIA STL
  facet normal  0.000000e+000  0.000000e+000  1.000000e+000
    outer loop
      vertex -8.000000e+000  9.797175e-016  3.200000e+001
      vertex -7.391036e+000  3.061467e+000  3.200000e+001
      vertex -2.400000e+001  2.939152e-015  3.200000e+001
    endloop
  endfacet
  facet normal  0.000000e+000  -0.000000e+000  1.000000e+000
    outer loop
      vertex  3.061467e+000  7.391036e+000  3.200000e+001
      vertex  5.656854e+000  5.656854e+000  3.200000e+001
      vertex  2.330260e+001  5.743576e+000  3.200000e+001
    endloop
  endfacet
  facet normal  -0.000000e+000  -0.000000e+000  1.000000e+000
    outer loop
      vertex -2.125094e+001 -1.115336e+001  3.200000e+001
      vertex -1.796426e+001 -1.591494e+001  3.200000e+001
      vertex -1.363355e+001 -1.975161e+001  3.200000e+001
    endloop
  endfacet
  facet normal  -0.000000e+000  -0.000000e+000  1.000000e+000
    outer loop
      vertex -2.125094e+001 -1.115336e+001  3.200000e+001
      vertex -1.363355e+001 -1.975161e+001  3.200000e+001
      vertex -8.510517e+000 -2.244039e+001  3.200000e+001
    endloop
  endfacet
  facet normal  -0.000000e+000  -0.000000e+000  1.000000e+000
    outer loop
      vertex -2.125094e+001 -1.115336e+001  3.200000e+001
      vertex -8.510517e+000 -2.244039e+001  3.200000e+001
      vertex -2.892880e+000 -2.382501e+001  3.200000e+001
    endloop
  endfacet
  facet normal  0.000000e+000  -0.000000e+000  1.000000e+000
    outer loop
      vertex -2.125094e+001 -1.115336e+001  3.200000e+001
      vertex -2.892880e+000 -2.382501e+001  3.200000e+001
      vertex  2.892880e+000 -2.382501e+001  3.200000e+001
    endloop
  endfacet
  facet normal  0.000000e+000  0.000000e+000  1.000000e+000
    outer loop
      vertex -2.125094e+001 -1.115336e+001  3.200000e+001
      vertex  2.892880e+000 -2.382501e+001  3.200000e+001
      vertex -1.469576e-015 -8.000000e+000  3.200000e+001
    endloop
  endfacet
  facet normal  0.000000e+000  0.000000e+000  1.000000e+000
    outer loop
      vertex -2.125094e+001 -1.115336e+001  3.200000e+001
      vertex -1.469576e-015 -8.000000e+000  3.200000e+001
      vertex -3.061467e+000 -7.391036e+000  3.200000e+001
    endloop
  endfacet
  facet normal  0.000000e+000  0.000000e+000  1.000000e+000
    outer loop
      vertex -2.125094e+001 -1.115336e+001  3.200000e+001
      vertex -3.061467e+000 -7.391036e+000  3.200000e+001
      vertex -5.656854e+000 -5.656854e+000  3.200000e+001
    endloop
  endfacet
  facet normal  0.000000e+000  0.000000e+000  1.000000e+000
    outer loop
      vertex -2.125094e+001 -1.115336e+001  3.200000e+001
      vertex -5.656854e+000 -5.656854e+000  3.200000e+001
      vertex -2.330260e+001 -5.743576e+000  3.200000e+001
    endloop
  endfacet
  facet normal  0.000000e+000  -0.000000e+000  1.000000e+000
    outer loop
      vertex -1.469576e-015 -8.000000e+000  3.200000e+001
      vertex  2.892880e+000 -2.382501e+001  3.200000e+001
      vertex  8.510517e+000 -2.244039e+001  3.200000e+001
    endloop
  endfacet
  facet normal  0.000000e+000  -0.000000e+000  1.000000e+000
    outer loop
      vertex -1.469576e-015 -8.000000e+000  3.200000e+001
      vertex  8.510517e+000 -2.244039e+001  3.200000e+001
      vertex  1.363355e+001 -1.975161e+001  3.200000e+001
    endloop
  endfacet
  facet normal  0.000000e+000  -0.000000e+000  1.000000e+000
    outer loop
      vertex -1.469576e-015 -8.000000e+000  3.200000e+001
      vertex  1.363355e+001 -1.975161e+001  3.200000e+001
      vertex  1.796426e+001 -1.591494e+001  3.200000e+001
    endloop
  endfacet
  facet normal  0.000000e+000  -0.000000e+000  1.000000e+000
    outer loop
      vertex -1.469576e-015 -8.000000e+000  3.200000e+001
      vertex  1.796426e+001 -1.591494e+001  3.200000e+001
      vertex  2.125094e+001 -1.115336e+001  3.200000e+001
    endloop
  endfacet
  facet normal  0.000000e+000  0.000000e+000  1.000000e+000
    outer loop
      vertex -1.469576e-015 -8.000000e+000  3.200000e+001
      vertex  2.125094e+001 -1.115336e+001  3.200000e+001
      vertex  3.061467e+000 -7.391036e+000  3.200000e+001
    endloop
  endfacet
  facet normal  -0.000000e+000  -0.000000e+000  1.000000e+000
    outer loop
      vertex  4.898587e-016  8.000000e+000  3.200000e+001
      vertex  3.061467e+000  7.391036e+000  3.200000e+001
      vertex  2.330260e+001  5.743576e+000  3.200000e+001
    endloop
  endfacet
  facet normal  0.000000e+000  0.000000e+000  1.000000e+000
    outer loop
      vertex  4.898587e-016  8.000000e+000  3.200000e+001
      vertex  2.330260e+001  5.743576e+000  3.200000e+001
      vertex  2.125094e+001  1.115336e+001  3.200000e+001
    endloop
  endfacet
  facet normal  0.000000e+000  0.000000e+000  9.999999e-001
    outer loop
      vertex  4.898587e-016  8.000000e+000  3.200000e+001
      vertex  2.125094e+001  1.115336e+001  3.200000e+001
      vertex  1.796426e+001  1.591494e+001  3.200000e+001
    endloop
  endfacet
  facet normal  0.000000e+000  0.000000e+000  1.000000e+000
    outer loop
      vertex  4.898587e-016  8.000000e+000  3.200000e+001
      vertex  1.796426e+001  1.591494e+001  3.200000e+001
      vertex  1.363355e+001  1.975161e+001  3.200000e+001
    endloop
  endfacet
  facet normal  0.000000e+000  0.000000e+000  1.000000e+000
    outer loop
      vertex  4.898587e-016  8.000000e+000  3.200000e+001
      vertex  1.363355e+001  1.975161e+001  3.200000e+001
      vertex  8.510517e+000  2.244039e+001  3.200000e+001
    endloop
  endfacet
  facet normal  0.000000e+000  0.000000e+000  1.000000e+000
    outer loop
      vertex  4.898587e-016  8.000000e+000  3.200000e+001
      vertex  8.510517e+000  2.244039e+001  3.200000e+001
      vertex  2.892880e+000  2.382501e+001  3.200000e+001
    endloop
  endfacet
  facet normal  0.000000e+000  0.000000e+000  1.000000e+000
    outer loop
      vertex  4.898587e-016  8.000000e+000  3.200000e+001
      vertex  2.892880e+000  2.382501e+001  3.200000e+001
      vertex -2.892880e+000  2.382501e+001  3.200000e+001
    endloop
  endfacet
  facet normal  0.000000e+000  0.000000e+000  1.000000e+000
    outer loop
      vertex  4.898587e-016  8.000000e+000  3.200000e+001
      vertex -2.892880e+000  2.382501e+001  3.200000e+001
      vertex -8.510517e+000  2.244039e+001  3.200000e+001
    endloop
  endfacet
  facet normal  0.000000e+000  0.000000e+000  1.000000e+000
    outer loop
      vertex  4.898587e-016  8.000000e+000  3.200000e+001
      vertex -8.510517e+000  2.244039e+001  3.200000e+001
      vertex -1.363355e+001  1.975161e+001  3.200000e+001
    endloop
  endfacet
  facet normal  0.000000e+000  0.000000e+000  1.000000e+000
    outer loop
      vertex  4.898587e-016  8.000000e+000  3.200000e+001
      vertex -1.363355e+001  1.975161e+001  3.200000e+001
      vertex -1.796426e+001  1.591494e+001  3.200000e+001
    endloop
  endfacet
  facet normal  0.000000e+000  0.000000e+000  1.000000e+000
    outer loop
      vertex  4.898587e-016  8.000000e+000  3.200000e+001
      vertex -1.796426e+001  1.591494e+001  3.200000e+001
      vertex -2.125094e+001  1.115336e+001  3.200000e+001
    endloop
  endfacet
  facet normal  0.000000e+000  0.000000e+000  1.000000e+000
    outer loop
      vertex  4.898587e-016  8.000000e+000  3.200000e+001
      vertex -2.125094e+001  1.115336e+001  3.200000e+001
      vertex -2.330260e+001  5.743576e+000  3.200000e+001
    endloop
  endfacet
  facet normal  0.000000e+000  0.000000e+000  1.000000e+000
    outer loop
      vertex  4.898587e-016  8.000000e+000  3.200000e+001
      vertex -2.330260e+001  5.743576e+000  3.200000e+001
      vertex -3.061467e+000  7.391036e+000  3.200000e+001
    endloop
  endfacet
  facet normal  0.000000e+000  0.000000e+000  1.000000e+000
    outer loop
      vertex -2.330260e+001 -5.743576e+000  3.200000e+001
      vertex -5.656854e+000 -5.656854e+000  3.200000e+001
      vertex -7.391036e+000 -3.061467e+000  3.200000e+001
    endloop
  endfacet
  facet normal  0.000000e+000  0.000000e+000  1.000000e+000
    outer loop
      vertex -2.330260e+001 -5.743576e+000  3.200000e+001
      vertex -7.391036e+000 -3.061467e+000  3.200000e+001
      vertex -8.000000e+000  9.797175e-016  3.200000e+001
    endloop
  endfacet
  facet normal  0.000000e+000  0.000000e+000  9.999999e-001
    outer loop
      vertex -2.330260e+001 -5.743576e+000  3.200000e+001
      vertex -8.000000e+000  9.797175e-016  3.200000e+001
      vertex -2.400000e+001  2.939152e-015  3.200000e+001
    endloop
  endfacet
  facet normal  0.000000e+000  0.000000e+000  1.000000e+000
    outer loop
      vertex -2.400000e+001  2.939152e-015  3.200000e+001
      vertex -7.391036e+000  3.061467e+000  3.200000e+001
      vertex -2.330260e+001  5.743576e+000  3.200000e+001
    endloop
  endfacet
  facet normal  0.000000e+000  0.000000e+000  1.000000e+000
    outer loop
      vertex -2.330260e+001  5.743576e+000  3.200000e+001
      vertex -7.391036e+000  3.061467e+000  3.200000e+001
      vertex -5.656854e+000  5.656854e+000  3.200000e+001
    endloop
  endfacet
  facet normal  0.000000e+000  -0.000000e+000  1.000000e+000
    outer loop
      vertex -2.330260e+001  5.743576e+000  3.200000e+001
      vertex -5.656854e+000  5.656854e+000  3.200000e+001
      vertex -3.061467e+000  7.391036e+000  3.200000e+001
    endloop
  endfacet
  facet normal  -0.000000e+000  0.000000e+000  1.000000e+000
    outer loop
      vertex  2.330260e+001  5.743576e+000  3.200000e+001
      vertex  5.656854e+000  5.656854e+000  3.200000e+001
      vertex  2.400000e+001  0.000000e+000  3.200000e+001
    endloop
  endfacet
  facet normal  0.000000e+000  0.000000e+000  1.000000e+000
    outer loop
      vertex  2.400000e+001  0.000000e+000  3.200000e+001
      vertex  5.656854e+000  5.656854e+000  3.200000e+001
      vertex  7.391036e+000  3.061467e+000  3.200000e+001
    endloop
  endfacet
  facet normal  0.000000e+000  0.000000e+000  1.000000e+000
    outer loop
      vertex  2.400000e+001  0.000000e+000  3.200000e+001
      vertex  7.391036e+000  3.061467e+000  3.200000e+001
      vertex  8.000000e+000  0.000000e+000  3.200000e+001
    endloop
  endfacet
  facet normal  -0.000000e+000  0.000000e+000  9.999999e-001
    outer loop
      vertex  2.400000e+001  0.000000e+000  3.200000e+001
      vertex  8.000000e+000  0.000000e+000  3.200000e+001
      vertex  2.330260e+001 -5.743576e+000  3.200000e+001
    endloop
  endfacet
  facet normal  0.000000e+000  0.000000e+000  1.000000e+000
    outer loop
      vertex  2.330260e+001 -5.743576e+000  3.200000e+001
      vertex  8.000000e+000  0.000000e+000  3.200000e+001
      vertex  7.391036e+000 -3.061467e+000  3.200000e+001
    endloop
  endfacet
  facet normal  0.000000e+000  0.000000e+000  1.000000e+000
    outer loop
      vertex  2.330260e+001 -5.743576e+000  3.200000e+001
      vertex  7.391036e+000 -3.061467e+000  3.200000e+001
      vertex  5.656854e+000 -5.656854e+000  3.200000e+001
    endloop
  endfacet
  facet normal  0.000000e+000  0.000000e+000  1.000000e+000
    outer loop
      vertex  3.061467e+000 -7.391036e+000  3.200000e+001
      vertex  2.125094e+001 -1.115336e+001  3.200000e+001
      vertex  5.656854e+000 -5.656854e+000  3.200000e+001
    endloop
  endfacet
  facet normal  0.000000e+000  0.000000e+000  1.000000e+000
    outer loop
      vertex  5.656854e+000 -5.656854e+000  3.200000e+001
      vertex  2.125094e+001 -1.115336e+001  3.200000e+001
      vertex  2.330260e+001 -5.743576e+000  3.200000e+001
    endloop
  endfacet
  facet normal  9.807853e-001 -1.950904e-001  0.000000e+000
    outer loop
      vertex  8.000000e+000  0.000000e+000  3.200000e+001
      vertex  8.000000e+000  0.000000e+000  7.200000e+001
      vertex  7.391036e+000 -3.061467e+000  3.200000e+001
    endloop
  endfacet
  facet normal  9.807853e-001 -1.950904e-001  0.000000e+000
    outer loop
      vertex  7.391036e+000 -3.061467e+000  3.200000e+001
      vertex  8.000000e+000  0.000000e+000  7.200000e+001
      vertex  7.391036e+000 -3.061467e+000  7.200000e+001
    endloop
  endfacet
  facet normal  8.314695e-001 -5.555702e-001  0.000000e+000
    outer loop
      vertex  7.391036e+000 -3.061467e+000  3.200000e+001
      vertex  7.391036e+000 -3.061467e+000  7.200000e+001
      vertex  5.656854e+000 -5.656854e+000  3.200000e+001
    endloop
  endfacet
  facet normal  8.314695e-001 -5.555702e-001  0.000000e+000
    outer loop
      vertex  5.656854e+000 -5.656854e+000  3.200000e+001
      vertex  7.391036e+000 -3.061467e+000  7.200000e+001
      vertex  5.656854e+000 -5.656854e+000  7.200000e+001
    endloop
  endfacet
  facet normal  5.555702e-001 -8.314695e-001  0.000000e+000
    outer loop
      vertex  5.656854e+000 -5.656854e+000  3.200000e+001
      vertex  5.656854e+000 -5.656854e+000  7.200000e+001
      vertex  3.061467e+000 -7.391036e+000  3.200000e+001
    endloop
  endfacet
  facet normal  5.555702e-001 -8.314695e-001  0.000000e+000
    outer loop
      vertex  3.061467e+000 -7.391036e+000  3.200000e+001
      vertex  5.656854e+000 -5.656854e+000  7.200000e+001
      vertex  3.061467e+000 -7.391036e+000  7.200000e+001
    endloop
  endfacet
  facet normal  1.950904e-001 -9.807853e-001  0.000000e+000
    outer loop
      vertex  3.061467e+000 -7.391036e+000  3.200000e+001
      vertex  3.061467e+000 -7.391036e+000  7.200000e+001
      vertex -1.469576e-015 -8.000000e+000  3.200000e+001
    endloop
  endfacet
  facet normal  1.950904e-001 -9.807853e-001  0.000000e+000
    outer loop
      vertex -1.469576e-015 -8.000000e+000  3.200000e+001
      vertex  3.061467e+000 -7.391036e+000  7.200000e+001
      vertex -1.469576e-015 -8.000000e+000  7.200000e+001
    endloop
  endfacet
  facet normal -1.950904e-001 -9.807853e-001  -0.000000e+000
    outer loop
      vertex -1.469576e-015 -8.000000e+000  3.200000e+001
      vertex -1.469576e-015 -8.000000e+000  7.200000e+001
      vertex -3.061467e+000 -7.391036e+000  3.200000e+001
    endloop
  endfacet
  facet normal -1.950904e-001 -9.807853e-001  0.000000e+000
    outer loop
      vertex -3.061467e+000 -7.391036e+000  3.200000e+001
      vertex -1.469576e-015 -8.000000e+000  7.200000e+001
      vertex -3.061467e+000 -7.391036e+000  7.200000e+001
    endloop
  endfacet
  facet normal -5.555702e-001 -8.314695e-001  -0.000000e+000
    outer loop
      vertex -3.061467e+000 -7.391036e+000  3.200000e+001
      vertex -3.061467e+000 -7.391036e+000  7.200000e+001
      vertex -5.656854e+000 -5.656854e+000  3.200000e+001
    endloop
  endfacet
  facet normal -5.555702e-001 -8.314695e-001  0.000000e+000
    outer loop
      vertex -5.656854e+000 -5.656854e+000  3.200000e+001
      vertex -3.061467e+000 -7.391036e+000  7.200000e+001
      vertex -5.656854e+000 -5.656854e+000  7.200000e+001
    endloop
  endfacet
  facet normal -8.314695e-001 -5.555702e-001  -0.000000e+000
    outer loop
      vertex -5.656854e+000 -5.656854e+000  3.200000e+001
      vertex -5.656854e+000 -5.656854e+000  7.200000e+001
      vertex -7.391036e+000 -3.061467e+000  3.200000e+001
    endloop
  endfacet
  facet normal -8.314695e-001 -5.555702e-001  0.000000e+000
    outer loop
      vertex -7.391036e+000 -3.061467e+000  3.200000e+001
      vertex -5.656854e+000 -5.656854e+000  7.200000e+001
      vertex -7.391036e+000 -3.061467e+000  7.200000e+001
    endloop
  endfacet
  facet normal -9.807853e-001 -1.950904e-001  -0.000000e+000
    outer loop
      vertex -7.391036e+000 -3.061467e+000  3.200000e+001
      vertex -7.391036e+000 -3.061467e+000  7.200000e+001
      vertex -8.000000e+000  9.797175e-016  3.200000e+001
    endloop
  endfacet
  facet normal -9.807853e-001 -1.950904e-001  0.000000e+000
    outer loop
      vertex -8.000000e+000  9.797175e-016  3.200000e+001
      vertex -7.391036e+000 -3.061467e+000  7.200000e+001
      vertex -8.000000e+000  9.797175e-016  7.200000e+001
    endloop
  endfacet
  facet normal -9.807853e-001  1.950904e-001  0.000000e+000
    outer loop
      vertex -8.000000e+000  9.797175e-016  3.200000e+001
      vertex -8.000000e+000  9.797175e-016  7.200000e+001
      vertex -7.391036e+000  3.061467e+000  3.200000e+001
    endloop
  endfacet
  facet normal -9.807853e-001  1.950904e-001  0.000000e+000
    outer loop
      vertex -7.391036e+000  3.061467e+000  3.200000e+001
      vertex -8.000000e+000  9.797175e-016  7.200000e+001
      vertex -7.391036e+000  3.061467e+000  7.200000e+001
    endloop
  endfacet
  facet normal -8.314695e-001  5.555702e-001  0.000000e+000
    outer loop
      vertex -7.391036e+000  3.061467e+000  3.200000e+001
      vertex -7.391036e+000  3.061467e+000  7.200000e+001
      vertex -5.656854e+000  5.656854e+000  3.200000e+001
    endloop
  endfacet
  facet normal -8.314695e-001  5.555702e-001  0.000000e+000
    outer loop
      vertex -5.656854e+000  5.656854e+000  3.200000e+001
      vertex -7.391036e+000  3.061467e+000  7.200000e+001
      vertex -5.656854e+000  5.656854e+000  7.200000e+001
    endloop
  endfacet
  facet normal -5.555702e-001  8.314695e-001  0.000000e+000
    outer loop
      vertex -5.656854e+000  5.656854e+000  3.200000e+001
      vertex -5.656854e+000  5.656854e+000  7.200000e+001
      vertex -3.061467e+000  7.391036e+000  3.200000e+001
    endloop
  endfacet
  facet normal -5.555702e-001  8.314695e-001  0.000000e+000
    outer loop
      vertex -3.061467e+000  7.391036e+000  3.200000e+001
      vertex -5.656854e+000  5.656854e+000  7.200000e+001
      vertex -3.061467e+000  7.391036e+000  7.200000e+001
    endloop
  endfacet
  facet normal -1.950904e-001  9.807853e-001  0.000000e+000
    outer loop
      vertex -3.061467e+000  7.391036e+000  3.200000e+001
      vertex -3.061467e+000  7.391036e+000  7.200000e+001
      vertex  4.898587e-016  8.000000e+000  3.200000e+001
    endloop
  endfacet
  facet normal -1.950904e-001  9.807853e-001  0.000000e+000
    outer loop
      vertex  4.898587e-016  8.000000e+000  3.200000e+001
      vertex -3.061467e+000  7.391036e+000  7.200000e+001
      vertex  4.898587e-016  8.000000e+000  7.200000e+001
    endloop
  endfacet
  facet normal  1.950904e-001  9.807853e-001  0.000000e+000
    outer loop
      vertex  4.898587e-016  8.000000e+000  3.200000e+001
      vertex  4.898587e-016  8.000000e+000  7.200000e+001
      vertex  3.061467e+000  7.391036e+000  3.200000e+001
    endloop
  endfacet
  facet normal  1.950904e-001  9.807853e-001  -0.000000e+000
    outer loop
      vertex  3.061467e+000  7.391036e+000  3.200000e+001
      vertex  4.898587e-016  8.000000e+000  7.200000e+001
      vertex  3.061467e+000  7.391036e+000  7.200000e+001
    endloop
  endfacet
  facet normal  5.555702e-001  8.314695e-001  0.000000e+000
    outer loop
      vertex  3.061467e+000  7.391036e+000  3.200000e+001
      vertex  3.061467e+000  7.391036e+000  7.200000e+001
      vertex  5.656854e+000  5.656854e+000  3.200000e+001
    endloop
  endfacet
  facet normal  5.555702e-001  8.314695e-001  -0.000000e+000
    outer loop
      vertex  5.656854e+000  5.656854e+000  3.200000e+001
      vertex  3.061467e+000  7.391036e+000  7.200000e+001
      vertex  5.656854e+000  5.656854e+000  7.200000e+001
    endloop
  endfacet
  facet normal  8.314695e-001  5.555702e-001  0.000000e+000
    outer loop
      vertex  5.656854e+000  5.656854e+000  3.200000e+001
      vertex  5.656854e+000  5.656854e+000  7.200000e+001
      vertex  7.391036e+000  3.061467e+000  3.200000e+001
    endloop
  endfacet
  facet normal  8.314695e-001  5.555702e-001  -0.000000e+000
    outer loop
      vertex  7.391036e+000  3.061467e+000  3.200000e+001
      vertex  5.656854e+000  5.656854e+000  7.200000e+001
      vertex  7.391036e+000  3.061467e+000  7.200000e+001
    endloop
  endfacet
  facet normal  9.807853e-001  1.950904e-001  0.000000e+000
    outer loop
      vertex  7.391036e+000  3.061467e+000  3.200000e+001
      vertex  7.391036e+000  3.061467e+000  7.200000e+001
      vertex  8.000000e+000  0.000000e+000  3.200000e+001
    endloop
  endfacet
  facet normal  9.807853e-001  1.950904e-001  -0.000000e+000
    outer loop
      vertex  8.000000e+000  0.000000e+000  3.200000e+001
      vertex  7.391036e+000  3.061467e+000  7.200000e+001
      vertex  8.000000e+000  0.000000e+000  7.200000e+001
    endloop
  endfacet
  facet normal  0.000000e+000  0.000000e+000  1.000000e+000
    outer loop
      vertex -3.061467e+000  7.391036e+000  7.200000e+001
      vertex  3.061467e+000  7.391036e+000  7.200000e+001
      vertex  4.898587e-016  8.000000e+000  7.200000e+001
    endloop
  endfacet
  facet normal  -0.000000e+000  0.000000e+000  1.000000e+000
    outer loop
      vertex  3.061467e+000  7.391036e+000  7.200000e+001
      vertex -3.061467e+000  7.391036e+000  7.200000e+001
      vertex  5.656854e+000  5.656854e+000  7.200000e+001
    endloop
  endfacet
  facet normal  0.000000e+000  0.000000e+000  1.000000e+000
    outer loop
      vertex  5.656854e+000  5.656854e+000  7.200000e+001
      vertex -3.061467e+000  7.391036e+000  7.200000e+001
      vertex -5.656854e+000  5.656854e+000  7.200000e+001
    endloop
  endfacet
  facet normal  -0.000000e+000  0.000000e+000  1.000000e+000
    outer loop
      vertex  5.656854e+000  5.656854e+000  7.200000e+001
      vertex -5.656854e+000  5.656854e+000  7.200000e+001
      vertex  7.391036e+000  3.061467e+000  7.200000e+001
    endloop
  endfacet
  facet normal  0.000000e+000  0.000000e+000  1.000000e+000
    outer loop
      vertex  7.391036e+000  3.061467e+000  7.200000e+001
      vertex -5.656854e+000  5.656854e+000  7.200000e+001
      vertex -7.391036e+000  3.061467e+000  7.200000e+001
    endloop
  endfacet
  facet normal  -0.000000e+000  0.000000e+000  9.999999e-001
    outer loop
      vertex  7.391036e+000  3.061467e+000  7.200000e+001
      vertex -7.391036e+000  3.061467e+000  7.200000e+001
      vertex  8.000000e+000  0.000000e+000  7.200000e+001
    endloop
  endfacet
  facet normal  0.000000e+000  0.000000e+000  1.000000e+000
    outer loop
      vertex  8.000000e+000  0.000000e+000  7.200000e+001
      vertex -7.391036e+000  3.061467e+000  7.200000e+001
      vertex -8.000000e+000  9.797175e-016  7.200000e+001
    endloop
  endfacet
  facet normal  0.000000e+000  0.000000e+000  1.000000e+000
    outer loop
      vertex  8.000000e+000  0.000000e+000  7.200000e+001
      vertex -8.000000e+000  9.797175e-016  7.200000e+001
      vertex  7.391036e+000 -3.061467e+000  7.200000e+001
    endloop
  endfacet
  facet normal  0.000000e+000  0.000000e+000  9.999999e-001
    outer loop
      vertex  7.391036e+000 -3.061467e+000  7.200000e+001
      vertex -8.000000e+000  9.797175e-016  7.200000e+001
      vertex -7.391036e+000 -3.061467e+000  7.200000e+001
    endloop
  endfacet
  facet normal  -0.000000e+000  0.000000e+000  1.000000e+000
    outer loop
      vertex  7.391036e+000 -3.061467e+000  7.200000e+001
      vertex -7.391036e+000 -3.061467e+000  7.200000e+001
      vertex  5.656854e+000 -5.656854e+000  7.200000e+001
    endloop
  endfacet
  facet normal  0.000000e+000  0.000000e+000  1.000000e+000
    outer loop
      vertex  5.656854e+000 -5.656854e+000  7.200000e+001
      vertex -7.391036e+000 -3.061467e+000  7.200000e+001
      vertex -5.656854e+000 -5.656854e+000  7.200000e+001
    endloop
  endfacet
  facet normal  -0.000000e+000  0.000000e+000  1.000000e+000
    outer loop
      vertex  5.656854e+000 -5.656854e+000  7.200000e+001
      vertex -5.656854e+000 -5.656854e+000  7.200000e+001
      vertex  3.061467e+000 -7.391036e+000  7.200000e+001
    endloop
  endfacet
  facet normal  0.000000e+000  0.000000e+000  1.000000e+000
    outer loop
      vertex  3.061467e+000 -7.391036e+000  7.200000e+001
      vertex -5.656854e+000 -5.656854e+000  7.200000e+001
      vertex -3.061467e+000 -7.391036e+000  7.200000e+001
    endloop
  endfacet
  facet normal  -0.000000e+000  0.000000e+000  1.000000e+000
    outer loop
      vertex  3.061467e+000 -7.391036e+000  7.200000e+001
      vertex -3.061467e+000 -7.391036e+000  7.200000e+001
      vertex -1.469576e-015 -8.000000e+000  7.200000e+001
    endloop
  endfacet
  facet normal  0.000000e+000  0.000000e+000 -1.000000e+000
    outer loop
      vertex  2.400000e+001  0.000000e+000  0.000000e+000
      vertex -2.330260e+001  5.743576e+000  0.000000e+000
      vertex  2.330260e+001  5.743576e+000  0.000000e+000
    endloop
  endfacet
  facet normal  0.000000e+000  0.000000e+000 -1.000000e+000
    outer loop
      vertex  2.330260e+001  5.743576e+000  0.000000e+000
      vertex -2.330260e+001  5.743576e+000  0.000000e+000
      vertex -2.125094e+001  1.115336e+001  0.000000e+000
    endloop
  endfacet
  facet normal  0.000000e+000  0.000000e+000 -1.000000e+000
    outer loop
      vertex  2.330260e+001  5.743576e+000  0.000000e+000
      vertex -2.125094e+001  1.115336e+001  0.000000e+000
      vertex  2.125094e+001  1.115336e+001  0.000000e+000
    endloop
  endfacet
  facet normal  0.000000e+000  0.000000e+000 -1.000000e+000
    outer loop
      vertex  2.125094e+001  1.115336e+001  0.000000e+000
      vertex -2.125094e+001  1.115336e+001  0.000000e+000
      vertex -1.796426e+001  1.591494e+001  0.000000e+000
    endloop
  endfacet
  facet normal  0.000000e+000  0.000000e+000 -1.000000e+000
    outer loop
      vertex  2.125094e+001  1.115336e+001  0.000000e+000
      vertex -1.796426e+001  1.591494e+001  0.000000e+000
      vertex  1.796426e+001  1.591494e+001  0.000000e+000
    endloop
  endfacet
  facet normal  0.000000e+000  0.000000e+000 -1.000000e+000
    outer loop
      vertex  1.796426e+001  1.591494e+001  0.000000e+000
      vertex -1.796426e+001  1.591494e+001  0.000000e+000
      vertex -1.363355e+001  1.975161e+001  0.000000e+000
    endloop
  endfacet
  facet normal  0.000000e+000  0.000000e+000 -1.000000e+000
    outer loop
      vertex  1.796426e+001  1.591494e+001  0.000000e+000
      vertex -1.363355e+001  1.975161e+001  0.000000e+000
      vertex  1.363355e+001  1.975161e+001  0.000000e+000
    endloop
  endfacet
  facet normal  0.000000e+000  0.000000e+000 -9.999999e-001
    outer loop
      vertex  1.363355e+001  1.975161e+001  0.000000e+000
      vertex -1.363355e+001  1.975161e+001  0.000000e+000
      vertex -8.510517e+000  2.244039e+001  0.000000e+000
    endloop
  endfacet
  facet normal  0.000000e+000  0.000000e+000 -1.000000e+000
    outer loop
      vertex  1.363355e+001  1.975161e+001  0.000000e+000
      vertex -8.510517e+000  2.244039e+001  0.000000e+000
      vertex  8.510517e+000  2.244039e+001  0.000000e+000
    endloop
  endfacet
  facet normal  0.000000e+000  0.000000e+000 -1.000000e+000
    outer loop
      vertex  8.510517e+000  2.244039e+001  0.000000e+000
      vertex -8.510517e+000  2.244039e+001  0.000000e+000
      vertex -2.892880e+000  2.382501e+001  0.000000e+000
    endloop
  endfacet
  facet normal  0.000000e+000  0.000000e+000 -1.000000e+000
    outer loop
      vertex  8.510517e+000  2.244039e+001  0.000000e+000
      vertex -2.892880e+000  2.382501e+001  0.000000e+000
      vertex  2.892880e+000  2.382501e+001  0.000000e+000
    endloop
  endfacet
  facet normal  0.000000e+000  0.000000e+000 -1.000000e+000
    outer loop
      vertex -2.330260e+001  5.743576e+000  0.000000e+000
      vertex  2.400000e+001  0.000000e+000  0.000000e+000
      vertex -2.400000e+001  2.939152e-015  0.000000e+000
    endloop
  endfacet
  facet normal  0.000000e+000  0.000000e+000 -1.000000e+000
    outer loop
      vertex -2.400000e+001  2.939152e-015  0.000000e+000
      vertex  2.400000e+001  0.000000e+000  0.000000e+000
      vertex  2.330260e+001 -5.743576e+000  0.000000e+000
    endloop
  endfacet
  facet normal  0.000000e+000  0.000000e+000 -1.000000e+000
    outer loop
      vertex -2.400000e+001  2.939152e-015  0.000000e+000
      vertex  2.330260e+001 -5.743576e+000  0.000000e+000
      vertex -2.330260e+001 -5.743576e+000  0.000000e+000
    endloop
  endfacet
  facet normal  0.000000e+000  0.000000e+000 -1.000000e+000
    outer loop
      vertex -2.330260e+001 -5.743576e+000  0.000000e+000
      vertex  2.330260e+001 -5.743576e+000  0.000000e+000
      vertex  2.125094e+001 -1.115336e+001  0.000000e+000
    endloop
  endfacet
  facet normal  0.000000e+000  0.000000e+000 -1.000000e+000
    outer loop
      vertex -2.330260e+001 -5.743576e+000  0.000000e+000
      vertex  2.125094e+001 -1.115336e+001  0.000000e+000
      vertex -2.125094e+001 -1.115336e+001  0.000000e+000
    endloop
  endfacet
  facet normal  0.000000e+000  0.000000e+000 -1.000000e+000
    outer loop
      vertex -2.125094e+001 -1.115336e+001  0.000000e+000
      vertex  2.125094e+001 -1.115336e+001  0.000000e+000
      vertex  1.796426e+001 -1.591494e+001  0.000000e+000
    endloop
  endfacet
  facet normal  0.000000e+000  0.000000e+000 -1.000000e+000
    outer loop
      vertex -2.125094e+001 -1.115336e+001  0.000000e+000
      vertex  1.796426e+001 -1.591494e+001  0.000000e+000
      vertex -1.796426e+001 -1.591494e+001  0.000000e+000
    endloop
  endfacet
  facet normal  0.000000e+000  0.000000e+000 -1.000000e+000
    outer loop
      vertex -1.796426e+001 -1.591494e+001  0.000000e+000
      vertex  1.796426e+001 -1.591494e+001  0.000000e+000
      vertex  1.363355e+001 -1.975161e+001  0.000000e+000
    endloop
  endfacet
  facet normal  0.000000e+000  0.000000e+000 -1.000000e+000
    outer loop
      vertex -1.796426e+001 -1.591494e+001  0.000000e+000
      vertex  1.363355e+001 -1.975161e+001  0.000000e+000
      vertex -1.363355e+001 -1.975161e+001  0.000000e+000
    endloop
  endfacet
  facet normal  0.000000e+000  0.000000e+000 -9.999999e-001
    outer loop
      vertex -1.363355e+001 -1.975161e+001  0.000000e+000
      vertex  1.363355e+001 -1.975161e+001  0.000000e+000
      vertex  8.510517e+000 -2.244039e+001  0.000000e+000
    endloop
  endfacet
  facet normal  0.000000e+000  0.000000e+000 -1.000000e+000
    outer loop
      vertex -1.363355e+001 -1.975161e+001  0.000000e+000
      vertex  8.510517e+000 -2.244039e+001  0.000000e+000
      vertex -8.510517e+000 -2.244039e+001  0.000000e+000
    endloop
  endfacet
  facet normal  0.000000e+000  0.000000e+000 -1.000000e+000
    outer loop
      vertex -8.510517e+000 -2.244039e+001  0.000000e+000
      vertex  8.510517e+000 -2.244039e+001  0.000000e+000
      vertex  2.892880e+000 -2.382501e+001  0.000000e+000
    endloop
  endfacet
  facet normal  0.000000e+000  0.000000e+000 -1.000000e+000
    outer loop
      vertex -8.510517e+000 -2.244039e+001  0.000000e+000
      vertex  2.892880e+000 -2.382501e+001  0.000000e+000
      vertex -2.892880e+000 -2.382501e+001  0.000000e+000
    endloop
  endfacet
  facet normal  9.927089e-001 -1.205368e-001  0.000000e+000
    outer loop
      vertex  2.400000e+001  0.000000e+000  0.000000e+000
      vertex  2.400000e+001  0.000000e+000  3.200000e+001
      vertex  2.330260e+001 -5.743576e+000  0.000000e+000
    endloop
  endfacet
  facet normal  9.927089e-001 -1.205368e-001  0.000000e+000
    outer loop
      vertex  2.330260e+001 -5.743576e+000  0.000000e+000
      vertex  2.400000e+001  0.000000e+000  3.200000e+001
      vertex  2.330260e+001 -5.743576e+000  3.200000e+001
    endloop
  endfacet
  facet normal  9.350163e-001 -3.546048e-001  0.000000e+000
    outer loop
      vertex  2.330260e+001 -5.743576e+000  0.000000e+000
      vertex  2.330260e+001 -5.743576e+000  3.200000e+001
      vertex  2.125094e+001 -1.115336e+001  0.000000e+000
    endloop
  endfacet
  facet normal  9.350163e-001 -3.546048e-001  0.000000e+000
    outer loop
      vertex  2.125094e+001 -1.115336e+001  0.000000e+000
      vertex  2.330260e+001 -5.743576e+000  3.200000e+001
      vertex  2.125094e+001 -1.115336e+001  3.200000e+001
    endloop
  endfacet
  facet normal  8.229839e-001 -5.680647e-001  0.000000e+000
    outer loop
      vertex  2.125094e+001 -1.115336e+001  0.000000e+000
      vertex  2.125094e+001 -1.115336e+001  3.200000e+001
      vertex  1.796426e+001 -1.591494e+001  0.000000e+000
    endloop
  endfacet
  facet normal  8.229839e-001 -5.680647e-001  0.000000e+000
    outer loop
      vertex  1.796426e+001 -1.591494e+001  0.000000e+000
      vertex  2.125094e+001 -1.115336e+001  3.200000e+001
      vertex  1.796426e+001 -1.591494e+001  3.200000e+001
    endloop
  endfacet
  facet normal  6.631227e-001 -7.485107e-001  0.000000e+000
    outer loop
      vertex  1.796426e+001 -1.591494e+001  0.000000e+000
      vertex  1.796426e+001 -1.591494e+001  3.200000e+001
      vertex  1.363355e+001 -1.975161e+001  0.000000e+000
    endloop
  endfacet
  facet normal  6.631227e-001 -7.485107e-001  0.000000e+000
    outer loop
      vertex  1.363355e+001 -1.975161e+001  0.000000e+000
      vertex  1.796426e+001 -1.591494e+001  3.200000e+001
      vertex  1.363355e+001 -1.975161e+001  3.200000e+001
    endloop
  endfacet
  facet normal  4.647231e-001 -8.854561e-001  0.000000e+000
    outer loop
      vertex  1.363355e+001 -1.975161e+001  0.000000e+000
      vertex  1.363355e+001 -1.975161e+001  3.200000e+001
      vertex  8.510517e+000 -2.244039e+001  0.000000e+000
    endloop
  endfacet
  facet normal  4.647231e-001 -8.854561e-001  0.000000e+000
    outer loop
      vertex  8.510517e+000 -2.244039e+001  0.000000e+000
      vertex  1.363355e+001 -1.975161e+001  3.200000e+001
      vertex  8.510517e+000 -2.244039e+001  3.200000e+001
    endloop
  endfacet
  facet normal  2.393156e-001 -9.709418e-001  0.000000e+000
    outer loop
      vertex  8.510517e+000 -2.244039e+001  0.000000e+000
      vertex  8.510517e+000 -2.244039e+001  3.200000e+001
      vertex  2.892880e+000 -2.382501e+001  0.000000e+000
    endloop
  endfacet
  facet normal  2.393156e-001 -9.709418e-001  0.000000e+000
    outer loop
      vertex  2.892880e+000 -2.382501e+001  0.000000e+000
      vertex  8.510517e+000 -2.244039e+001  3.200000e+001
      vertex  2.892880e+000 -2.382501e+001  3.200000e+001
    endloop
  endfacet
  facet normal  0.000000e+000 -1.000000e+000  -0.000000e+000
    outer loop
      vertex  2.892880e+000 -2.382501e+001  0.000000e+000
      vertex  2.892880e+000 -2.382501e+001  3.200000e+001
      vertex -2.892880e+000 -2.382501e+001  0.000000e+000
    endloop
  endfacet
  facet normal  0.000000e+000 -1.000000e+000  0.000000e+000
    outer loop
      vertex -2.892880e+000 -2.382501e+001  0.000000e+000
      vertex  2.892880e+000 -2.382501e+001  3.200000e+001
      vertex -2.892880e+000 -2.382501e+001  3.200000e+001
    endloop
  endfacet
  facet normal -2.393156e-001 -9.709418e-001  -0.000000e+000
    outer loop
      vertex -2.892880e+000 -2.382501e+001  0.000000e+000
      vertex -2.892880e+000 -2.382501e+001  3.200000e+001
      vertex -8.510517e+000 -2.244039e+001  0.000000e+000
    endloop
  endfacet
  facet normal -2.393156e-001 -9.709418e-001  0.000000e+000
    outer loop
      vertex -8.510517e+000 -2.244039e+001  0.000000e+000
      vertex -2.892880e+000 -2.382501e+001  3.200000e+001
      vertex -8.510517e+000 -2.244039e+001  3.200000e+001
    endloop
  endfacet
  facet normal -4.647231e-001 -8.854561e-001  -0.000000e+000
    outer loop
      vertex -8.510517e+000 -2.244039e+001  0.000000e+000
      vertex -8.510517e+000 -2.244039e+001  3.200000e+001
      vertex -1.363355e+001 -1.975161e+001  0.000000e+000
    endloop
  endfacet
  facet normal -4.647231e-001 -8.854561e-001  0.000000e+000
    outer loop
      vertex -1.363355e+001 -1.975161e+001  0.000000e+000
      vertex -8.510517e+000 -2.244039e+001  3.200000e+001
      vertex -1.363355e+001 -1.975161e+001  3.200000e+001
    endloop
  endfacet
  facet normal -6.631227e-001 -7.485107e-001  -0.000000e+000
    outer loop
      vertex -1.363355e+001 -1.975161e+001  0.000000e+000
      vertex -1.363355e+001 -1.975161e+001  3.200000e+001
      vertex -1.796426e+001 -1.591494e+001  0.000000e+000
    endloop
  endfacet
  facet normal -6.631227e-001 -7.485107e-001  0.000000e+000
    outer loop
      vertex -1.796426e+001 -1.591494e+001  0.000000e+000
      vertex -1.363355e+001 -1.975161e+001  3.200000e+001
      vertex -1.796426e+001 -1.591494e+001  3.200000e+001
    endloop
  endfacet
  facet normal -8.229839e-001 -5.680647e-001  -0.000000e+000
    outer loop
      vertex -1.796426e+001 -1.591494e+001  0.000000e+000
      vertex -1.796426e+001 -1.591494e+001  3.200000e+001
      vertex -2.125094e+001 -1.115336e+001  0.000000e+000
    endloop
  endfacet
  facet normal -8.229839e-001 -5.680647e-001  0.000000e+000
    outer loop
      vertex -2.125094e+001 -1.115336e+001  0.000000e+000
      vertex -1.796426e+001 -1.591494e+001  3.200000e+001
      vertex -2.125094e+001 -1.115336e+001  3.200000e+001
    endloop
  endfacet
  facet normal -9.350163e-001 -3.546048e-001  -0.000000e+000
    outer loop
      vertex -2.125094e+001 -1.115336e+001  0.000000e+000
      vertex -2.125094e+001 -1.115336e+001  3.200000e+001
      vertex -2.330260e+001 -5.743576e+000  0.000000e+000
    endloop
  endfacet
  facet normal -9.350163e-001 -3.546048e-001  0.000000e+000
    outer loop
      vertex -2.330260e+001 -5.743576e+000  0.000000e+000
      vertex -2.125094e+001 -1.115336e+001  3.200000e+001
      vertex -2.330260e+001 -5.743576e+000  3.200000e+001
    endloop
  endfacet
  facet normal -9.927089e-001 -1.205368e-001  -0.000000e+000
    outer loop
      vertex -2.330260e+001 -5.743576e+000  0.000000e+000
      vertex -2.330260e+001 -5.743576e+000  3.200000e+001
      vertex -2.400000e+001  2.939152e-015  0.000000e+000
    endloop
  endfacet
  facet normal -9.927089e-001 -1.205368e-001  0.000000e+000
    outer loop
      vertex -2.400000e+001  2.939152e-015  0.000000e+000
      vertex -2.330260e+001 -5.743576e+000  3.200000e+001
      vertex -2.400000e+001  2.939152e-015  3.200000e+001
    endloop
  endfacet
  facet normal -9.927089e-001  1.205368e-001  0.000000e+000
    outer loop
      vertex -2.400000e+001  2.939152e-015  0.000000e+000
      vertex -2.400000e+001  2.939152e-015  3.200000e+001
      vertex -2.330260e+001  5.743576e+000  0.000000e+000
    endloop
  endfacet
  facet normal -9.927089e-001  1.205368e-001  0.000000e+000
    outer loop
      vertex -2.330260e+001  5.743576e+000  0.000000e+000
      vertex -2.400000e+001  2.939152e-015  3.200000e+001
      vertex -2.330260e+001  5.743576e+000  3.200000e+001
    endloop
  endfacet
  facet normal -9.350163e-001  3.546048e-001  0.000000e+000
    outer loop
      vertex -2.330260e+001  5.743576e+000  0.000000e+000
      vertex -2.330260e+001  5.743576e+000  3.200000e+001
      vertex -2.125094e+001  1.115336e+001  0.000000e+000
    endloop
  endfacet
  facet normal -9.350163e-001  3.546048e-001  0.000000e+000
    outer loop
      vertex -2.125094e+001  1.115336e+001  0.000000e+000
      vertex -2.330260e+001  5.743576e+000  3.200000e+001
      vertex -2.125094e+001  1.115336e+001  3.200000e+001
    endloop
  endfacet
  facet normal -8.229839e-001  5.680647e-001  0.000000e+000
    outer loop
      vertex -2.125094e+001  1.115336e+001  0.000000e+000
      vertex -2.125094e+001  1.115336e+001  3.200000e+001
      vertex -1.796426e+001  1.591494e+001  0.000000e+000
    endloop
  endfacet
  facet normal -8.229839e-001  5.680647e-001  0.000000e+000
    outer loop
      vertex -1.796426e+001  1.591494e+001  0.000000e+000
      vertex -2.125094e+001  1.115336e+001  3.200000e+001
      vertex -1.796426e+001  1.591494e+001  3.200000e+001
    endloop
  endfacet
  facet normal -6.631227e-001  7.485107e-001  0.000000e+000
    outer loop
      vertex -1.796426e+001  1.591494e+001  0.000000e+000
      vertex -1.796426e+001  1.591494e+001  3.200000e+001
      vertex -1.363355e+001  1.975161e+001  0.000000e+000
    endloop
  endfacet
  facet normal -6.631227e-001  7.485107e-001  0.000000e+000
    outer loop
      vertex -1.363355e+001  1.975161e+001  0.000000e+000
      vertex -1.796426e+001  1.591494e+001  3.200000e+001
      vertex -1.363355e+001  1.975161e+001  3.200000e+001
    endloop
  endfacet
  facet normal -4.647231e-001  8.854561e-001  0.000000e+000
    outer loop
      vertex -1.363355e+001  1.975161e+001  0.000000e+000
      vertex -1.363355e+001  1.975161e+001  3.200000e+001
      vertex -8.510517e+000  2.244039e+001  0.000000e+000
    endloop
  endfacet
  facet normal -4.647231e-001  8.854561e-001  0.000000e+000
    outer loop
      vertex -8.510517e+000  2.244039e+001  0.000000e+000
      vertex -1.363355e+001  1.975161e+001  3.200000e+001
      vertex -8.510517e+000  2.244039e+001  3.200000e+001
    endloop
  endfacet
  facet normal -2.393156e-001  9.709418e-001  0.000000e+000
    outer loop
      vertex -8.510517e+000  2.244039e+001  0.000000e+000
      vertex -8.510517e+000  2.244039e+001  3.200000e+001
      vertex -2.892880e+000  2.382501e+001  0.000000e+000
    endloop
  endfacet
  facet normal -2.393156e-001  9.709418e-001  0.000000e+000
    outer loop
      vertex -2.892880e+000  2.382501e+001  0.000000e+000
      vertex -8.510517e+000  2.244039e+001  3.200000e+001
      vertex -2.892880e+000  2.382501e+001  3.200000e+001
    endloop
  endfacet
  facet normal  0.000000e+000  1.000000e+000  0.000000e+000
    outer loop
      vertex -2.892880e+000  2.382501e+001  0.000000e+000
      vertex -2.892880e+000  2.382501e+001  3.200000e+001
      vertex  2.892880e+000  2.382501e+001  0.000000e+000
    endloop
  endfacet
  facet normal  0.000000e+000  1.000000e+000  -0.000000e+000
    outer loop
      vertex  2.892880e+000  2.382501e+001  0.000000e+000
      vertex -2.892880e+000  2.382501e+001  3.200000e+001
      vertex  2.892880e+000  2.382501e+001  3.200000e+001
    endloop
  endfacet
  facet normal  2.393156e-001  9.709418e-001  0.000000e+000
    outer loop
      vertex  2.892880e+000  2.382501e+001  0.000000e+000
      vertex  2.892880e+000  2.382501e+001  3.200000e+001
      vertex  8.510517e+000  2.244039e+001  0.000000e+000
    endloop
  endfacet
  facet normal  2.393156e-001  9.709418e-001  -0.000000e+000
    outer loop
      vertex  8.510517e+000  2.244039e+001  0.000000e+000
      vertex  2.892880e+000  2.382501e+001  3.200000e+001
      vertex  8.510517e+000  2.244039e+001  3.200000e+001
    endloop
  endfacet
  facet normal  4.647231e-001  8.854561e-001  0.000000e+000
    outer loop
      vertex  8.510517e+000  2.244039e+001  0.000000e+000
      vertex  8.510517e+000  2.244039e+001  3.200000e+001
      vertex  1.363355e+001  1.975161e+001  0.000000e+000
    endloop
  endfacet
  facet normal  4.647231e-001  8.854561e-001  -0.000000e+000
    outer loop
      vertex  1.363355e+001  1.975161e+001  0.000000e+000
      vertex  8.510517e+000  2.244039e+001  3.200000e+001
      vertex  1.363355e+001  1.975161e+001  3.200000e+001
    endloop
  endfacet
  facet normal  6.631227e-001  7.485107e-001  0.000000e+000
    outer loop
      vertex  1.363355e+001  1.975161e+001  0.000000e+000
      vertex  1.363355e+001  1.975161e+001  3.200000e+001
      vertex  1.796426e+001  1.591494e+001  0.000000e+000
    endloop
  endfacet
  facet normal  6.631227e-001  7.485107e-001  -0.000000e+000
    outer loop
      vertex  1.796426e+001  1.591494e+001  0.000000e+000
      vertex  1.363355e+001  1.975161e+001  3.200000e+001
      vertex  1.796426e+001  1.591494e+001  3.200000e+001
    endloop
  endfacet
  facet normal  8.229839e-001  5.680647e-001  0.000000e+000
    outer loop
      vertex  1.796426e+001  1.591494e+001  0.000000e+000
      vertex  1.796426e+001  1.591494e+001  3.200000e+001
      vertex  2.125094e+001  1.115336e+001  0.000000e+000
    endloop
  endfacet
  facet normal  8.229839e-001  5.680647e-001  -0.000000e+000
    outer loop
      vertex  2.125094e+001  1.115336e+001  0.000000e+000
      vertex  1.796426e+001  1.591494e+001  3.200000e+001
      vertex  2.125094e+001  1.115336e+001  3.200000e+001
    endloop
  endfacet
  facet normal  9.350163e-001  3.546048e-001  0.000000e+000
    outer loop
      vertex  2.125094e+001  1.115336e+001  0.000000e+000
      vertex  2.125094e+001  1.115336e+001  3.200000e+001
      vertex  2.330260e+001  5.743576e+000  0.000000e+000
    endloop
  endfacet
  facet normal  9.350163e-001  3.546048e-001  -0.000000e+000
    outer loop
      vertex  2.330260e+001  5.743576e+000  0.000000e+000
      vertex  2.125094e+001  1.115336e+001  3.200000e+001
      vertex  2.330260e+001  5.743576e+000  3.200000e+001
    endloop
  endfacet
  facet normal  9.927089e-001  1.205368e-001  0.000000e+000
    outer loop
      vertex  2.330260e+001  5.743576e+000  0.000000e+000
      vertex  2.330260e+001  5.743576e+000  3.200000e+001
      vertex  2.400000e+001  0.000000e+000  0.000000e+000
    endloop
  endfacet
  facet normal  9.927089e-001  1.205368e-001  -0.000000e+000
    outer loop
      vertex  2.400000e+001  0.000000e+000  0.000000e+000
      vertex  2.330260e+001  5.743576e+000  3.200000e+001
      vertex  2.400000e+001  0.000000e+000  3.200000e+001
    endloop
  endfacet
endsolid CATIA STL
