solid CATIA STL
  facet normal  0.000000e+000  0.000000e+000  1.000000e+000
    outer loop
      vertex -5.176381e+000  1.931852e+001  4.000000e+000
      vertex  5.176381e+000  1.931852e+001  4.000000e+000
      vertex  1.224647e-015  2.000000e+001  4.000000e+000
    endloop
  endfacet
  facet normal  -0.000000e+000  0.000000e+000  1.000000e+000
    outer loop
      vertex  5.176381e+000  1.931852e+001  4.000000e+000
      vertex -5.176381e+000  1.931852e+001  4.000000e+000
      vertex  1.000000e+001  1.732051e+001  4.000000e+000
    endloop
  endfacet
  facet normal  0.000000e+000  0.000000e+000  1.000000e+000
    outer loop
      vertex  1.000000e+001  1.732051e+001  4.000000e+000
      vertex -5.176381e+000  1.931852e+001  4.000000e+000
      vertex -1.000000e+001  1.732051e+001  4.000000e+000
    endloop
  endfacet
  facet normal  -0.000000e+000  0.000000e+000  1.000000e+000
    outer loop
      vertex  1.000000e+001  1.732051e+001  4.000000e+000
      vertex -1.000000e+001  1.732051e+001  4.000000e+000
      vertex  1.414214e+001  1.414214e+001  4.000000e+000
    endloop
  endfacet
  facet normal  0.000000e+000  0.000000e+000  1.000000e+000
    outer loop
      vertex  1.414214e+001  1.414214e+001  4.000000e+000
      vertex -1.000000e+001  1.732051e+001  4.000000e+000
      vertex -1.414214e+001  1.414214e+001  4.000000e+000
    endloop
  endfacet
  facet normal  -0.000000e+000  0.000000e+000  1.000000e+000
    outer loop
      vertex  1.414214e+001  1.414214e+001  4.000000e+000
      vertex -1.414214e+001  1.414214e+001  4.000000e+000
      vertex  1.732051e+001  1.000000e+001  4.000000e+000
    endloop
  endfacet
  facet normal  0.000000e+000  0.000000e+000  1.000000e+000
    outer loop
      vertex  1.732051e+001  1.000000e+001  4.000000e+000
      vertex -1.414214e+001  1.414214e+001  4.000000e+000
      vertex -1.732051e+001  1.000000e+001  4.000000e+000
    endloop
  endfacet
  facet normal  -0.000000e+000  0.000000e+000  1.000000e+000
    outer loop
      vertex  1.732051e+001  1.000000e+001  4.000000e+000
      vertex -1.732051e+001  1.000000e+001  4.000000e+000
      vertex  1.931852e+001  5.176381e+000  4.000000e+000
    endloop
  endfacet
  facet normal  0.000000e+000  0.000000e+000  1.000000e+000
    outer loop
      vertex  1.931852e+001  5.176381e+000  4.000000e+000
      vertex -1.732051e+001  1.000000e+001  4.000000e+000
      vertex -1.931852e+001  5.176381e+000  4.000000e+000
    endloop
  endfacet
  facet normal  -0.000000e+000  0.000000e+000  1.000000e+000
    outer loop
      vertex  1.931852e+001  5.176381e+000  4.000000e+000
      vertex -1.931852e+001  5.176381e+000  4.000000e+000
      vertex  2.000000e+001  0.000000e+000  4.000000e+000
    endloop
  endfacet
  facet normal  0.000000e+000  0.000000e+000  1.000000e+000
    outer loop
      vertex  2.000000e+001  0.000000e+000  4.000000e+000
      vertex -1.931852e+001  5.176381e+000  4.000000e+000
      vertex -2.000000e+001  2.449294e-015  4.000000e+000
    endloop
  endfacet
  facet normal  0.000000e+000  0.000000e+000  1.000000e+000
    outer loop
      vertex  2.000000e+001  0.000000e+000  4.000000e+000
      vertex -2.000000e+001  2.449294e-015  4.000000e+000
      vertex  1.931852e+001 -5.176381e+000  4.000000e+000
    endloop
  endfacet
  facet normal  0.000000e+000  0.000000e+000  1.000000e+000
    outer loop
      vertex  1.931852e+001 -5.176381e+000  4.000000e+000
      vertex -2.000000e+001  2.449294e-015  4.000000e+000
      vertex -1.931852e+001 -5.176381e+000  4.000000e+000
    endloop
  endfacet
  facet normal  -0.000000e+000  0.000000e+000  1.000000e+000
    outer loop
      vertex  1.931852e+001 -5.176381e+000  4.000000e+000
      vertex -1.931852e+001 -5.176381e+000  4.000000e+000
      vertex  1.732051e+001 -1.000000e+001  4.000000e+000
    endloop
  endfacet
  facet normal  0.000000e+000  0.000000e+000  1.000000e+000
    outer loop
      vertex  1.732051e+001 -1.000000e+001  4.000000e+000
      vertex -1.931852e+001 -5.176381e+000  4.000000e+000
      vertex -1.732051e+001 -1.000000e+001  4.000000e+000
    endloop
  endfacet
  facet normal  -0.000000e+000  0.000000e+000  1.000000e+000
    outer loop
      vertex  1.732051e+001 -1.000000e+001  4.000000e+000
      vertex -1.732051e+001 -1.000000e+001  4.000000e+000
      vertex  1.414214e+001 -1.414214e+001  4.000000e+000
    endloop
  endfacet
  facet normal  0.000000e+000  0.000000e+000  1.000000e+000
    outer loop
      vertex  1.414214e+001 -1.414214e+001  4.000000e+000
      vertex -1.732051e+001 -1.000000e+001  4.000000e+000
      vertex -1.414214e+001 -1.414214e+001  4.000000e+000
    endloop
  endfacet
  facet normal  -0.000000e+000  0.000000e+000  1.000000e+000
    outer loop
      vertex  1.414214e+001 -1.414214e+001  4.000000e+000
      vertex -1.414214e+001 -1.414214e+001  4.000000e+000
      vertex  1.000000e+001 -1.732051e+001  4.000000e+000
    endloop
  endfacet
  facet normal  0.000000e+000  0.000000e+000  1.000000e+000
    outer loop
      vertex  1.000000e+001 -1.732051e+001  4.000000e+000
      vertex -1.414214e+001 -1.414214e+001  4.000000e+000
      vertex -1.000000e+001 -1.732051e+001  4.000000e+000
    endloop
  endfacet
  facet normal  -0.000000e+000  0.000000e+000  1.000000e+000
    outer loop
      vertex  1.000000e+001 -1.732051e+001  4.000000e+000
      vertex -1.000000e+001 -1.732051e+001  4.000000e+000
      vertex  5.176381e+000 -1.931852e+001  4.000000e+000
    endloop
  endfacet
  facet normal  0.000000e+000  0.000000e+000  1.000000e+000
    outer loop
      vertex  5.176381e+000 -1.931852e+001  4.000000e+000
      vertex -1.000000e+001 -1.732051e+001  4.000000e+000
      vertex -5.176381e+000 -1.931852e+001  4.000000e+000
    endloop
  endfacet
  facet normal  -0.000000e+000  0.000000e+000  1.000000e+000
    outer loop
      vertex  5.176381e+000 -1.931852e+001  4.000000e+000
      vertex -5.176381e+000 -1.931852e+001  4.000000e+000
      vertex -3.673940e-015 -2.000000e+001  4.000000e+000
    endloop
  endfacet
  facet normal  0.000000e+000  0.000000e+000 -1.000000e+000
    outer loop
      vertex  1.224647e-015  2.000000e+001  0.000000e+000
      vertex  5.176381e+000  1.931852e+001  0.000000e+000
      vertex -5.176381e+000  1.931852e+001  0.000000e+000
    endloop
  endfacet
  facet normal  0.000000e+000  0.000000e+000 -1.000000e+000
    outer loop
      vertex -3.673940e-015 -2.000000e+001  0.000000e+000
      vertex -5.176381e+000 -1.931852e+001  0.000000e+000
      vertex  5.176381e+000 -1.931852e+001  0.000000e+000
    endloop
  endfacet
  facet normal  0.000000e+000  0.000000e+000 -1.000000e+000
    outer loop
      vertex  5.176381e+000 -1.931852e+001  0.000000e+000
      vertex -5.176381e+000 -1.931852e+001  0.000000e+000
      vertex -1.000000e+001 -1.732051e+001  0.000000e+000
    endloop
  endfacet
  facet normal  0.000000e+000  0.000000e+000 -1.000000e+000
    outer loop
      vertex  5.176381e+000 -1.931852e+001  0.000000e+000
      vertex -1.000000e+001 -1.732051e+001  0.000000e+000
      vertex  1.000000e+001 -1.732051e+001  0.000000e+000
    endloop
  endfacet
  facet normal  0.000000e+000  0.000000e+000 -1.000000e+000
    outer loop
      vertex  1.000000e+001 -1.732051e+001  0.000000e+000
      vertex -1.000000e+001 -1.732051e+001  0.000000e+000
      vertex -1.414214e+001 -1.414214e+001  0.000000e+000
    endloop
  endfacet
  facet normal  0.000000e+000  0.000000e+000 -1.000000e+000
    outer loop
      vertex  1.000000e+001 -1.732051e+001  0.000000e+000
      vertex -1.414214e+001 -1.414214e+001  0.000000e+000
      vertex  1.414214e+001 -1.414214e+001  0.000000e+000
    endloop
  endfacet
  facet normal  0.000000e+000  0.000000e+000 -1.000000e+000
    outer loop
      vertex  1.414214e+001 -1.414214e+001  0.000000e+000
      vertex -1.414214e+001 -1.414214e+001  0.000000e+000
      vertex -1.732051e+001 -1.000000e+001  0.000000e+000
    endloop
  endfacet
  facet normal  0.000000e+000  0.000000e+000 -1.000000e+000
    outer loop
      vertex  1.414214e+001 -1.414214e+001  0.000000e+000
      vertex -1.732051e+001 -1.000000e+001  0.000000e+000
      vertex  1.732051e+001 -1.000000e+001  0.000000e+000
    endloop
  endfacet
  facet normal  0.000000e+000  0.000000e+000 -1.000000e+000
    outer loop
      vertex  1.732051e+001 -1.000000e+001  0.000000e+000
      vertex -1.732051e+001 -1.000000e+001  0.000000e+000
      vertex -1.931852e+001 -5.176381e+000  0.000000e+000
    endloop
  endfacet
  facet normal  0.000000e+000  0.000000e+000 -1.000000e+000
    outer loop
      vertex  1.732051e+001 -1.000000e+001  0.000000e+000
      vertex -1.931852e+001 -5.176381e+000  0.000000e+000
      vertex  1.931852e+001 -5.176381e+000  0.000000e+000
    endloop
  endfacet
  facet normal  0.000000e+000  0.000000e+000 -1.000000e+000
    outer loop
      vertex  1.931852e+001 -5.176381e+000  0.000000e+000
      vertex -1.931852e+001 -5.176381e+000  0.000000e+000
      vertex -2.000000e+001  2.449294e-015  0.000000e+000
    endloop
  endfacet
  facet normal  0.000000e+000  0.000000e+000 -1.000000e+000
    outer loop
      vertex  1.931852e+001 -5.176381e+000  0.000000e+000
      vertex -2.000000e+001  2.449294e-015  0.000000e+000
      vertex  2.000000e+001  0.000000e+000  0.000000e+000
    endloop
  endfacet
  facet normal  0.000000e+000  0.000000e+000 -1.000000e+000
    outer loop
      vertex  2.000000e+001  0.000000e+000  0.000000e+000
      vertex -2.000000e+001  2.449294e-015  0.000000e+000
      vertex -1.931852e+001  5.176381e+000  0.000000e+000
    endloop
  endfacet
  facet normal  0.000000e+000  0.000000e+000 -1.000000e+000
    outer loop
      vertex  2.000000e+001  0.000000e+000  0.000000e+000
      vertex -1.931852e+001  5.176381e+000  0.000000e+000
      vertex  1.931852e+001  5.176381e+000  0.000000e+000
    endloop
  endfacet
  facet normal  0.000000e+000  0.000000e+000 -1.000000e+000
    outer loop
      vertex  1.931852e+001  5.176381e+000  0.000000e+000
      vertex -1.931852e+001  5.176381e+000  0.000000e+000
      vertex -1.732051e+001  1.000000e+001  0.000000e+000
    endloop
  endfacet
  facet normal  0.000000e+000  0.000000e+000 -1.000000e+000
    outer loop
      vertex  1.931852e+001  5.176381e+000  0.000000e+000
      vertex -1.732051e+001  1.000000e+001  0.000000e+000
      vertex  1.732051e+001  1.000000e+001  0.000000e+000
    endloop
  endfacet
  facet normal  0.000000e+000  0.000000e+000 -1.000000e+000
    outer loop
      vertex  1.732051e+001  1.000000e+001  0.000000e+000
      vertex -1.732051e+001  1.000000e+001  0.000000e+000
      vertex -1.414214e+001  1.414214e+001  0.000000e+000
    endloop
  endfacet
  facet normal  0.000000e+000  0.000000e+000 -1.000000e+000
    outer loop
      vertex  1.732051e+001  1.000000e+001  0.000000e+000
      vertex -1.414214e+001  1.414214e+001  0.000000e+000
      vertex  1.414214e+001  1.414214e+001  0.000000e+000
    endloop
  endfacet
  facet normal  0.000000e+000  0.000000e+000 -1.000000e+000
    outer loop
      vertex  1.414214e+001  1.414214e+001  0.000000e+000
      vertex -1.414214e+001  1.414214e+001  0.000000e+000
      vertex -1.000000e+001  1.732051e+001  0.000000e+000
    endloop
  endfacet
  facet normal  0.000000e+000  0.000000e+000 -1.000000e+000
    outer loop
      vertex  1.414214e+001  1.414214e+001  0.000000e+000
      vertex -1.000000e+001  1.732051e+001  0.000000e+000
      vertex  1.000000e+001  1.732051e+001  0.000000e+000
    endloop
  endfacet
  facet normal  0.000000e+000  0.000000e+000 -1.000000e+000
    outer loop
      vertex  1.000000e+001  1.732051e+001  0.000000e+000
      vertex -1.000000e+001  1.732051e+001  0.000000e+000
      vertex -5.176381e+000  1.931852e+001  0.000000e+000
    endloop
  endfacet
  facet normal  0.000000e+000  0.000000e+000 -1.000000e+000
    outer loop
      vertex  1.000000e+001  1.732051e+001  0.000000e+000
      vertex -5.176381e+000  1.931852e+001  0.000000e+000
      vertex  5.176381e+000  1.931852e+001  0.000000e+000
    endloop
  endfacet
  facet normal  9.914449e-001 -1.305263e-001  0.000000e+000
    outer loop
      vertex  2.000000e+001  0.000000e+000  0.000000e+000
      vertex  2.000000e+001  0.000000e+000  4.000000e+000
      vertex  1.931852e+001 -5.176381e+000  0.000000e+000
    endloop
  endfacet
  facet normal  9.914449e-001 -1.305263e-001  0.000000e+000
    outer loop
      vertex  1.931852e+001 -5.176381e+000  0.000000e+000
      vertex  2.000000e+001  0.000000e+000  4.000000e+000
      vertex  1.931852e+001 -5.176381e+000  4.000000e+000
    endloop
  endfacet
  facet normal  9.238796e-001 -3.826832e-001  0.000000e+000
    outer loop
      vertex  1.931852e+001 -5.176381e+000  0.000000e+000
      vertex  1.931852e+001 -5.176381e+000  4.000000e+000
      vertex  1.732051e+001 -1.000000e+001  0.000000e+000
    endloop
  endfacet
  facet normal  9.238796e-001 -3.826832e-001  0.000000e+000
    outer loop
      vertex  1.732051e+001 -1.000000e+001  0.000000e+000
      vertex  1.931852e+001 -5.176381e+000  4.000000e+000
      vertex  1.732051e+001 -1.000000e+001  4.000000e+000
    endloop
  endfacet
  facet normal  7.933533e-001 -6.087615e-001  0.000000e+000
    outer loop
      vertex  1.732051e+001 -1.000000e+001  0.000000e+000
      vertex  1.732051e+001 -1.000000e+001  4.000000e+000
      vertex  1.414214e+001 -1.414214e+001  0.000000e+000
    endloop
  endfacet
  facet normal  7.933533e-001 -6.087615e-001  0.000000e+000
    outer loop
      vertex  1.414214e+001 -1.414214e+001  0.000000e+000
      vertex  1.732051e+001 -1.000000e+001  4.000000e+000
      vertex  1.414214e+001 -1.414214e+001  4.000000e+000
    endloop
  endfacet
  facet normal  6.087615e-001 -7.933533e-001  0.000000e+000
    outer loop
      vertex  1.414214e+001 -1.414214e+001  0.000000e+000
      vertex  1.414214e+001 -1.414214e+001  4.000000e+000
      vertex  1.000000e+001 -1.732051e+001  0.000000e+000
    endloop
  endfacet
  facet normal  6.087615e-001 -7.933533e-001  0.000000e+000
    outer loop
      vertex  1.000000e+001 -1.732051e+001  0.000000e+000
      vertex  1.414214e+001 -1.414214e+001  4.000000e+000
      vertex  1.000000e+001 -1.732051e+001  4.000000e+000
    endloop
  endfacet
  facet normal  3.826832e-001 -9.238796e-001  0.000000e+000
    outer loop
      vertex  1.000000e+001 -1.732051e+001  0.000000e+000
      vertex  1.000000e+001 -1.732051e+001  4.000000e+000
      vertex  5.176381e+000 -1.931852e+001  0.000000e+000
    endloop
  endfacet
  facet normal  3.826832e-001 -9.238796e-001  0.000000e+000
    outer loop
      vertex  5.176381e+000 -1.931852e+001  0.000000e+000
      vertex  1.000000e+001 -1.732051e+001  4.000000e+000
      vertex  5.176381e+000 -1.931852e+001  4.000000e+000
    endloop
  endfacet
  facet normal  1.305263e-001 -9.914449e-001  0.000000e+000
    outer loop
      vertex  5.176381e+000 -1.931852e+001  0.000000e+000
      vertex  5.176381e+000 -1.931852e+001  4.000000e+000
      vertex -3.673940e-015 -2.000000e+001  0.000000e+000
    endloop
  endfacet
  facet normal  1.305263e-001 -9.914449e-001  0.000000e+000
    outer loop
      vertex -3.673940e-015 -2.000000e+001  0.000000e+000
      vertex  5.176381e+000 -1.931852e+001  4.000000e+000
      vertex -3.673940e-015 -2.000000e+001  4.000000e+000
    endloop
  endfacet
  facet normal -1.305263e-001 -9.914449e-001  -0.000000e+000
    outer loop
      vertex -3.673940e-015 -2.000000e+001  0.000000e+000
      vertex -3.673940e-015 -2.000000e+001  4.000000e+000
      vertex -5.176381e+000 -1.931852e+001  0.000000e+000
    endloop
  endfacet
  facet normal -1.305263e-001 -9.914449e-001  0.000000e+000
    outer loop
      vertex -5.176381e+000 -1.931852e+001  0.000000e+000
      vertex -3.673940e-015 -2.000000e+001  4.000000e+000
      vertex -5.176381e+000 -1.931852e+001  4.000000e+000
    endloop
  endfacet
  facet normal -3.826832e-001 -9.238796e-001  -0.000000e+000
    outer loop
      vertex -5.176381e+000 -1.931852e+001  0.000000e+000
      vertex -5.176381e+000 -1.931852e+001  4.000000e+000
      vertex -1.000000e+001 -1.732051e+001  0.000000e+000
    endloop
  endfacet
  facet normal -3.826832e-001 -9.238796e-001  0.000000e+000
    outer loop
      vertex -1.000000e+001 -1.732051e+001  0.000000e+000
      vertex -5.176381e+000 -1.931852e+001  4.000000e+000
      vertex -1.000000e+001 -1.732051e+001  4.000000e+000
    endloop
  endfacet
  facet normal -6.087615e-001 -7.933533e-001  -0.000000e+000
    outer loop
      vertex -1.000000e+001 -1.732051e+001  0.000000e+000
      vertex -1.000000e+001 -1.732051e+001  4.000000e+000
      vertex -1.414214e+001 -1.414214e+001  0.000000e+000
    endloop
  endfacet
  facet normal -6.087615e-001 -7.933533e-001  0.000000e+000
    outer loop
      vertex -1.414214e+001 -1.414214e+001  0.000000e+000
      vertex -1.000000e+001 -1.732051e+001  4.000000e+000
      vertex -1.414214e+001 -1.414214e+001  4.000000e+000
    endloop
  endfacet
  facet normal -7.933533e-001 -6.087615e-001  -0.000000e+000
    outer loop
      vertex -1.414214e+001 -1.414214e+001  0.000000e+000
      vertex -1.414214e+001 -1.414214e+001  4.000000e+000
      vertex -1.732051e+001 -1.000000e+001  0.000000e+000
    endloop
  endfacet
  facet normal -7.933533e-001 -6.087615e-001  0.000000e+000
    outer loop
      vertex -1.732051e+001 -1.000000e+001  0.000000e+000
      vertex -1.414214e+001 -1.414214e+001  4.000000e+000
      vertex -1.732051e+001 -1.000000e+001  4.000000e+000
    endloop
  endfacet
  facet normal -9.238796e-001 -3.826832e-001  -0.000000e+000
    outer loop
      vertex -1.732051e+001 -1.000000e+001  0.000000e+000
      vertex -1.732051e+001 -1.000000e+001  4.000000e+000
      vertex -1.931852e+001 -5.176381e+000  0.000000e+000
    endloop
  endfacet
  facet normal -9.238796e-001 -3.826832e-001  0.000000e+000
    outer loop
      vertex -1.931852e+001 -5.176381e+000  0.000000e+000
      vertex -1.732051e+001 -1.000000e+001  4.000000e+000
      vertex -1.931852e+001 -5.176381e+000  4.000000e+000
    endloop
  endfacet
  facet normal -9.914449e-001 -1.305263e-001  -0.000000e+000
    outer loop
      vertex -1.931852e+001 -5.176381e+000  0.000000e+000
      vertex -1.931852e+001 -5.176381e+000  4.000000e+000
      vertex -2.000000e+001  2.449294e-015  0.000000e+000
    endloop
  endfacet
  facet normal -9.914449e-001 -1.305263e-001  0.000000e+000
    outer loop
      vertex -2.000000e+001  2.449294e-015  0.000000e+000
      vertex -1.931852e+001 -5.176381e+000  4.000000e+000
      vertex -2.000000e+001  2.449294e-015  4.000000e+000
    endloop
  endfacet
  facet normal -9.914449e-001  1.305263e-001  0.000000e+000
    outer loop
      vertex -2.000000e+001  2.449294e-015  0.000000e+000
      vertex -2.000000e+001  2.449294e-015  4.000000e+000
      vertex -1.931852e+001  5.176381e+000  0.000000e+000
    endloop
  endfacet
  facet normal -9.914449e-001  1.305263e-001  0.000000e+000
    outer loop
      vertex -1.931852e+001  5.176381e+000  0.000000e+000
      vertex -2.000000e+001  2.449294e-015  4.000000e+000
      vertex -1.931852e+001  5.176381e+000  4.000000e+000
    endloop
  endfacet
  facet normal -9.238796e-001  3.826832e-001  0.000000e+000
    outer loop
      vertex -1.931852e+001  5.176381e+000  0.000000e+000
      vertex -1.931852e+001  5.176381e+000  4.000000e+000
      vertex -1.732051e+001  1.000000e+001  0.000000e+000
    endloop
  endfacet
  facet normal -9.238796e-001  3.826832e-001  0.000000e+000
    outer loop
      vertex -1.732051e+001  1.000000e+001  0.000000e+000
      vertex -1.931852e+001  5.176381e+000  4.000000e+000
      vertex -1.732051e+001  1.000000e+001  4.000000e+000
    endloop
  endfacet
  facet normal -7.933533e-001  6.087615e-001  0.000000e+000
    outer loop
      vertex -1.732051e+001  1.000000e+001  0.000000e+000
      vertex -1.732051e+001  1.000000e+001  4.000000e+000
      vertex -1.414214e+001  1.414214e+001  0.000000e+000
    endloop
  endfacet
  facet normal -7.933533e-001  6.087615e-001  0.000000e+000
    outer loop
      vertex -1.414214e+001  1.414214e+001  0.000000e+000
      vertex -1.732051e+001  1.000000e+001  4.000000e+000
      vertex -1.414214e+001  1.414214e+001  4.000000e+000
    endloop
  endfacet
  facet normal -6.087615e-001  7.933533e-001  0.000000e+000
    outer loop
      vertex -1.414214e+001  1.414214e+001  0.000000e+000
      vertex -1.414214e+001  1.414214e+001  4.000000e+000
      vertex -1.000000e+001  1.732051e+001  0.000000e+000
    endloop
  endfacet
  facet normal -6.087615e-001  7.933533e-001  0.000000e+000
    outer loop
      vertex -1.000000e+001  1.732051e+001  0.000000e+000
      vertex -1.414214e+001  1.414214e+001  4.000000e+000
      vertex -1.000000e+001  1.732051e+001  4.000000e+000
    endloop
  endfacet
  facet normal -3.826832e-001  9.238796e-001  0.000000e+000
    outer loop
      vertex -1.000000e+001  1.732051e+001  0.000000e+000
      vertex -1.000000e+001  1.732051e+001  4.000000e+000
      vertex -5.176381e+000  1.931852e+001  0.000000e+000
    endloop
  endfacet
  facet normal -3.826832e-001  9.238796e-001  0.000000e+000
    outer loop
      vertex -5.176381e+000  1.931852e+001  0.000000e+000
      vertex -1.000000e+001  1.732051e+001  4.000000e+000
      vertex -5.176381e+000  1.931852e+001  4.000000e+000
    endloop
  endfacet
  facet normal -1.305263e-001  9.914449e-001  0.000000e+000
    outer loop
      vertex -5.176381e+000  1.931852e+001  0.000000e+000
      vertex -5.176381e+000  1.931852e+001  4.000000e+000
      vertex  1.224647e-015  2.000000e+001  0.000000e+000
    endloop
  endfacet
  facet normal -1.305263e-001  9.914449e-001  0.000000e+000
    outer loop
      vertex  1.224647e-015  2.000000e+001  0.000000e+000
      vertex -5.176381e+000  1.931852e+001  4.000000e+000
      vertex  1.224647e-015  2.000000e+001  4.000000e+000
    endloop
  endfacet
  facet normal  1.305263e-001  9.914449e-001  0.000000e+000
    outer loop
      vertex  1.224647e-015  2.000000e+001  0.000000e+000
      vertex  1.224647e-015  2.000000e+001  4.000000e+000
      vertex  5.176381e+000  1.931852e+001  0.000000e+000
    endloop
  endfacet
  facet normal  1.305263e-001  9.914449e-001  -0.000000e+000
    outer loop
      vertex  5.176381e+000  1.931852e+001  0.000000e+000
      vertex  1.224647e-015  2.000000e+001  4.000000e+000
      vertex  5.176381e+000  1.931852e+001  4.000000e+000
    endloop
  endfacet
  facet normal  3.826832e-001  9.238796e-001  0.000000e+000
    outer loop
      vertex  5.176381e+000  1.931852e+001  0.000000e+000
      vertex  5.176381e+000  1.931852e+001  4.000000e+000
      vertex  1.000000e+001  1.732051e+001  0.000000e+000
    endloop
  endfacet
  facet normal  3.826832e-001  9.238796e-001  -0.000000e+000
    outer loop
      vertex  1.000000e+001  1.732051e+001  0.000000e+000
      vertex  5.176381e+000  1.931852e+001  4.000000e+000
      vertex  1.000000e+001  1.732051e+001  4.000000e+000
    endloop
  endfacet
  facet normal  6.087615e-001  7.933533e-001  0.000000e+000
    outer loop
      vertex  1.000000e+001  1.732051e+001  0.000000e+000
      vertex  1.000000e+001  1.732051e+001  4.000000e+000
      vertex  1.414214e+001  1.414214e+001  0.000000e+000
    endloop
  endfacet
  facet normal  6.087615e-001  7.933533e-001  -0.000000e+000
    outer loop
      vertex  1.414214e+001  1.414214e+001  0.000000e+000
      vertex  1.000000e+001  1.732051e+001  4.000000e+000
      vertex  1.414214e+001  1.414214e+001  4.000000e+000
    endloop
  endfacet
  facet normal  7.933533e-001  6.087615e-001  0.000000e+000
    outer loop
      vertex  1.414214e+001  1.414214e+001  0.000000e+000
      vertex  1.414214e+001  1.414214e+001  4.000000e+000
      vertex  1.732051e+001  1.000000e+001  0.000000e+000
    endloop
  endfacet
  facet normal  7.933533e-001  6.087615e-001  -0.000000e+000
    outer loop
      vertex  1.732051e+001  1.000000e+001  0.000000e+000
      vertex  1.414214e+001  1.414214e+001  4.000000e+000
      vertex  1.732051e+001  1.000000e+001  4.000000e+000
    endloop
  endfacet
  facet normal  9.238796e-001  3.826832e-001  0.000000e+000
    outer loop
      vertex  1.732051e+001  1.000000e+001  0.000000e+000
      vertex  1.732051e+001  1.000000e+001  4.000000e+000
      vertex  1.931852e+001  5.176381e+000  0.000000e+000
    endloop
  endfacet
  facet normal  9.238796e-001  3.826832e-001  -0.000000e+000
    outer loop
      vertex  1.931852e+001  5.176381e+000  0.000000e+000
      vertex  1.732051e+001  1.000000e+001  4.000000e+000
      vertex  1.931852e+001  5.176381e+000  4.000000e+000
    endloop
  endfacet
  facet normal  9.914449e-001  1.305263e-001  0.000000e+000
    outer loop
      vertex  1.931852e+001  5.176381e+000  0.000000e+000
      vertex  1.931852e+001  5.176381e+000  4.000000e+000
      vertex  2.000000e+001  0.000000e+000  0.000000e+000
    endloop
  endfacet
  facet normal  9.914449e-001  1.305263e-001  -0.000000e+000
    outer loop
      vertex  2.000000e+001  0.000000e+000  0.000000e+000
      vertex  1.931852e+001  5.176381e+000  4.000000e+000
      vertex  2.000000e+001  0.000000e+000  4.000000e+000
    endloop
  endfacet
endsolid CATIA STL
