solid CATIA STL
  facet normal  0.000000e+000  0.000000e+000  9.999999e-001
    outer loop
      vertex -2.000000e+001  2.000000e+001  4.000000e+001
      vertex -2.000000e+001 -2.000000e+001  4.000000e+001
      vertex -7.391036e+000  3.061467e+000  4.000000e+001
    endloop
  endfacet
  facet normal  0.000000e+000  -0.000000e+000  9.999999e-001
    outer loop
      vertex -2.000000e+001  2.000000e+001  4.000000e+001
      vertex -7.391036e+000  3.061467e+000  4.000000e+001
      vertex -5.656854e+000  5.656854e+000  4.000000e+001
    endloop
  endfacet
  facet normal  0.000000e+000  -0.000000e+000  9.999999e-001
    outer loop
      vertex -2.000000e+001  2.000000e+001  4.000000e+001
      vertex -5.656854e+000  5.656854e+000  4.000000e+001
      vertex -3.061467e+000  7.391036e+000  4.000000e+001
    endloop
  endfacet
  facet normal  0.000000e+000  -0.000000e+000  1.000000e+000
    outer loop
      vertex -2.000000e+001  2.000000e+001  4.000000e+001
      vertex -3.061467e+000  7.391036e+000  4.000000e+001
      vertex  4.898587e-016  8.000000e+000  4.000000e+001
    endloop
  endfacet
  facet normal  0.000000e+000  -0.000000e+000  1.000000e+000
    outer loop
      vertex -2.000000e+001  2.000000e+001  4.000000e+001
      vertex  4.898587e-016  8.000000e+000  4.000000e+001
      vertex  2.000000e+001  2.000000e+001  4.000000e+001
    endloop
  endfacet
  facet normal  0.000000e+000  0.000000e+000  1.000000e+000
    outer loop
      vertex -2.000000e+001 -2.000000e+001  4.000000e+001
      vertex  2.000000e+001 -2.000000e+001  4.000000e+001
      vertex -1.469576e-015 -8.000000e+000  4.000000e+001
    endloop
  endfacet
  facet normal  0.000000e+000  0.000000e+000  1.000000e+000
    outer loop
      vertex -2.000000e+001 -2.000000e+001  4.000000e+001
      vertex -1.469576e-015 -8.000000e+000  4.000000e+001
      vertex -3.061467e+000 -7.391036e+000  4.000000e+001
    endloop
  endfacet
  facet normal  0.000000e+000  0.000000e+000  9.999999e-001
    outer loop
      vertex -2.000000e+001 -2.000000e+001  4.000000e+001
      vertex -3.061467e+000 -7.391036e+000  4.000000e+001
      vertex -5.656854e+000 -5.656854e+000  4.000000e+001
    endloop
  endfacet
  facet normal  0.000000e+000  0.000000e+000  9.999999e-001
    outer loop
      vertex -2.000000e+001 -2.000000e+001  4.000000e+001
      vertex -5.656854e+000 -5.656854e+000  4.000000e+001
      vertex -7.391036e+000 -3.061467e+000  4.000000e+001
    endloop
  endfacet
  facet normal  0.000000e+000  0.000000e+000  1.000000e+000
    outer loop
      vertex -2.000000e+001 -2.000000e+001  4.000000e+001
      vertex -7.391036e+000 -3.061467e+000  4.000000e+001
      vertex -8.000000e+000  9.797175e-016  4.000000e+001
    endloop
  endfacet
  facet normal  0.000000e+000  -0.000000e+000  9.999999e-001
    outer loop
      vertex -2.000000e+001 -2.000000e+001  4.000000e+001
      vertex -8.000000e+000  9.797175e-016  4.000000e+001
      vertex -7.391036e+000  3.061467e+000  4.000000e+001
    endloop
  endfacet
  facet normal  0.000000e+000  0.000000e+000  9.999999e-001
    outer loop
      vertex  2.000000e+001 -2.000000e+001  4.000000e+001
      vertex  7.391036e+000  3.061467e+000  4.000000e+001
      vertex  8.000000e+000  0.000000e+000  4.000000e+001
    endloop
  endfacet
  facet normal  0.000000e+000  0.000000e+000  1.000000e+000
    outer loop
      vertex  2.000000e+001 -2.000000e+001  4.000000e+001
      vertex  8.000000e+000  0.000000e+000  4.000000e+001
      vertex  7.391036e+000 -3.061467e+000  4.000000e+001
    endloop
  endfacet
  facet normal  0.000000e+000  0.000000e+000  9.999999e-001
    outer loop
      vertex  2.000000e+001 -2.000000e+001  4.000000e+001
      vertex  7.391036e+000 -3.061467e+000  4.000000e+001
      vertex  5.656854e+000 -5.656854e+000  4.000000e+001
    endloop
  endfacet
  facet normal  0.000000e+000  0.000000e+000  9.999999e-001
    outer loop
      vertex  2.000000e+001 -2.000000e+001  4.000000e+001
      vertex  5.656854e+000 -5.656854e+000  4.000000e+001
      vertex  3.061467e+000 -7.391036e+000  4.000000e+001
    endloop
  endfacet
  facet normal  0.000000e+000  0.000000e+000  1.000000e+000
    outer loop
      vertex  2.000000e+001 -2.000000e+001  4.000000e+001
      vertex  3.061467e+000 -7.391036e+000  4.000000e+001
      vertex -1.469576e-015 -8.000000e+000  4.000000e+001
    endloop
  endfacet
  facet normal  -0.000000e+000  0.000000e+000  1.000000e+000
    outer loop
      vertex  2.000000e+001  2.000000e+001  4.000000e+001
      vertex  4.898587e-016  8.000000e+000  4.000000e+001
      vertex  3.061467e+000  7.391036e+000  4.000000e+001
    endloop
  endfacet
  facet normal  -0.000000e+000  0.000000e+000  9.999999e-001
    outer loop
      vertex  2.000000e+001  2.000000e+001  4.000000e+001
      vertex  3.061467e+000  7.391036e+000  4.000000e+001
      vertex  5.656854e+000  5.656854e+000  4.000000e+001
    endloop
  endfacet
  facet normal  -0.000000e+000  0.000000e+000  9.999999e-001
    outer loop
      vertex  2.000000e+001  2.000000e+001  4.000000e+001
      vertex  5.656854e+000  5.656854e+000  4.000000e+001
      vertex  7.391036e+000  3.061467e+000  4.000000e+001
    endloop
  endfacet
  facet normal  -0.000000e+000  0.000000e+000  9.999999e-001
    outer loop
      vertex  2.000000e+001  2.000000e+001  4.000000e+001
      vertex  7.391036e+000  3.061467e+000  4.000000e+001
      vertex  2.000000e+001 -2.000000e+001  4.000000e+001
    endloop
  endfacet
  facet normal  -0.000000e+000  0.000000e+000 -1.000000e+000
    outer loop
      vertex -3.600000e+001  3.600000e+001 -1.600000e+001
      vertex  3.600000e+001  3.600000e+001 -1.600000e+001
      vertex -2.174677e-015  8.000000e+000 -1.600000e+001
    endloop
  endfacet
  facet normal  -0.000000e+000  0.000000e+000 -9.999999e-001
    outer loop
      vertex -3.600000e+001  3.600000e+001 -1.600000e+001
      vertex -2.174677e-015  8.000000e+000 -1.600000e+001
      vertex -3.061467e+000  7.391036e+000 -1.600000e+001
    endloop
  endfacet
  facet normal  -0.000000e+000  0.000000e+000 -1.000000e+000
    outer loop
      vertex -3.600000e+001  3.600000e+001 -1.600000e+001
      vertex -3.061467e+000  7.391036e+000 -1.600000e+001
      vertex -5.656854e+000  5.656854e+000 -1.600000e+001
    endloop
  endfacet
  facet normal  -0.000000e+000  0.000000e+000 -1.000000e+000
    outer loop
      vertex -3.600000e+001  3.600000e+001 -1.600000e+001
      vertex -5.656854e+000  5.656854e+000 -1.600000e+001
      vertex -3.600000e+001 -3.600000e+001 -1.600000e+001
    endloop
  endfacet
  facet normal  0.000000e+000  0.000000e+000 -1.000000e+000
    outer loop
      vertex -3.600000e+001 -3.600000e+001 -1.600000e+001
      vertex -5.656854e+000  5.656854e+000 -1.600000e+001
      vertex -7.391036e+000  3.061467e+000 -1.600000e+001
    endloop
  endfacet
  facet normal  0.000000e+000  0.000000e+000 -1.000000e+000
    outer loop
      vertex -3.600000e+001 -3.600000e+001 -1.600000e+001
      vertex -7.391036e+000  3.061467e+000 -1.600000e+001
      vertex -8.000000e+000 -6.125710e-015 -1.600000e+001
    endloop
  endfacet
  facet normal  0.000000e+000  -0.000000e+000 -9.999999e-001
    outer loop
      vertex -3.600000e+001 -3.600000e+001 -1.600000e+001
      vertex -8.000000e+000 -6.125710e-015 -1.600000e+001
      vertex -7.391036e+000 -3.061467e+000 -1.600000e+001
    endloop
  endfacet
  facet normal  0.000000e+000  -0.000000e+000 -1.000000e+000
    outer loop
      vertex -3.600000e+001 -3.600000e+001 -1.600000e+001
      vertex -7.391036e+000 -3.061467e+000 -1.600000e+001
      vertex -5.656854e+000 -5.656854e+000 -1.600000e+001
    endloop
  endfacet
  facet normal  0.000000e+000  -0.000000e+000 -1.000000e+000
    outer loop
      vertex -3.600000e+001 -3.600000e+001 -1.600000e+001
      vertex -5.656854e+000 -5.656854e+000 -1.600000e+001
      vertex -3.061467e+000 -7.391036e+000 -1.600000e+001
    endloop
  endfacet
  facet normal  0.000000e+000  -0.000000e+000 -1.000000e+000
    outer loop
      vertex -3.600000e+001 -3.600000e+001 -1.600000e+001
      vertex -3.061467e+000 -7.391036e+000 -1.600000e+001
      vertex -9.463182e-015 -8.000000e+000 -1.600000e+001
    endloop
  endfacet
  facet normal  0.000000e+000  -0.000000e+000 -1.000000e+000
    outer loop
      vertex -3.600000e+001 -3.600000e+001 -1.600000e+001
      vertex -9.463182e-015 -8.000000e+000 -1.600000e+001
      vertex  3.600000e+001 -3.600000e+001 -1.600000e+001
    endloop
  endfacet
  facet normal  0.000000e+000  0.000000e+000 -9.999999e-001
    outer loop
      vertex  3.600000e+001 -3.600000e+001 -1.600000e+001
      vertex -9.463182e-015 -8.000000e+000 -1.600000e+001
      vertex  3.061467e+000 -7.391036e+000 -1.600000e+001
    endloop
  endfacet
  facet normal  0.000000e+000  0.000000e+000 -1.000000e+000
    outer loop
      vertex  3.600000e+001 -3.600000e+001 -1.600000e+001
      vertex  3.061467e+000 -7.391036e+000 -1.600000e+001
      vertex  5.656854e+000 -5.656854e+000 -1.600000e+001
    endloop
  endfacet
  facet normal  0.000000e+000  0.000000e+000 -1.000000e+000
    outer loop
      vertex  3.600000e+001 -3.600000e+001 -1.600000e+001
      vertex  5.656854e+000 -5.656854e+000 -1.600000e+001
      vertex  7.391036e+000 -3.061467e+000 -1.600000e+001
    endloop
  endfacet
  facet normal  0.000000e+000  0.000000e+000 -1.000000e+000
    outer loop
      vertex  3.600000e+001 -3.600000e+001 -1.600000e+001
      vertex  7.391036e+000 -3.061467e+000 -1.600000e+001
      vertex  8.000000e+000  0.000000e+000 -1.600000e+001
    endloop
  endfacet
  facet normal  0.000000e+000  0.000000e+000 -1.000000e+000
    outer loop
      vertex  3.600000e+001 -3.600000e+001 -1.600000e+001
      vertex  8.000000e+000  0.000000e+000 -1.600000e+001
      vertex  7.391036e+000  3.061467e+000 -1.600000e+001
    endloop
  endfacet
  facet normal  0.000000e+000  0.000000e+000 -1.000000e+000
    outer loop
      vertex  3.600000e+001 -3.600000e+001 -1.600000e+001
      vertex  7.391036e+000  3.061467e+000 -1.600000e+001
      vertex  5.656854e+000  5.656854e+000 -1.600000e+001
    endloop
  endfacet
  facet normal  0.000000e+000  0.000000e+000 -1.000000e+000
    outer loop
      vertex  3.600000e+001  3.600000e+001 -1.600000e+001
      vertex  3.600000e+001 -3.600000e+001 -1.600000e+001
      vertex  5.656854e+000  5.656854e+000 -1.600000e+001
    endloop
  endfacet
  facet normal  0.000000e+000  0.000000e+000 -1.000000e+000
    outer loop
      vertex  3.600000e+001  3.600000e+001 -1.600000e+001
      vertex  5.656854e+000  5.656854e+000 -1.600000e+001
      vertex  3.061467e+000  7.391036e+000 -1.600000e+001
    endloop
  endfacet
  facet normal  0.000000e+000  0.000000e+000 -1.000000e+000
    outer loop
      vertex  3.600000e+001  3.600000e+001 -1.600000e+001
      vertex  3.061467e+000  7.391036e+000 -1.600000e+001
      vertex -2.174677e-015  8.000000e+000 -1.600000e+001
    endloop
  endfacet
  facet normal  1.950904e-001 -9.807853e-001  0.000000e+000
    outer loop
      vertex -2.174677e-015  8.000000e+000 -1.600000e+001
      vertex -3.061467e+000  7.391036e+000  4.000000e+001
      vertex -3.061467e+000  7.391036e+000 -1.600000e+001
    endloop
  endfacet
  facet normal  5.555702e-001 -8.314697e-001  0.000000e+000
    outer loop
      vertex -3.061467e+000  7.391036e+000 -1.600000e+001
      vertex -3.061467e+000  7.391036e+000  4.000000e+001
      vertex -5.656854e+000  5.656854e+000  4.000000e+001
    endloop
  endfacet
  facet normal  5.555702e-001 -8.314697e-001  0.000000e+000
    outer loop
      vertex -3.061467e+000  7.391036e+000 -1.600000e+001
      vertex -5.656854e+000  5.656854e+000  4.000000e+001
      vertex -5.656854e+000  5.656854e+000 -1.600000e+001
    endloop
  endfacet
  facet normal  8.314697e-001 -5.555702e-001  0.000000e+000
    outer loop
      vertex -5.656854e+000  5.656854e+000 -1.600000e+001
      vertex -5.656854e+000  5.656854e+000  4.000000e+001
      vertex -7.391036e+000  3.061467e+000  4.000000e+001
    endloop
  endfacet
  facet normal  8.314697e-001 -5.555702e-001  0.000000e+000
    outer loop
      vertex -5.656854e+000  5.656854e+000 -1.600000e+001
      vertex -7.391036e+000  3.061467e+000  4.000000e+001
      vertex -7.391036e+000  3.061467e+000 -1.600000e+001
    endloop
  endfacet
  facet normal  9.807853e-001 -1.950904e-001  0.000000e+000
    outer loop
      vertex -7.391036e+000  3.061467e+000 -1.600000e+001
      vertex -7.391036e+000  3.061467e+000  4.000000e+001
      vertex -8.000000e+000  9.797175e-016  4.000000e+001
    endloop
  endfacet
  facet normal  9.807853e-001 -1.950904e-001  2.475358e-017
    outer loop
      vertex -7.391036e+000  3.061467e+000 -1.600000e+001
      vertex -8.000000e+000  9.797175e-016  4.000000e+001
      vertex -8.000000e+000 -6.125710e-015 -1.600000e+001
    endloop
  endfacet
  facet normal  1.950904e-001 -9.807853e-001 -9.282594e-018
    outer loop
      vertex -3.061467e+000  7.391036e+000  4.000000e+001
      vertex -2.174677e-015  8.000000e+000 -1.600000e+001
      vertex  4.898587e-016  8.000000e+000  4.000000e+001
    endloop
  endfacet
  facet normal -1.950904e-001 -9.807853e-001  9.282594e-018
    outer loop
      vertex  4.898587e-016  8.000000e+000  4.000000e+001
      vertex -2.174677e-015  8.000000e+000 -1.600000e+001
      vertex  3.061467e+000  7.391036e+000 -1.600000e+001
    endloop
  endfacet
  facet normal -1.950904e-001 -9.807853e-001  0.000000e+000
    outer loop
      vertex  4.898587e-016  8.000000e+000  4.000000e+001
      vertex  3.061467e+000  7.391036e+000 -1.600000e+001
      vertex  3.061467e+000  7.391036e+000  4.000000e+001
    endloop
  endfacet
  facet normal -5.555702e-001 -8.314697e-001  -0.000000e+000
    outer loop
      vertex  3.061467e+000  7.391036e+000  4.000000e+001
      vertex  3.061467e+000  7.391036e+000 -1.600000e+001
      vertex  5.656854e+000  5.656854e+000 -1.600000e+001
    endloop
  endfacet
  facet normal -5.555702e-001 -8.314697e-001  0.000000e+000
    outer loop
      vertex  3.061467e+000  7.391036e+000  4.000000e+001
      vertex  5.656854e+000  5.656854e+000 -1.600000e+001
      vertex  5.656854e+000  5.656854e+000  4.000000e+001
    endloop
  endfacet
  facet normal -8.314697e-001 -5.555702e-001  -0.000000e+000
    outer loop
      vertex  5.656854e+000  5.656854e+000  4.000000e+001
      vertex  5.656854e+000  5.656854e+000 -1.600000e+001
      vertex  7.391036e+000  3.061467e+000 -1.600000e+001
    endloop
  endfacet
  facet normal -8.314697e-001 -5.555702e-001  0.000000e+000
    outer loop
      vertex  5.656854e+000  5.656854e+000  4.000000e+001
      vertex  7.391036e+000  3.061467e+000 -1.600000e+001
      vertex  7.391036e+000  3.061467e+000  4.000000e+001
    endloop
  endfacet
  facet normal -9.807853e-001 -1.950904e-001  -0.000000e+000
    outer loop
      vertex  7.391036e+000  3.061467e+000  4.000000e+001
      vertex  7.391036e+000  3.061467e+000 -1.600000e+001
      vertex  8.000000e+000  0.000000e+000 -1.600000e+001
    endloop
  endfacet
  facet normal -9.807853e-001 -1.950904e-001  0.000000e+000
    outer loop
      vertex  7.391036e+000  3.061467e+000  4.000000e+001
      vertex  8.000000e+000  0.000000e+000 -1.600000e+001
      vertex  8.000000e+000  0.000000e+000  4.000000e+001
    endloop
  endfacet
  facet normal -1.950904e-001  9.807853e-001  0.000000e+000
    outer loop
      vertex -9.463182e-015 -8.000000e+000 -1.600000e+001
      vertex  3.061467e+000 -7.391036e+000  4.000000e+001
      vertex  3.061467e+000 -7.391036e+000 -1.600000e+001
    endloop
  endfacet
  facet normal -5.555702e-001  8.314697e-001  0.000000e+000
    outer loop
      vertex  3.061467e+000 -7.391036e+000 -1.600000e+001
      vertex  3.061467e+000 -7.391036e+000  4.000000e+001
      vertex  5.656854e+000 -5.656854e+000  4.000000e+001
    endloop
  endfacet
  facet normal -5.555702e-001  8.314697e-001  0.000000e+000
    outer loop
      vertex  3.061467e+000 -7.391036e+000 -1.600000e+001
      vertex  5.656854e+000 -5.656854e+000  4.000000e+001
      vertex  5.656854e+000 -5.656854e+000 -1.600000e+001
    endloop
  endfacet
  facet normal -8.314697e-001  5.555702e-001  0.000000e+000
    outer loop
      vertex  5.656854e+000 -5.656854e+000 -1.600000e+001
      vertex  5.656854e+000 -5.656854e+000  4.000000e+001
      vertex  7.391036e+000 -3.061467e+000  4.000000e+001
    endloop
  endfacet
  facet normal -8.314697e-001  5.555702e-001  0.000000e+000
    outer loop
      vertex  5.656854e+000 -5.656854e+000 -1.600000e+001
      vertex  7.391036e+000 -3.061467e+000  4.000000e+001
      vertex  7.391036e+000 -3.061467e+000 -1.600000e+001
    endloop
  endfacet
  facet normal -9.807853e-001  1.950904e-001  0.000000e+000
    outer loop
      vertex  7.391036e+000 -3.061467e+000 -1.600000e+001
      vertex  7.391036e+000 -3.061467e+000  4.000000e+001
      vertex  8.000000e+000  0.000000e+000  4.000000e+001
    endloop
  endfacet
  facet normal -9.807853e-001  1.950904e-001  0.000000e+000
    outer loop
      vertex  7.391036e+000 -3.061467e+000 -1.600000e+001
      vertex  8.000000e+000  0.000000e+000  4.000000e+001
      vertex  8.000000e+000  0.000000e+000 -1.600000e+001
    endloop
  endfacet
  facet normal -1.950904e-001  9.807853e-001  2.784778e-017
    outer loop
      vertex  3.061467e+000 -7.391036e+000  4.000000e+001
      vertex -9.463182e-015 -8.000000e+000 -1.600000e+001
      vertex -1.469576e-015 -8.000000e+000  4.000000e+001
    endloop
  endfacet
  facet normal  1.950904e-001  9.807853e-001 -2.784778e-017
    outer loop
      vertex -1.469576e-015 -8.000000e+000  4.000000e+001
      vertex -9.463182e-015 -8.000000e+000 -1.600000e+001
      vertex -3.061467e+000 -7.391036e+000 -1.600000e+001
    endloop
  endfacet
  facet normal  1.950904e-001  9.807853e-001  -0.000000e+000
    outer loop
      vertex -1.469576e-015 -8.000000e+000  4.000000e+001
      vertex -3.061467e+000 -7.391036e+000 -1.600000e+001
      vertex -3.061467e+000 -7.391036e+000  4.000000e+001
    endloop
  endfacet
  facet normal  5.555702e-001  8.314697e-001  0.000000e+000
    outer loop
      vertex -3.061467e+000 -7.391036e+000  4.000000e+001
      vertex -3.061467e+000 -7.391036e+000 -1.600000e+001
      vertex -5.656854e+000 -5.656854e+000 -1.600000e+001
    endloop
  endfacet
  facet normal  5.555702e-001  8.314697e-001  -0.000000e+000
    outer loop
      vertex -3.061467e+000 -7.391036e+000  4.000000e+001
      vertex -5.656854e+000 -5.656854e+000 -1.600000e+001
      vertex -5.656854e+000 -5.656854e+000  4.000000e+001
    endloop
  endfacet
  facet normal  8.314697e-001  5.555702e-001  0.000000e+000
    outer loop
      vertex -5.656854e+000 -5.656854e+000  4.000000e+001
      vertex -5.656854e+000 -5.656854e+000 -1.600000e+001
      vertex -7.391036e+000 -3.061467e+000 -1.600000e+001
    endloop
  endfacet
  facet normal  8.314697e-001  5.555702e-001  -0.000000e+000
    outer loop
      vertex -5.656854e+000 -5.656854e+000  4.000000e+001
      vertex -7.391036e+000 -3.061467e+000 -1.600000e+001
      vertex -7.391036e+000 -3.061467e+000  4.000000e+001
    endloop
  endfacet
  facet normal  9.807853e-001  1.950904e-001  0.000000e+000
    outer loop
      vertex -7.391036e+000 -3.061467e+000  4.000000e+001
      vertex -7.391036e+000 -3.061467e+000 -1.600000e+001
      vertex -8.000000e+000 -6.125710e-015 -1.600000e+001
    endloop
  endfacet
  facet normal  9.807853e-001  1.950904e-001 -2.475358e-017
    outer loop
      vertex -7.391036e+000 -3.061467e+000  4.000000e+001
      vertex -8.000000e+000 -6.125710e-015 -1.600000e+001
      vertex -8.000000e+000  9.797175e-016  4.000000e+001
    endloop
  endfacet
  facet normal  0.000000e+000  0.000000e+000  1.000000e+000
    outer loop
      vertex  3.600000e+001 -3.600000e+001  0.000000e+000
      vertex  2.000000e+001 -2.000000e+001  0.000000e+000
      vertex -3.600000e+001 -3.600000e+001  0.000000e+000
    endloop
  endfacet
  facet normal  0.000000e+000  0.000000e+000  1.000000e+000
    outer loop
      vertex -3.600000e+001 -3.600000e+001  0.000000e+000
      vertex  2.000000e+001 -2.000000e+001  0.000000e+000
      vertex -2.000000e+001 -2.000000e+001  0.000000e+000
    endloop
  endfacet
  facet normal  0.000000e+000  0.000000e+000  1.000000e+000
    outer loop
      vertex -3.600000e+001 -3.600000e+001  0.000000e+000
      vertex -2.000000e+001 -2.000000e+001  0.000000e+000
      vertex -3.600000e+001  3.600000e+001  0.000000e+000
    endloop
  endfacet
  facet normal  0.000000e+000  0.000000e+000  1.000000e+000
    outer loop
      vertex -3.600000e+001  3.600000e+001  0.000000e+000
      vertex -2.000000e+001 -2.000000e+001  0.000000e+000
      vertex -2.000000e+001  2.000000e+001  0.000000e+000
    endloop
  endfacet
  facet normal  0.000000e+000  -0.000000e+000  1.000000e+000
    outer loop
      vertex -3.600000e+001  3.600000e+001  0.000000e+000
      vertex -2.000000e+001  2.000000e+001  0.000000e+000
      vertex  3.600000e+001  3.600000e+001  0.000000e+000
    endloop
  endfacet
  facet normal  0.000000e+000  0.000000e+000  1.000000e+000
    outer loop
      vertex  3.600000e+001  3.600000e+001  0.000000e+000
      vertex -2.000000e+001  2.000000e+001  0.000000e+000
      vertex  2.000000e+001  2.000000e+001  0.000000e+000
    endloop
  endfacet
  facet normal  -0.000000e+000  0.000000e+000  1.000000e+000
    outer loop
      vertex  3.600000e+001  3.600000e+001  0.000000e+000
      vertex  2.000000e+001  2.000000e+001  0.000000e+000
      vertex  3.600000e+001 -3.600000e+001  0.000000e+000
    endloop
  endfacet
  facet normal  0.000000e+000  0.000000e+000  1.000000e+000
    outer loop
      vertex  3.600000e+001 -3.600000e+001  0.000000e+000
      vertex  2.000000e+001  2.000000e+001  0.000000e+000
      vertex  2.000000e+001 -2.000000e+001  0.000000e+000
    endloop
  endfacet
  facet normal  1.000000e+000  0.000000e+000  0.000000e+000
    outer loop
      vertex  2.000000e+001  2.000000e+001  0.000000e+000
      vertex  2.000000e+001  2.000000e+001  4.000000e+001
      vertex  2.000000e+001 -2.000000e+001  0.000000e+000
    endloop
  endfacet
  facet normal  1.000000e+000  0.000000e+000  0.000000e+000
    outer loop
      vertex  2.000000e+001 -2.000000e+001  0.000000e+000
      vertex  2.000000e+001  2.000000e+001  4.000000e+001
      vertex  2.000000e+001 -2.000000e+001  4.000000e+001
    endloop
  endfacet
  facet normal  0.000000e+000 -1.000000e+000  -0.000000e+000
    outer loop
      vertex  2.000000e+001 -2.000000e+001  0.000000e+000
      vertex  2.000000e+001 -2.000000e+001  4.000000e+001
      vertex -2.000000e+001 -2.000000e+001  0.000000e+000
    endloop
  endfacet
  facet normal  0.000000e+000 -1.000000e+000  0.000000e+000
    outer loop
      vertex -2.000000e+001 -2.000000e+001  0.000000e+000
      vertex  2.000000e+001 -2.000000e+001  4.000000e+001
      vertex -2.000000e+001 -2.000000e+001  4.000000e+001
    endloop
  endfacet
  facet normal -1.000000e+000  0.000000e+000  0.000000e+000
    outer loop
      vertex -2.000000e+001 -2.000000e+001  0.000000e+000
      vertex -2.000000e+001 -2.000000e+001  4.000000e+001
      vertex -2.000000e+001  2.000000e+001  0.000000e+000
    endloop
  endfacet
  facet normal -1.000000e+000  0.000000e+000  0.000000e+000
    outer loop
      vertex -2.000000e+001  2.000000e+001  0.000000e+000
      vertex -2.000000e+001 -2.000000e+001  4.000000e+001
      vertex -2.000000e+001  2.000000e+001  4.000000e+001
    endloop
  endfacet
  facet normal  0.000000e+000  1.000000e+000  0.000000e+000
    outer loop
      vertex -2.000000e+001  2.000000e+001  0.000000e+000
      vertex -2.000000e+001  2.000000e+001  4.000000e+001
      vertex  2.000000e+001  2.000000e+001  0.000000e+000
    endloop
  endfacet
  facet normal  0.000000e+000  1.000000e+000  -0.000000e+000
    outer loop
      vertex  2.000000e+001  2.000000e+001  0.000000e+000
      vertex -2.000000e+001  2.000000e+001  4.000000e+001
      vertex  2.000000e+001  2.000000e+001  4.000000e+001
    endloop
  endfacet
  facet normal  1.000000e+000  0.000000e+000  0.000000e+000
    outer loop
      vertex  3.600000e+001  3.600000e+001 -1.600000e+001
      vertex  3.600000e+001  3.600000e+001  0.000000e+000
      vertex  3.600000e+001 -3.600000e+001 -1.600000e+001
    endloop
  endfacet
  facet normal  1.000000e+000  0.000000e+000  0.000000e+000
    outer loop
      vertex  3.600000e+001 -3.600000e+001 -1.600000e+001
      vertex  3.600000e+001  3.600000e+001  0.000000e+000
      vertex  3.600000e+001 -3.600000e+001  0.000000e+000
    endloop
  endfacet
  facet normal  0.000000e+000 -1.000000e+000  -0.000000e+000
    outer loop
      vertex  3.600000e+001 -3.600000e+001 -1.600000e+001
      vertex  3.600000e+001 -3.600000e+001  0.000000e+000
      vertex -3.600000e+001 -3.600000e+001 -1.600000e+001
    endloop
  endfacet
  facet normal  0.000000e+000 -1.000000e+000  0.000000e+000
    outer loop
      vertex -3.600000e+001 -3.600000e+001 -1.600000e+001
      vertex  3.600000e+001 -3.600000e+001  0.000000e+000
      vertex -3.600000e+001 -3.600000e+001  0.000000e+000
    endloop
  endfacet
  facet normal -1.000000e+000  0.000000e+000  0.000000e+000
    outer loop
      vertex -3.600000e+001 -3.600000e+001 -1.600000e+001
      vertex -3.600000e+001 -3.600000e+001  0.000000e+000
      vertex -3.600000e+001  3.600000e+001 -1.600000e+001
    endloop
  endfacet
  facet normal -1.000000e+000  0.000000e+000  0.000000e+000
    outer loop
      vertex -3.600000e+001  3.600000e+001 -1.600000e+001
      vertex -3.600000e+001 -3.600000e+001  0.000000e+000
      vertex -3.600000e+001  3.600000e+001  0.000000e+000
    endloop
  endfacet
  facet normal  0.000000e+000  1.000000e+000  0.000000e+000
    outer loop
      vertex -3.600000e+001  3.600000e+001 -1.600000e+001
      vertex -3.600000e+001  3.600000e+001  0.000000e+000
      vertex  3.600000e+001  3.600000e+001 -1.600000e+001
    endloop
  endfacet
  facet normal  0.000000e+000  1.000000e+000  -0.000000e+000
    outer loop
      vertex  3.600000e+001  3.600000e+001 -1.600000e+001
      vertex -3.600000e+001  3.600000e+001  0.000000e+000
      vertex  3.600000e+001  3.600000e+001  0.000000e+000
    endloop
  endfacet
endsolid CATIA STL
