solid CATIA STL
  facet normal  -0.000000e+000  0.000000e+000  1.000000e+000
    outer loop
      vertex -9.238795e+000 -3.826834e+000  0.000000e+000
      vertex -2.924784e+001 -6.675628e+000  0.000000e+000
      vertex -7.071068e+000 -7.071068e+000  0.000000e+000
    endloop
  endfacet
  facet normal  0.000000e+000  0.000000e+000  1.000000e+000
    outer loop
      vertex  9.238795e+000 -3.826834e+000  0.000000e+000
      vertex  7.071068e+000 -7.071068e+000  0.000000e+000
      vertex  2.924784e+001 -6.675628e+000  0.000000e+000
    endloop
  endfacet
  facet normal  -0.000000e+000  -0.000000e+000  1.000000e+000
    outer loop
      vertex  6.123234e-016  1.000000e+001  0.000000e+000
      vertex  3.826834e+000  9.238795e+000  0.000000e+000
      vertex  2.924784e+001  6.675628e+000  0.000000e+000
    endloop
  endfacet
  facet normal  0.000000e+000  0.000000e+000  1.000000e+000
    outer loop
      vertex  6.123234e-016  1.000000e+001  0.000000e+000
      vertex  2.924784e+001  6.675628e+000  0.000000e+000
      vertex  2.702907e+001  1.301651e+001  0.000000e+000
    endloop
  endfacet
  facet normal  0.000000e+000  0.000000e+000  1.000000e+000
    outer loop
      vertex  6.123234e-016  1.000000e+001  0.000000e+000
      vertex  2.702907e+001  1.301651e+001  0.000000e+000
      vertex  2.345494e+001  1.870469e+001  0.000000e+000
    endloop
  endfacet
  facet normal  0.000000e+000  0.000000e+000  1.000000e+000
    outer loop
      vertex  6.123234e-016  1.000000e+001  0.000000e+000
      vertex  2.345494e+001  1.870469e+001  0.000000e+000
      vertex  1.870469e+001  2.345494e+001  0.000000e+000
    endloop
  endfacet
  facet normal  0.000000e+000  0.000000e+000  1.000000e+000
    outer loop
      vertex  6.123234e-016  1.000000e+001  0.000000e+000
      vertex  1.870469e+001  2.345494e+001  0.000000e+000
      vertex  1.301651e+001  2.702907e+001  0.000000e+000
    endloop
  endfacet
  facet normal  0.000000e+000  0.000000e+000  1.000000e+000
    outer loop
      vertex  6.123234e-016  1.000000e+001  0.000000e+000
      vertex  1.301651e+001  2.702907e+001  0.000000e+000
      vertex  6.675628e+000  2.924784e+001  0.000000e+000
    endloop
  endfacet
  facet normal  0.000000e+000  0.000000e+000  1.000000e+000
    outer loop
      vertex  6.123234e-016  1.000000e+001  0.000000e+000
      vertex  6.675628e+000  2.924784e+001  0.000000e+000
      vertex  1.836970e-015  3.000000e+001  0.000000e+000
    endloop
  endfacet
  facet normal  0.000000e+000  0.000000e+000  1.000000e+000
    outer loop
      vertex  6.123234e-016  1.000000e+001  0.000000e+000
      vertex  1.836970e-015  3.000000e+001  0.000000e+000
      vertex -6.675628e+000  2.924784e+001  0.000000e+000
    endloop
  endfacet
  facet normal  0.000000e+000  0.000000e+000  1.000000e+000
    outer loop
      vertex  6.123234e-016  1.000000e+001  0.000000e+000
      vertex -6.675628e+000  2.924784e+001  0.000000e+000
      vertex -1.301651e+001  2.702907e+001  0.000000e+000
    endloop
  endfacet
  facet normal  0.000000e+000  0.000000e+000  1.000000e+000
    outer loop
      vertex  6.123234e-016  1.000000e+001  0.000000e+000
      vertex -1.301651e+001  2.702907e+001  0.000000e+000
      vertex -1.870469e+001  2.345494e+001  0.000000e+000
    endloop
  endfacet
  facet normal  0.000000e+000  0.000000e+000  1.000000e+000
    outer loop
      vertex  6.123234e-016  1.000000e+001  0.000000e+000
      vertex -1.870469e+001  2.345494e+001  0.000000e+000
      vertex -2.345494e+001  1.870469e+001  0.000000e+000
    endloop
  endfacet
  facet normal  0.000000e+000  0.000000e+000  1.000000e+000
    outer loop
      vertex  6.123234e-016  1.000000e+001  0.000000e+000
      vertex -2.345494e+001  1.870469e+001  0.000000e+000
      vertex -2.702907e+001  1.301651e+001  0.000000e+000
    endloop
  endfacet
  facet normal  0.000000e+000  0.000000e+000  1.000000e+000
    outer loop
      vertex -2.924784e+001  6.675628e+000  0.000000e+000
      vertex -3.000000e+001  3.673940e-015  0.000000e+000
      vertex -9.238795e+000  3.826834e+000  0.000000e+000
    endloop
  endfacet
  facet normal  0.000000e+000  -0.000000e+000  1.000000e+000
    outer loop
      vertex -2.924784e+001  6.675628e+000  0.000000e+000
      vertex -9.238795e+000  3.826834e+000  0.000000e+000
      vertex -7.071068e+000  7.071068e+000  0.000000e+000
    endloop
  endfacet
  facet normal  0.000000e+000  -0.000000e+000  1.000000e+000
    outer loop
      vertex -2.924784e+001  6.675628e+000  0.000000e+000
      vertex -7.071068e+000  7.071068e+000  0.000000e+000
      vertex -3.826834e+000  9.238795e+000  0.000000e+000
    endloop
  endfacet
  facet normal  0.000000e+000  -0.000000e+000  1.000000e+000
    outer loop
      vertex -2.924784e+001  6.675628e+000  0.000000e+000
      vertex -3.826834e+000  9.238795e+000  0.000000e+000
      vertex  6.123234e-016  1.000000e+001  0.000000e+000
    endloop
  endfacet
  facet normal  0.000000e+000  0.000000e+000  1.000000e+000
    outer loop
      vertex -2.924784e+001  6.675628e+000  0.000000e+000
      vertex  6.123234e-016  1.000000e+001  0.000000e+000
      vertex -2.702907e+001  1.301651e+001  0.000000e+000
    endloop
  endfacet
  facet normal  0.000000e+000  -0.000000e+000  1.000000e+000
    outer loop
      vertex -2.702907e+001 -1.301651e+001  0.000000e+000
      vertex -5.510911e-015 -3.000000e+001  0.000000e+000
      vertex -1.836970e-015 -1.000000e+001  0.000000e+000
    endloop
  endfacet
  facet normal  0.000000e+000  0.000000e+000  1.000000e+000
    outer loop
      vertex -2.702907e+001 -1.301651e+001  0.000000e+000
      vertex -1.836970e-015 -1.000000e+001  0.000000e+000
      vertex -3.826834e+000 -9.238795e+000  0.000000e+000
    endloop
  endfacet
  facet normal  0.000000e+000  0.000000e+000  1.000000e+000
    outer loop
      vertex -2.702907e+001 -1.301651e+001  0.000000e+000
      vertex -3.826834e+000 -9.238795e+000  0.000000e+000
      vertex -7.071068e+000 -7.071068e+000  0.000000e+000
    endloop
  endfacet
  facet normal  0.000000e+000  0.000000e+000  1.000000e+000
    outer loop
      vertex -2.702907e+001 -1.301651e+001  0.000000e+000
      vertex -7.071068e+000 -7.071068e+000  0.000000e+000
      vertex -2.924784e+001 -6.675628e+000  0.000000e+000
    endloop
  endfacet
  facet normal  0.000000e+000  0.000000e+000  1.000000e+000
    outer loop
      vertex -5.510911e-015 -3.000000e+001  0.000000e+000
      vertex -2.702907e+001 -1.301651e+001  0.000000e+000
      vertex -2.345494e+001 -1.870469e+001  0.000000e+000
    endloop
  endfacet
  facet normal  0.000000e+000  0.000000e+000  1.000000e+000
    outer loop
      vertex -5.510911e-015 -3.000000e+001  0.000000e+000
      vertex -2.345494e+001 -1.870469e+001  0.000000e+000
      vertex -1.870469e+001 -2.345494e+001  0.000000e+000
    endloop
  endfacet
  facet normal  0.000000e+000  0.000000e+000  9.999999e-001
    outer loop
      vertex -5.510911e-015 -3.000000e+001  0.000000e+000
      vertex -1.870469e+001 -2.345494e+001  0.000000e+000
      vertex -1.301651e+001 -2.702907e+001  0.000000e+000
    endloop
  endfacet
  facet normal  0.000000e+000  0.000000e+000  1.000000e+000
    outer loop
      vertex -5.510911e-015 -3.000000e+001  0.000000e+000
      vertex -1.301651e+001 -2.702907e+001  0.000000e+000
      vertex -6.675628e+000 -2.924784e+001  0.000000e+000
    endloop
  endfacet
  facet normal  0.000000e+000  -0.000000e+000  1.000000e+000
    outer loop
      vertex -5.510911e-015 -3.000000e+001  0.000000e+000
      vertex  6.675628e+000 -2.924784e+001  0.000000e+000
      vertex  1.301651e+001 -2.702907e+001  0.000000e+000
    endloop
  endfacet
  facet normal  0.000000e+000  -0.000000e+000  9.999999e-001
    outer loop
      vertex -5.510911e-015 -3.000000e+001  0.000000e+000
      vertex  1.301651e+001 -2.702907e+001  0.000000e+000
      vertex  1.870469e+001 -2.345494e+001  0.000000e+000
    endloop
  endfacet
  facet normal  0.000000e+000  -0.000000e+000  1.000000e+000
    outer loop
      vertex -5.510911e-015 -3.000000e+001  0.000000e+000
      vertex  1.870469e+001 -2.345494e+001  0.000000e+000
      vertex  2.345494e+001 -1.870469e+001  0.000000e+000
    endloop
  endfacet
  facet normal  0.000000e+000  -0.000000e+000  1.000000e+000
    outer loop
      vertex -5.510911e-015 -3.000000e+001  0.000000e+000
      vertex  2.345494e+001 -1.870469e+001  0.000000e+000
      vertex  2.702907e+001 -1.301651e+001  0.000000e+000
    endloop
  endfacet
  facet normal  0.000000e+000  0.000000e+000  1.000000e+000
    outer loop
      vertex -5.510911e-015 -3.000000e+001  0.000000e+000
      vertex  2.702907e+001 -1.301651e+001  0.000000e+000
      vertex -1.836970e-015 -1.000000e+001  0.000000e+000
    endloop
  endfacet
  facet normal  0.000000e+000  0.000000e+000  1.000000e+000
    outer loop
      vertex -2.924784e+001 -6.675628e+000  0.000000e+000
      vertex -9.238795e+000 -3.826834e+000  0.000000e+000
      vertex -3.000000e+001  3.673940e-015  0.000000e+000
    endloop
  endfacet
  facet normal  0.000000e+000  0.000000e+000  1.000000e+000
    outer loop
      vertex -3.000000e+001  3.673940e-015  0.000000e+000
      vertex -9.238795e+000 -3.826834e+000  0.000000e+000
      vertex -1.000000e+001  1.224647e-015  0.000000e+000
    endloop
  endfacet
  facet normal  0.000000e+000  -0.000000e+000  1.000000e+000
    outer loop
      vertex -3.000000e+001  3.673940e-015  0.000000e+000
      vertex -1.000000e+001  1.224647e-015  0.000000e+000
      vertex -9.238795e+000  3.826834e+000  0.000000e+000
    endloop
  endfacet
  facet normal  0.000000e+000  0.000000e+000  1.000000e+000
    outer loop
      vertex  9.238795e+000  3.826834e+000  0.000000e+000
      vertex  3.000000e+001  0.000000e+000  0.000000e+000
      vertex  7.071068e+000  7.071068e+000  0.000000e+000
    endloop
  endfacet
  facet normal  0.000000e+000  0.000000e+000  1.000000e+000
    outer loop
      vertex  7.071068e+000  7.071068e+000  0.000000e+000
      vertex  3.000000e+001  0.000000e+000  0.000000e+000
      vertex  2.924784e+001  6.675628e+000  0.000000e+000
    endloop
  endfacet
  facet normal  0.000000e+000  0.000000e+000  1.000000e+000
    outer loop
      vertex  7.071068e+000  7.071068e+000  0.000000e+000
      vertex  2.924784e+001  6.675628e+000  0.000000e+000
      vertex  3.826834e+000  9.238795e+000  0.000000e+000
    endloop
  endfacet
  facet normal  0.000000e+000  0.000000e+000  1.000000e+000
    outer loop
      vertex  9.238795e+000 -3.826834e+000  0.000000e+000
      vertex  2.924784e+001 -6.675628e+000  0.000000e+000
      vertex  1.000000e+001  0.000000e+000  0.000000e+000
    endloop
  endfacet
  facet normal  -0.000000e+000  0.000000e+000  1.000000e+000
    outer loop
      vertex  1.000000e+001  0.000000e+000  0.000000e+000
      vertex  2.924784e+001 -6.675628e+000  0.000000e+000
      vertex  3.000000e+001  0.000000e+000  0.000000e+000
    endloop
  endfacet
  facet normal  0.000000e+000  0.000000e+000  1.000000e+000
    outer loop
      vertex  1.000000e+001  0.000000e+000  0.000000e+000
      vertex  3.000000e+001  0.000000e+000  0.000000e+000
      vertex  9.238795e+000  3.826834e+000  0.000000e+000
    endloop
  endfacet
  facet normal  -0.000000e+000  0.000000e+000  1.000000e+000
    outer loop
      vertex  2.924784e+001 -6.675628e+000  0.000000e+000
      vertex  7.071068e+000 -7.071068e+000  0.000000e+000
      vertex  2.702907e+001 -1.301651e+001  0.000000e+000
    endloop
  endfacet
  facet normal  0.000000e+000  0.000000e+000  1.000000e+000
    outer loop
      vertex  2.702907e+001 -1.301651e+001  0.000000e+000
      vertex  7.071068e+000 -7.071068e+000  0.000000e+000
      vertex  3.826834e+000 -9.238795e+000  0.000000e+000
    endloop
  endfacet
  facet normal  0.000000e+000  0.000000e+000  1.000000e+000
    outer loop
      vertex  2.702907e+001 -1.301651e+001  0.000000e+000
      vertex  3.826834e+000 -9.238795e+000  0.000000e+000
      vertex -1.836970e-015 -1.000000e+001  0.000000e+000
    endloop
  endfacet
  facet normal  9.807853e-001 -1.950903e-001  0.000000e+000
    outer loop
      vertex  1.000000e+001  0.000000e+000  0.000000e+000
      vertex  1.000000e+001  0.000000e+000  5.000000e+001
      vertex  9.238795e+000 -3.826834e+000  0.000000e+000
    endloop
  endfacet
  facet normal  9.807853e-001 -1.950903e-001  0.000000e+000
    outer loop
      vertex  9.238795e+000 -3.826834e+000  0.000000e+000
      vertex  1.000000e+001  0.000000e+000  5.000000e+001
      vertex  9.238795e+000 -3.826834e+000  5.000000e+001
    endloop
  endfacet
  facet normal  8.314696e-001 -5.555702e-001  0.000000e+000
    outer loop
      vertex  9.238795e+000 -3.826834e+000  0.000000e+000
      vertex  9.238795e+000 -3.826834e+000  5.000000e+001
      vertex  7.071068e+000 -7.071068e+000  0.000000e+000
    endloop
  endfacet
  facet normal  8.314696e-001 -5.555702e-001  0.000000e+000
    outer loop
      vertex  7.071068e+000 -7.071068e+000  0.000000e+000
      vertex  9.238795e+000 -3.826834e+000  5.000000e+001
      vertex  7.071068e+000 -7.071068e+000  5.000000e+001
    endloop
  endfacet
  facet normal  5.555702e-001 -8.314696e-001  0.000000e+000
    outer loop
      vertex  7.071068e+000 -7.071068e+000  0.000000e+000
      vertex  7.071068e+000 -7.071068e+000  5.000000e+001
      vertex  3.826834e+000 -9.238795e+000  0.000000e+000
    endloop
  endfacet
  facet normal  5.555702e-001 -8.314696e-001  0.000000e+000
    outer loop
      vertex  3.826834e+000 -9.238795e+000  0.000000e+000
      vertex  7.071068e+000 -7.071068e+000  5.000000e+001
      vertex  3.826834e+000 -9.238795e+000  5.000000e+001
    endloop
  endfacet
  facet normal  1.950903e-001 -9.807853e-001  0.000000e+000
    outer loop
      vertex  3.826834e+000 -9.238795e+000  0.000000e+000
      vertex  3.826834e+000 -9.238795e+000  5.000000e+001
      vertex -1.836970e-015 -1.000000e+001  0.000000e+000
    endloop
  endfacet
  facet normal  1.950903e-001 -9.807853e-001  0.000000e+000
    outer loop
      vertex -1.836970e-015 -1.000000e+001  0.000000e+000
      vertex  3.826834e+000 -9.238795e+000  5.000000e+001
      vertex -1.836970e-015 -1.000000e+001  5.000000e+001
    endloop
  endfacet
  facet normal -1.950903e-001 -9.807853e-001  -0.000000e+000
    outer loop
      vertex -1.836970e-015 -1.000000e+001  0.000000e+000
      vertex -1.836970e-015 -1.000000e+001  5.000000e+001
      vertex -3.826834e+000 -9.238795e+000  0.000000e+000
    endloop
  endfacet
  facet normal -1.950903e-001 -9.807853e-001  0.000000e+000
    outer loop
      vertex -3.826834e+000 -9.238795e+000  0.000000e+000
      vertex -1.836970e-015 -1.000000e+001  5.000000e+001
      vertex -3.826834e+000 -9.238795e+000  5.000000e+001
    endloop
  endfacet
  facet normal -5.555702e-001 -8.314696e-001  -0.000000e+000
    outer loop
      vertex -3.826834e+000 -9.238795e+000  0.000000e+000
      vertex -3.826834e+000 -9.238795e+000  5.000000e+001
      vertex -7.071068e+000 -7.071068e+000  0.000000e+000
    endloop
  endfacet
  facet normal -5.555702e-001 -8.314696e-001  0.000000e+000
    outer loop
      vertex -7.071068e+000 -7.071068e+000  0.000000e+000
      vertex -3.826834e+000 -9.238795e+000  5.000000e+001
      vertex -7.071068e+000 -7.071068e+000  5.000000e+001
    endloop
  endfacet
  facet normal -8.314696e-001 -5.555702e-001  -0.000000e+000
    outer loop
      vertex -7.071068e+000 -7.071068e+000  0.000000e+000
      vertex -7.071068e+000 -7.071068e+000  5.000000e+001
      vertex -9.238795e+000 -3.826834e+000  0.000000e+000
    endloop
  endfacet
  facet normal -8.314696e-001 -5.555702e-001  0.000000e+000
    outer loop
      vertex -9.238795e+000 -3.826834e+000  0.000000e+000
      vertex -7.071068e+000 -7.071068e+000  5.000000e+001
      vertex -9.238795e+000 -3.826834e+000  5.000000e+001
    endloop
  endfacet
  facet normal -9.807853e-001 -1.950903e-001  -0.000000e+000
    outer loop
      vertex -9.238795e+000 -3.826834e+000  0.000000e+000
      vertex -9.238795e+000 -3.826834e+000  5.000000e+001
      vertex -1.000000e+001  1.224647e-015  0.000000e+000
    endloop
  endfacet
  facet normal -9.807853e-001 -1.950903e-001  0.000000e+000
    outer loop
      vertex -1.000000e+001  1.224647e-015  0.000000e+000
      vertex -9.238795e+000 -3.826834e+000  5.000000e+001
      vertex -1.000000e+001  1.224647e-015  5.000000e+001
    endloop
  endfacet
  facet normal -9.807853e-001  1.950903e-001  0.000000e+000
    outer loop
      vertex -1.000000e+001  1.224647e-015  0.000000e+000
      vertex -1.000000e+001  1.224647e-015  5.000000e+001
      vertex -9.238795e+000  3.826834e+000  0.000000e+000
    endloop
  endfacet
  facet normal -9.807853e-001  1.950903e-001  0.000000e+000
    outer loop
      vertex -9.238795e+000  3.826834e+000  0.000000e+000
      vertex -1.000000e+001  1.224647e-015  5.000000e+001
      vertex -9.238795e+000  3.826834e+000  5.000000e+001
    endloop
  endfacet
  facet normal -8.314696e-001  5.555702e-001  0.000000e+000
    outer loop
      vertex -9.238795e+000  3.826834e+000  0.000000e+000
      vertex -9.238795e+000  3.826834e+000  5.000000e+001
      vertex -7.071068e+000  7.071068e+000  0.000000e+000
    endloop
  endfacet
  facet normal -8.314696e-001  5.555702e-001  0.000000e+000
    outer loop
      vertex -7.071068e+000  7.071068e+000  0.000000e+000
      vertex -9.238795e+000  3.826834e+000  5.000000e+001
      vertex -7.071068e+000  7.071068e+000  5.000000e+001
    endloop
  endfacet
  facet normal -5.555702e-001  8.314696e-001  0.000000e+000
    outer loop
      vertex -7.071068e+000  7.071068e+000  0.000000e+000
      vertex -7.071068e+000  7.071068e+000  5.000000e+001
      vertex -3.826834e+000  9.238795e+000  0.000000e+000
    endloop
  endfacet
  facet normal -5.555702e-001  8.314696e-001  0.000000e+000
    outer loop
      vertex -3.826834e+000  9.238795e+000  0.000000e+000
      vertex -7.071068e+000  7.071068e+000  5.000000e+001
      vertex -3.826834e+000  9.238795e+000  5.000000e+001
    endloop
  endfacet
  facet normal -1.950903e-001  9.807853e-001  0.000000e+000
    outer loop
      vertex -3.826834e+000  9.238795e+000  0.000000e+000
      vertex -3.826834e+000  9.238795e+000  5.000000e+001
      vertex  6.123234e-016  1.000000e+001  0.000000e+000
    endloop
  endfacet
  facet normal -1.950903e-001  9.807853e-001  0.000000e+000
    outer loop
      vertex  6.123234e-016  1.000000e+001  0.000000e+000
      vertex -3.826834e+000  9.238795e+000  5.000000e+001
      vertex  6.123234e-016  1.000000e+001  5.000000e+001
    endloop
  endfacet
  facet normal  1.950903e-001  9.807853e-001  0.000000e+000
    outer loop
      vertex  6.123234e-016  1.000000e+001  0.000000e+000
      vertex  6.123234e-016  1.000000e+001  5.000000e+001
      vertex  3.826834e+000  9.238795e+000  0.000000e+000
    endloop
  endfacet
  facet normal  1.950903e-001  9.807853e-001  -0.000000e+000
    outer loop
      vertex  3.826834e+000  9.238795e+000  0.000000e+000
      vertex  6.123234e-016  1.000000e+001  5.000000e+001
      vertex  3.826834e+000  9.238795e+000  5.000000e+001
    endloop
  endfacet
  facet normal  5.555702e-001  8.314696e-001  0.000000e+000
    outer loop
      vertex  3.826834e+000  9.238795e+000  0.000000e+000
      vertex  3.826834e+000  9.238795e+000  5.000000e+001
      vertex  7.071068e+000  7.071068e+000  0.000000e+000
    endloop
  endfacet
  facet normal  5.555702e-001  8.314696e-001  -0.000000e+000
    outer loop
      vertex  7.071068e+000  7.071068e+000  0.000000e+000
      vertex  3.826834e+000  9.238795e+000  5.000000e+001
      vertex  7.071068e+000  7.071068e+000  5.000000e+001
    endloop
  endfacet
  facet normal  8.314696e-001  5.555702e-001  0.000000e+000
    outer loop
      vertex  7.071068e+000  7.071068e+000  0.000000e+000
      vertex  7.071068e+000  7.071068e+000  5.000000e+001
      vertex  9.238795e+000  3.826834e+000  0.000000e+000
    endloop
  endfacet
  facet normal  8.314696e-001  5.555702e-001  -0.000000e+000
    outer loop
      vertex  9.238795e+000  3.826834e+000  0.000000e+000
      vertex  7.071068e+000  7.071068e+000  5.000000e+001
      vertex  9.238795e+000  3.826834e+000  5.000000e+001
    endloop
  endfacet
  facet normal  9.807853e-001  1.950903e-001  0.000000e+000
    outer loop
      vertex  9.238795e+000  3.826834e+000  0.000000e+000
      vertex  9.238795e+000  3.826834e+000  5.000000e+001
      vertex  1.000000e+001  0.000000e+000  0.000000e+000
    endloop
  endfacet
  facet normal  9.807853e-001  1.950903e-001  -0.000000e+000
    outer loop
      vertex  1.000000e+001  0.000000e+000  0.000000e+000
      vertex  9.238795e+000  3.826834e+000  5.000000e+001
      vertex  1.000000e+001  0.000000e+000  5.000000e+001
    endloop
  endfacet
  facet normal  0.000000e+000  0.000000e+000  1.000000e+000
    outer loop
      vertex -3.826834e+000  9.238795e+000  5.000000e+001
      vertex  3.826834e+000  9.238795e+000  5.000000e+001
      vertex  6.123234e-016  1.000000e+001  5.000000e+001
    endloop
  endfacet
  facet normal  -0.000000e+000  0.000000e+000  1.000000e+000
    outer loop
      vertex  3.826834e+000  9.238795e+000  5.000000e+001
      vertex -3.826834e+000  9.238795e+000  5.000000e+001
      vertex  7.071068e+000  7.071068e+000  5.000000e+001
    endloop
  endfacet
  facet normal  0.000000e+000  0.000000e+000  9.999999e-001
    outer loop
      vertex  7.071068e+000  7.071068e+000  5.000000e+001
      vertex -3.826834e+000  9.238795e+000  5.000000e+001
      vertex -7.071068e+000  7.071068e+000  5.000000e+001
    endloop
  endfacet
  facet normal  -0.000000e+000  0.000000e+000  1.000000e+000
    outer loop
      vertex  7.071068e+000  7.071068e+000  5.000000e+001
      vertex -7.071068e+000  7.071068e+000  5.000000e+001
      vertex  9.238795e+000  3.826834e+000  5.000000e+001
    endloop
  endfacet
  facet normal  0.000000e+000  0.000000e+000  1.000000e+000
    outer loop
      vertex  9.238795e+000  3.826834e+000  5.000000e+001
      vertex -7.071068e+000  7.071068e+000  5.000000e+001
      vertex -9.238795e+000  3.826834e+000  5.000000e+001
    endloop
  endfacet
  facet normal  -0.000000e+000  0.000000e+000  1.000000e+000
    outer loop
      vertex  9.238795e+000  3.826834e+000  5.000000e+001
      vertex -9.238795e+000  3.826834e+000  5.000000e+001
      vertex  1.000000e+001  0.000000e+000  5.000000e+001
    endloop
  endfacet
  facet normal  0.000000e+000  0.000000e+000  1.000000e+000
    outer loop
      vertex  1.000000e+001  0.000000e+000  5.000000e+001
      vertex -9.238795e+000  3.826834e+000  5.000000e+001
      vertex -1.000000e+001  1.224647e-015  5.000000e+001
    endloop
  endfacet
  facet normal  0.000000e+000  0.000000e+000  1.000000e+000
    outer loop
      vertex  1.000000e+001  0.000000e+000  5.000000e+001
      vertex -1.000000e+001  1.224647e-015  5.000000e+001
      vertex  9.238795e+000 -3.826834e+000  5.000000e+001
    endloop
  endfacet
  facet normal  0.000000e+000  0.000000e+000  1.000000e+000
    outer loop
      vertex  9.238795e+000 -3.826834e+000  5.000000e+001
      vertex -1.000000e+001  1.224647e-015  5.000000e+001
      vertex -9.238795e+000 -3.826834e+000  5.000000e+001
    endloop
  endfacet
  facet normal  -0.000000e+000  0.000000e+000  1.000000e+000
    outer loop
      vertex  9.238795e+000 -3.826834e+000  5.000000e+001
      vertex -9.238795e+000 -3.826834e+000  5.000000e+001
      vertex  7.071068e+000 -7.071068e+000  5.000000e+001
    endloop
  endfacet
  facet normal  0.000000e+000  0.000000e+000  1.000000e+000
    outer loop
      vertex  7.071068e+000 -7.071068e+000  5.000000e+001
      vertex -9.238795e+000 -3.826834e+000  5.000000e+001
      vertex -7.071068e+000 -7.071068e+000  5.000000e+001
    endloop
  endfacet
  facet normal  -0.000000e+000  0.000000e+000  9.999999e-001
    outer loop
      vertex  7.071068e+000 -7.071068e+000  5.000000e+001
      vertex -7.071068e+000 -7.071068e+000  5.000000e+001
      vertex  3.826834e+000 -9.238795e+000  5.000000e+001
    endloop
  endfacet
  facet normal  0.000000e+000  0.000000e+000  1.000000e+000
    outer loop
      vertex  3.826834e+000 -9.238795e+000  5.000000e+001
      vertex -7.071068e+000 -7.071068e+000  5.000000e+001
      vertex -3.826834e+000 -9.238795e+000  5.000000e+001
    endloop
  endfacet
  facet normal  -0.000000e+000  0.000000e+000  1.000000e+000
    outer loop
      vertex  3.826834e+000 -9.238795e+000  5.000000e+001
      vertex -3.826834e+000 -9.238795e+000  5.000000e+001
      vertex -1.836970e-015 -1.000000e+001  5.000000e+001
    endloop
  endfacet
  facet normal  0.000000e+000  0.000000e+000 -1.000000e+000
    outer loop
      vertex  1.836970e-015  3.000000e+001 -4.000000e+001
      vertex  6.675628e+000  2.924784e+001 -4.000000e+001
      vertex -6.675628e+000  2.924784e+001 -4.000000e+001
    endloop
  endfacet
  facet normal  0.000000e+000  0.000000e+000 -1.000000e+000
    outer loop
      vertex -5.510911e-015 -3.000000e+001 -4.000000e+001
      vertex -6.675628e+000 -2.924784e+001 -4.000000e+001
      vertex  6.675628e+000 -2.924784e+001 -4.000000e+001
    endloop
  endfacet
  facet normal  0.000000e+000  0.000000e+000 -1.000000e+000
    outer loop
      vertex  6.675628e+000 -2.924784e+001 -4.000000e+001
      vertex -6.675628e+000 -2.924784e+001 -4.000000e+001
      vertex -1.301651e+001 -2.702907e+001 -4.000000e+001
    endloop
  endfacet
  facet normal  0.000000e+000  0.000000e+000 -9.999999e-001
    outer loop
      vertex  6.675628e+000 -2.924784e+001 -4.000000e+001
      vertex -1.301651e+001 -2.702907e+001 -4.000000e+001
      vertex  1.301651e+001 -2.702907e+001 -4.000000e+001
    endloop
  endfacet
  facet normal  0.000000e+000  0.000000e+000 -1.000000e+000
    outer loop
      vertex  1.301651e+001 -2.702907e+001 -4.000000e+001
      vertex -1.301651e+001 -2.702907e+001 -4.000000e+001
      vertex -1.870469e+001 -2.345494e+001 -4.000000e+001
    endloop
  endfacet
  facet normal  0.000000e+000  0.000000e+000 -1.000000e+000
    outer loop
      vertex  1.301651e+001 -2.702907e+001 -4.000000e+001
      vertex -1.870469e+001 -2.345494e+001 -4.000000e+001
      vertex  1.870469e+001 -2.345494e+001 -4.000000e+001
    endloop
  endfacet
  facet normal  0.000000e+000  0.000000e+000 -1.000000e+000
    outer loop
      vertex  1.870469e+001 -2.345494e+001 -4.000000e+001
      vertex -1.870469e+001 -2.345494e+001 -4.000000e+001
      vertex -2.345494e+001 -1.870469e+001 -4.000000e+001
    endloop
  endfacet
  facet normal  0.000000e+000  0.000000e+000 -1.000000e+000
    outer loop
      vertex  1.870469e+001 -2.345494e+001 -4.000000e+001
      vertex -2.345494e+001 -1.870469e+001 -4.000000e+001
      vertex  2.345494e+001 -1.870469e+001 -4.000000e+001
    endloop
  endfacet
  facet normal  0.000000e+000  0.000000e+000 -1.000000e+000
    outer loop
      vertex  2.345494e+001 -1.870469e+001 -4.000000e+001
      vertex -2.345494e+001 -1.870469e+001 -4.000000e+001
      vertex -2.702907e+001 -1.301651e+001 -4.000000e+001
    endloop
  endfacet
  facet normal  0.000000e+000  0.000000e+000 -1.000000e+000
    outer loop
      vertex  2.345494e+001 -1.870469e+001 -4.000000e+001
      vertex -2.702907e+001 -1.301651e+001 -4.000000e+001
      vertex  2.702907e+001 -1.301651e+001 -4.000000e+001
    endloop
  endfacet
  facet normal  0.000000e+000  0.000000e+000 -1.000000e+000
    outer loop
      vertex  2.702907e+001 -1.301651e+001 -4.000000e+001
      vertex -2.702907e+001 -1.301651e+001 -4.000000e+001
      vertex -2.924784e+001 -6.675628e+000 -4.000000e+001
    endloop
  endfacet
  facet normal  0.000000e+000  0.000000e+000 -1.000000e+000
    outer loop
      vertex  2.702907e+001 -1.301651e+001 -4.000000e+001
      vertex -2.924784e+001 -6.675628e+000 -4.000000e+001
      vertex  2.924784e+001 -6.675628e+000 -4.000000e+001
    endloop
  endfacet
  facet normal  0.000000e+000  0.000000e+000 -9.999999e-001
    outer loop
      vertex  2.924784e+001 -6.675628e+000 -4.000000e+001
      vertex -2.924784e+001 -6.675628e+000 -4.000000e+001
      vertex -3.000000e+001  3.673940e-015 -4.000000e+001
    endloop
  endfacet
  facet normal  0.000000e+000  0.000000e+000 -1.000000e+000
    outer loop
      vertex  2.924784e+001 -6.675628e+000 -4.000000e+001
      vertex -3.000000e+001  3.673940e-015 -4.000000e+001
      vertex  3.000000e+001  0.000000e+000 -4.000000e+001
    endloop
  endfacet
  facet normal  0.000000e+000  0.000000e+000 -1.000000e+000
    outer loop
      vertex  3.000000e+001  0.000000e+000 -4.000000e+001
      vertex -3.000000e+001  3.673940e-015 -4.000000e+001
      vertex -2.924784e+001  6.675628e+000 -4.000000e+001
    endloop
  endfacet
  facet normal  0.000000e+000  0.000000e+000 -9.999999e-001
    outer loop
      vertex  3.000000e+001  0.000000e+000 -4.000000e+001
      vertex -2.924784e+001  6.675628e+000 -4.000000e+001
      vertex  2.924784e+001  6.675628e+000 -4.000000e+001
    endloop
  endfacet
  facet normal  0.000000e+000  0.000000e+000 -1.000000e+000
    outer loop
      vertex  2.924784e+001  6.675628e+000 -4.000000e+001
      vertex -2.924784e+001  6.675628e+000 -4.000000e+001
      vertex -2.702907e+001  1.301651e+001 -4.000000e+001
    endloop
  endfacet
  facet normal  0.000000e+000  0.000000e+000 -1.000000e+000
    outer loop
      vertex  2.924784e+001  6.675628e+000 -4.000000e+001
      vertex -2.702907e+001  1.301651e+001 -4.000000e+001
      vertex  2.702907e+001  1.301651e+001 -4.000000e+001
    endloop
  endfacet
  facet normal  0.000000e+000  0.000000e+000 -1.000000e+000
    outer loop
      vertex  2.702907e+001  1.301651e+001 -4.000000e+001
      vertex -2.702907e+001  1.301651e+001 -4.000000e+001
      vertex -2.345494e+001  1.870469e+001 -4.000000e+001
    endloop
  endfacet
  facet normal  0.000000e+000  0.000000e+000 -1.000000e+000
    outer loop
      vertex  2.702907e+001  1.301651e+001 -4.000000e+001
      vertex -2.345494e+001  1.870469e+001 -4.000000e+001
      vertex  2.345494e+001  1.870469e+001 -4.000000e+001
    endloop
  endfacet
  facet normal  0.000000e+000  0.000000e+000 -1.000000e+000
    outer loop
      vertex  2.345494e+001  1.870469e+001 -4.000000e+001
      vertex -2.345494e+001  1.870469e+001 -4.000000e+001
      vertex -1.870469e+001  2.345494e+001 -4.000000e+001
    endloop
  endfacet
  facet normal  0.000000e+000  0.000000e+000 -1.000000e+000
    outer loop
      vertex  2.345494e+001  1.870469e+001 -4.000000e+001
      vertex -1.870469e+001  2.345494e+001 -4.000000e+001
      vertex  1.870469e+001  2.345494e+001 -4.000000e+001
    endloop
  endfacet
  facet normal  0.000000e+000  0.000000e+000 -1.000000e+000
    outer loop
      vertex  1.870469e+001  2.345494e+001 -4.000000e+001
      vertex -1.870469e+001  2.345494e+001 -4.000000e+001
      vertex -1.301651e+001  2.702907e+001 -4.000000e+001
    endloop
  endfacet
  facet normal  0.000000e+000  0.000000e+000 -1.000000e+000
    outer loop
      vertex  1.870469e+001  2.345494e+001 -4.000000e+001
      vertex -1.301651e+001  2.702907e+001 -4.000000e+001
      vertex  1.301651e+001  2.702907e+001 -4.000000e+001
    endloop
  endfacet
  facet normal  0.000000e+000  0.000000e+000 -9.999999e-001
    outer loop
      vertex  1.301651e+001  2.702907e+001 -4.000000e+001
      vertex -1.301651e+001  2.702907e+001 -4.000000e+001
      vertex -6.675628e+000  2.924784e+001 -4.000000e+001
    endloop
  endfacet
  facet normal  0.000000e+000  0.000000e+000 -1.000000e+000
    outer loop
      vertex  1.301651e+001  2.702907e+001 -4.000000e+001
      vertex -6.675628e+000  2.924784e+001 -4.000000e+001
      vertex  6.675628e+000  2.924784e+001 -4.000000e+001
    endloop
  endfacet
  facet normal  9.937123e-001 -1.119645e-001  0.000000e+000
    outer loop
      vertex  3.000000e+001  0.000000e+000 -4.000000e+001
      vertex  3.000000e+001  0.000000e+000  0.000000e+000
      vertex  2.924784e+001 -6.675628e+000 -4.000000e+001
    endloop
  endfacet
  facet normal  9.937123e-001 -1.119645e-001  0.000000e+000
    outer loop
      vertex  2.924784e+001 -6.675628e+000 -4.000000e+001
      vertex  3.000000e+001  0.000000e+000  0.000000e+000
      vertex  2.924784e+001 -6.675628e+000  0.000000e+000
    endloop
  endfacet
  facet normal  9.438834e-001 -3.302791e-001  0.000000e+000
    outer loop
      vertex  2.924784e+001 -6.675628e+000 -4.000000e+001
      vertex  2.924784e+001 -6.675628e+000  0.000000e+000
      vertex  2.702907e+001 -1.301651e+001 -4.000000e+001
    endloop
  endfacet
  facet normal  9.438834e-001 -3.302791e-001  0.000000e+000
    outer loop
      vertex  2.702907e+001 -1.301651e+001 -4.000000e+001
      vertex  2.924784e+001 -6.675628e+000  0.000000e+000
      vertex  2.702907e+001 -1.301651e+001  0.000000e+000
    endloop
  endfacet
  facet normal  8.467242e-001 -5.320320e-001  0.000000e+000
    outer loop
      vertex  2.702907e+001 -1.301651e+001 -4.000000e+001
      vertex  2.702907e+001 -1.301651e+001  0.000000e+000
      vertex  2.345494e+001 -1.870469e+001 -4.000000e+001
    endloop
  endfacet
  facet normal  8.467242e-001 -5.320320e-001  0.000000e+000
    outer loop
      vertex  2.345494e+001 -1.870469e+001 -4.000000e+001
      vertex  2.702907e+001 -1.301651e+001  0.000000e+000
      vertex  2.345494e+001 -1.870469e+001  0.000000e+000
    endloop
  endfacet
  facet normal  7.071068e-001 -7.071068e-001  0.000000e+000
    outer loop
      vertex  2.345494e+001 -1.870469e+001 -4.000000e+001
      vertex  2.345494e+001 -1.870469e+001  0.000000e+000
      vertex  1.870469e+001 -2.345494e+001 -4.000000e+001
    endloop
  endfacet
  facet normal  7.071068e-001 -7.071068e-001  0.000000e+000
    outer loop
      vertex  1.870469e+001 -2.345494e+001 -4.000000e+001
      vertex  2.345494e+001 -1.870469e+001  0.000000e+000
      vertex  1.870469e+001 -2.345494e+001  0.000000e+000
    endloop
  endfacet
  facet normal  5.320320e-001 -8.467242e-001  0.000000e+000
    outer loop
      vertex  1.870469e+001 -2.345494e+001 -4.000000e+001
      vertex  1.870469e+001 -2.345494e+001  0.000000e+000
      vertex  1.301651e+001 -2.702907e+001 -4.000000e+001
    endloop
  endfacet
  facet normal  5.320320e-001 -8.467242e-001  0.000000e+000
    outer loop
      vertex  1.301651e+001 -2.702907e+001 -4.000000e+001
      vertex  1.870469e+001 -2.345494e+001  0.000000e+000
      vertex  1.301651e+001 -2.702907e+001  0.000000e+000
    endloop
  endfacet
  facet normal  3.302791e-001 -9.438834e-001  0.000000e+000
    outer loop
      vertex  1.301651e+001 -2.702907e+001 -4.000000e+001
      vertex  1.301651e+001 -2.702907e+001  0.000000e+000
      vertex  6.675628e+000 -2.924784e+001 -4.000000e+001
    endloop
  endfacet
  facet normal  3.302791e-001 -9.438834e-001  0.000000e+000
    outer loop
      vertex  6.675628e+000 -2.924784e+001 -4.000000e+001
      vertex  1.301651e+001 -2.702907e+001  0.000000e+000
      vertex  6.675628e+000 -2.924784e+001  0.000000e+000
    endloop
  endfacet
  facet normal  1.119645e-001 -9.937123e-001  0.000000e+000
    outer loop
      vertex  6.675628e+000 -2.924784e+001 -4.000000e+001
      vertex  6.675628e+000 -2.924784e+001  0.000000e+000
      vertex -5.510911e-015 -3.000000e+001 -4.000000e+001
    endloop
  endfacet
  facet normal  1.119645e-001 -9.937123e-001  0.000000e+000
    outer loop
      vertex -5.510911e-015 -3.000000e+001 -4.000000e+001
      vertex  6.675628e+000 -2.924784e+001  0.000000e+000
      vertex -5.510911e-015 -3.000000e+001  0.000000e+000
    endloop
  endfacet
  facet normal -1.119645e-001 -9.937123e-001  -0.000000e+000
    outer loop
      vertex -5.510911e-015 -3.000000e+001 -4.000000e+001
      vertex -5.510911e-015 -3.000000e+001  0.000000e+000
      vertex -6.675628e+000 -2.924784e+001 -4.000000e+001
    endloop
  endfacet
  facet normal -1.119645e-001 -9.937123e-001  0.000000e+000
    outer loop
      vertex -6.675628e+000 -2.924784e+001 -4.000000e+001
      vertex -5.510911e-015 -3.000000e+001  0.000000e+000
      vertex -6.675628e+000 -2.924784e+001  0.000000e+000
    endloop
  endfacet
  facet normal -3.302791e-001 -9.438834e-001  -0.000000e+000
    outer loop
      vertex -6.675628e+000 -2.924784e+001 -4.000000e+001
      vertex -6.675628e+000 -2.924784e+001  0.000000e+000
      vertex -1.301651e+001 -2.702907e+001 -4.000000e+001
    endloop
  endfacet
  facet normal -3.302791e-001 -9.438834e-001  0.000000e+000
    outer loop
      vertex -1.301651e+001 -2.702907e+001 -4.000000e+001
      vertex -6.675628e+000 -2.924784e+001  0.000000e+000
      vertex -1.301651e+001 -2.702907e+001  0.000000e+000
    endloop
  endfacet
  facet normal -5.320320e-001 -8.467242e-001  -0.000000e+000
    outer loop
      vertex -1.301651e+001 -2.702907e+001 -4.000000e+001
      vertex -1.301651e+001 -2.702907e+001  0.000000e+000
      vertex -1.870469e+001 -2.345494e+001 -4.000000e+001
    endloop
  endfacet
  facet normal -5.320320e-001 -8.467242e-001  0.000000e+000
    outer loop
      vertex -1.870469e+001 -2.345494e+001 -4.000000e+001
      vertex -1.301651e+001 -2.702907e+001  0.000000e+000
      vertex -1.870469e+001 -2.345494e+001  0.000000e+000
    endloop
  endfacet
  facet normal -7.071068e-001 -7.071068e-001  -0.000000e+000
    outer loop
      vertex -1.870469e+001 -2.345494e+001 -4.000000e+001
      vertex -1.870469e+001 -2.345494e+001  0.000000e+000
      vertex -2.345494e+001 -1.870469e+001 -4.000000e+001
    endloop
  endfacet
  facet normal -7.071068e-001 -7.071068e-001  0.000000e+000
    outer loop
      vertex -2.345494e+001 -1.870469e+001 -4.000000e+001
      vertex -1.870469e+001 -2.345494e+001  0.000000e+000
      vertex -2.345494e+001 -1.870469e+001  0.000000e+000
    endloop
  endfacet
  facet normal -8.467242e-001 -5.320320e-001  -0.000000e+000
    outer loop
      vertex -2.345494e+001 -1.870469e+001 -4.000000e+001
      vertex -2.345494e+001 -1.870469e+001  0.000000e+000
      vertex -2.702907e+001 -1.301651e+001 -4.000000e+001
    endloop
  endfacet
  facet normal -8.467242e-001 -5.320320e-001  0.000000e+000
    outer loop
      vertex -2.702907e+001 -1.301651e+001 -4.000000e+001
      vertex -2.345494e+001 -1.870469e+001  0.000000e+000
      vertex -2.702907e+001 -1.301651e+001  0.000000e+000
    endloop
  endfacet
  facet normal -9.438834e-001 -3.302791e-001  -0.000000e+000
    outer loop
      vertex -2.702907e+001 -1.301651e+001 -4.000000e+001
      vertex -2.702907e+001 -1.301651e+001  0.000000e+000
      vertex -2.924784e+001 -6.675628e+000 -4.000000e+001
    endloop
  endfacet
  facet normal -9.438834e-001 -3.302791e-001  0.000000e+000
    outer loop
      vertex -2.924784e+001 -6.675628e+000 -4.000000e+001
      vertex -2.702907e+001 -1.301651e+001  0.000000e+000
      vertex -2.924784e+001 -6.675628e+000  0.000000e+000
    endloop
  endfacet
  facet normal -9.937123e-001 -1.119645e-001  -0.000000e+000
    outer loop
      vertex -2.924784e+001 -6.675628e+000 -4.000000e+001
      vertex -2.924784e+001 -6.675628e+000  0.000000e+000
      vertex -3.000000e+001  3.673940e-015 -4.000000e+001
    endloop
  endfacet
  facet normal -9.937123e-001 -1.119645e-001  0.000000e+000
    outer loop
      vertex -3.000000e+001  3.673940e-015 -4.000000e+001
      vertex -2.924784e+001 -6.675628e+000  0.000000e+000
      vertex -3.000000e+001  3.673940e-015  0.000000e+000
    endloop
  endfacet
  facet normal -9.937123e-001  1.119645e-001  0.000000e+000
    outer loop
      vertex -3.000000e+001  3.673940e-015 -4.000000e+001
      vertex -3.000000e+001  3.673940e-015  0.000000e+000
      vertex -2.924784e+001  6.675628e+000 -4.000000e+001
    endloop
  endfacet
  facet normal -9.937123e-001  1.119645e-001  0.000000e+000
    outer loop
      vertex -2.924784e+001  6.675628e+000 -4.000000e+001
      vertex -3.000000e+001  3.673940e-015  0.000000e+000
      vertex -2.924784e+001  6.675628e+000  0.000000e+000
    endloop
  endfacet
  facet normal -9.438834e-001  3.302791e-001  0.000000e+000
    outer loop
      vertex -2.924784e+001  6.675628e+000 -4.000000e+001
      vertex -2.924784e+001  6.675628e+000  0.000000e+000
      vertex -2.702907e+001  1.301651e+001 -4.000000e+001
    endloop
  endfacet
  facet normal -9.438834e-001  3.302791e-001  0.000000e+000
    outer loop
      vertex -2.702907e+001  1.301651e+001 -4.000000e+001
      vertex -2.924784e+001  6.675628e+000  0.000000e+000
      vertex -2.702907e+001  1.301651e+001  0.000000e+000
    endloop
  endfacet
  facet normal -8.467242e-001  5.320320e-001  0.000000e+000
    outer loop
      vertex -2.702907e+001  1.301651e+001 -4.000000e+001
      vertex -2.702907e+001  1.301651e+001  0.000000e+000
      vertex -2.345494e+001  1.870469e+001 -4.000000e+001
    endloop
  endfacet
  facet normal -8.467242e-001  5.320320e-001  0.000000e+000
    outer loop
      vertex -2.345494e+001  1.870469e+001 -4.000000e+001
      vertex -2.702907e+001  1.301651e+001  0.000000e+000
      vertex -2.345494e+001  1.870469e+001  0.000000e+000
    endloop
  endfacet
  facet normal -7.071068e-001  7.071068e-001  0.000000e+000
    outer loop
      vertex -2.345494e+001  1.870469e+001 -4.000000e+001
      vertex -2.345494e+001  1.870469e+001  0.000000e+000
      vertex -1.870469e+001  2.345494e+001 -4.000000e+001
    endloop
  endfacet
  facet normal -7.071068e-001  7.071068e-001  0.000000e+000
    outer loop
      vertex -1.870469e+001  2.345494e+001 -4.000000e+001
      vertex -2.345494e+001  1.870469e+001  0.000000e+000
      vertex -1.870469e+001  2.345494e+001  0.000000e+000
    endloop
  endfacet
  facet normal -5.320320e-001  8.467242e-001  0.000000e+000
    outer loop
      vertex -1.870469e+001  2.345494e+001 -4.000000e+001
      vertex -1.870469e+001  2.345494e+001  0.000000e+000
      vertex -1.301651e+001  2.702907e+001 -4.000000e+001
    endloop
  endfacet
  facet normal -5.320320e-001  8.467242e-001  0.000000e+000
    outer loop
      vertex -1.301651e+001  2.702907e+001 -4.000000e+001
      vertex -1.870469e+001  2.345494e+001  0.000000e+000
      vertex -1.301651e+001  2.702907e+001  0.000000e+000
    endloop
  endfacet
  facet normal -3.302791e-001  9.438834e-001  0.000000e+000
    outer loop
      vertex -1.301651e+001  2.702907e+001 -4.000000e+001
      vertex -1.301651e+001  2.702907e+001  0.000000e+000
      vertex -6.675628e+000  2.924784e+001 -4.000000e+001
    endloop
  endfacet
  facet normal -3.302791e-001  9.438834e-001  0.000000e+000
    outer loop
      vertex -6.675628e+000  2.924784e+001 -4.000000e+001
      vertex -1.301651e+001  2.702907e+001  0.000000e+000
      vertex -6.675628e+000  2.924784e+001  0.000000e+000
    endloop
  endfacet
  facet normal -1.119645e-001  9.937123e-001  0.000000e+000
    outer loop
      vertex -6.675628e+000  2.924784e+001 -4.000000e+001
      vertex -6.675628e+000  2.924784e+001  0.000000e+000
      vertex  1.836970e-015  3.000000e+001 -4.000000e+001
    endloop
  endfacet
  facet normal -1.119645e-001  9.937123e-001  0.000000e+000
    outer loop
      vertex  1.836970e-015  3.000000e+001 -4.000000e+001
      vertex -6.675628e+000  2.924784e+001  0.000000e+000
      vertex  1.836970e-015  3.000000e+001  0.000000e+000
    endloop
  endfacet
  facet normal  1.119645e-001  9.937123e-001  0.000000e+000
    outer loop
      vertex  1.836970e-015  3.000000e+001 -4.000000e+001
      vertex  1.836970e-015  3.000000e+001  0.000000e+000
      vertex  6.675628e+000  2.924784e+001 -4.000000e+001
    endloop
  endfacet
  facet normal  1.119645e-001  9.937123e-001  -0.000000e+000
    outer loop
      vertex  6.675628e+000  2.924784e+001 -4.000000e+001
      vertex  1.836970e-015  3.000000e+001  0.000000e+000
      vertex  6.675628e+000  2.924784e+001  0.000000e+000
    endloop
  endfacet
  facet normal  3.302791e-001  9.438834e-001  0.000000e+000
    outer loop
      vertex  6.675628e+000  2.924784e+001 -4.000000e+001
      vertex  6.675628e+000  2.924784e+001  0.000000e+000
      vertex  1.301651e+001  2.702907e+001 -4.000000e+001
    endloop
  endfacet
  facet normal  3.302791e-001  9.438834e-001  -0.000000e+000
    outer loop
      vertex  1.301651e+001  2.702907e+001 -4.000000e+001
      vertex  6.675628e+000  2.924784e+001  0.000000e+000
      vertex  1.301651e+001  2.702907e+001  0.000000e+000
    endloop
  endfacet
  facet normal  5.320320e-001  8.467242e-001  0.000000e+000
    outer loop
      vertex  1.301651e+001  2.702907e+001 -4.000000e+001
      vertex  1.301651e+001  2.702907e+001  0.000000e+000
      vertex  1.870469e+001  2.345494e+001 -4.000000e+001
    endloop
  endfacet
  facet normal  5.320320e-001  8.467242e-001  -0.000000e+000
    outer loop
      vertex  1.870469e+001  2.345494e+001 -4.000000e+001
      vertex  1.301651e+001  2.702907e+001  0.000000e+000
      vertex  1.870469e+001  2.345494e+001  0.000000e+000
    endloop
  endfacet
  facet normal  7.071068e-001  7.071068e-001  0.000000e+000
    outer loop
      vertex  1.870469e+001  2.345494e+001 -4.000000e+001
      vertex  1.870469e+001  2.345494e+001  0.000000e+000
      vertex  2.345494e+001  1.870469e+001 -4.000000e+001
    endloop
  endfacet
  facet normal  7.071068e-001  7.071068e-001  -0.000000e+000
    outer loop
      vertex  2.345494e+001  1.870469e+001 -4.000000e+001
      vertex  1.870469e+001  2.345494e+001  0.000000e+000
      vertex  2.345494e+001  1.870469e+001  0.000000e+000
    endloop
  endfacet
  facet normal  8.467242e-001  5.320320e-001  0.000000e+000
    outer loop
      vertex  2.345494e+001  1.870469e+001 -4.000000e+001
      vertex  2.345494e+001  1.870469e+001  0.000000e+000
      vertex  2.702907e+001  1.301651e+001 -4.000000e+001
    endloop
  endfacet
  facet normal  8.467242e-001  5.320320e-001  -0.000000e+000
    outer loop
      vertex  2.702907e+001  1.301651e+001 -4.000000e+001
      vertex  2.345494e+001  1.870469e+001  0.000000e+000
      vertex  2.702907e+001  1.301651e+001  0.000000e+000
    endloop
  endfacet
  facet normal  9.438834e-001  3.302791e-001  0.000000e+000
    outer loop
      vertex  2.702907e+001  1.301651e+001 -4.000000e+001
      vertex  2.702907e+001  1.301651e+001  0.000000e+000
      vertex  2.924784e+001  6.675628e+000 -4.000000e+001
    endloop
  endfacet
  facet normal  9.438834e-001  3.302791e-001  -0.000000e+000
    outer loop
      vertex  2.924784e+001  6.675628e+000 -4.000000e+001
      vertex  2.702907e+001  1.301651e+001  0.000000e+000
      vertex  2.924784e+001  6.675628e+000  0.000000e+000
    endloop
  endfacet
  facet normal  9.937123e-001  1.119645e-001  0.000000e+000
    outer loop
      vertex  2.924784e+001  6.675628e+000 -4.000000e+001
      vertex  2.924784e+001  6.675628e+000  0.000000e+000
      vertex  3.000000e+001  0.000000e+000 -4.000000e+001
    endloop
  endfacet
  facet normal  9.937123e-001  1.119645e-001  -0.000000e+000
    outer loop
      vertex  3.000000e+001  0.000000e+000 -4.000000e+001
      vertex  2.924784e+001  6.675628e+000  0.000000e+000
      vertex  3.000000e+001  0.000000e+000  0.000000e+000
    endloop
  endfacet
endsolid CATIA STL
