solid CATIA STL
  facet normal  0.000000e+000  0.000000e+000  1.000000e+000
    outer loop
      vertex -2.500000e+001  2.500000e+001  5.000000e+001
      vertex -2.500000e+001 -2.500000e+001  5.000000e+001
      vertex -9.238795e+000  3.826834e+000  5.000000e+001
    endloop
  endfacet
  facet normal  0.000000e+000  -0.000000e+000  1.000000e+000
    outer loop
      vertex -2.500000e+001  2.500000e+001  5.000000e+001
      vertex -9.238795e+000  3.826834e+000  5.000000e+001
      vertex -7.071068e+000  7.071068e+000  5.000000e+001
    endloop
  endfacet
  facet normal  0.000000e+000  -0.000000e+000  1.000000e+000
    outer loop
      vertex -2.500000e+001  2.500000e+001  5.000000e+001
      vertex -7.071068e+000  7.071068e+000  5.000000e+001
      vertex -3.826834e+000  9.238795e+000  5.000000e+001
    endloop
  endfacet
  facet normal  0.000000e+000  -0.000000e+000  1.000000e+000
    outer loop
      vertex -2.500000e+001  2.500000e+001  5.000000e+001
      vertex -3.826834e+000  9.238795e+000  5.000000e+001
      vertex  6.123234e-016  1.000000e+001  5.000000e+001
    endloop
  endfacet
  facet normal  0.000000e+000  -0.000000e+000  1.000000e+000
    outer loop
      vertex -2.500000e+001  2.500000e+001  5.000000e+001
      vertex  6.123234e-016  1.000000e+001  5.000000e+001
      vertex  2.500000e+001  2.500000e+001  5.000000e+001
    endloop
  endfacet
  facet normal  0.000000e+000  0.000000e+000  1.000000e+000
    outer loop
      vertex -2.500000e+001 -2.500000e+001  5.000000e+001
      vertex  2.500000e+001 -2.500000e+001  5.000000e+001
      vertex -1.836970e-015 -1.000000e+001  5.000000e+001
    endloop
  endfacet
  facet normal  0.000000e+000  0.000000e+000  1.000000e+000
    outer loop
      vertex -2.500000e+001 -2.500000e+001  5.000000e+001
      vertex -1.836970e-015 -1.000000e+001  5.000000e+001
      vertex -3.826834e+000 -9.238795e+000  5.000000e+001
    endloop
  endfacet
  facet normal  0.000000e+000  0.000000e+000  1.000000e+000
    outer loop
      vertex -2.500000e+001 -2.500000e+001  5.000000e+001
      vertex -3.826834e+000 -9.238795e+000  5.000000e+001
      vertex -7.071068e+000 -7.071068e+000  5.000000e+001
    endloop
  endfacet
  facet normal  0.000000e+000  0.000000e+000  1.000000e+000
    outer loop
      vertex -2.500000e+001 -2.500000e+001  5.000000e+001
      vertex -7.071068e+000 -7.071068e+000  5.000000e+001
      vertex -9.238795e+000 -3.826834e+000  5.000000e+001
    endloop
  endfacet
  facet normal  0.000000e+000  0.000000e+000  1.000000e+000
    outer loop
      vertex -2.500000e+001 -2.500000e+001  5.000000e+001
      vertex -9.238795e+000 -3.826834e+000  5.000000e+001
      vertex -1.000000e+001  1.224647e-015  5.000000e+001
    endloop
  endfacet
  facet normal  0.000000e+000  -0.000000e+000  1.000000e+000
    outer loop
      vertex -2.500000e+001 -2.500000e+001  5.000000e+001
      vertex -1.000000e+001  1.224647e-015  5.000000e+001
      vertex -9.238795e+000  3.826834e+000  5.000000e+001
    endloop
  endfacet
  facet normal  0.000000e+000  0.000000e+000  1.000000e+000
    outer loop
      vertex  2.500000e+001 -2.500000e+001  5.000000e+001
      vertex  9.238795e+000  3.826834e+000  5.000000e+001
      vertex  1.000000e+001  0.000000e+000  5.000000e+001
    endloop
  endfacet
  facet normal  0.000000e+000  0.000000e+000  1.000000e+000
    outer loop
      vertex  2.500000e+001 -2.500000e+001  5.000000e+001
      vertex  1.000000e+001  0.000000e+000  5.000000e+001
      vertex  9.238795e+000 -3.826834e+000  5.000000e+001
    endloop
  endfacet
  facet normal  0.000000e+000  0.000000e+000  1.000000e+000
    outer loop
      vertex  2.500000e+001 -2.500000e+001  5.000000e+001
      vertex  9.238795e+000 -3.826834e+000  5.000000e+001
      vertex  7.071068e+000 -7.071068e+000  5.000000e+001
    endloop
  endfacet
  facet normal  0.000000e+000  0.000000e+000  1.000000e+000
    outer loop
      vertex  2.500000e+001 -2.500000e+001  5.000000e+001
      vertex  7.071068e+000 -7.071068e+000  5.000000e+001
      vertex  3.826834e+000 -9.238795e+000  5.000000e+001
    endloop
  endfacet
  facet normal  0.000000e+000  0.000000e+000  1.000000e+000
    outer loop
      vertex  2.500000e+001 -2.500000e+001  5.000000e+001
      vertex  3.826834e+000 -9.238795e+000  5.000000e+001
      vertex -1.836970e-015 -1.000000e+001  5.000000e+001
    endloop
  endfacet
  facet normal  -0.000000e+000  0.000000e+000  1.000000e+000
    outer loop
      vertex  2.500000e+001  2.500000e+001  5.000000e+001
      vertex  6.123234e-016  1.000000e+001  5.000000e+001
      vertex  3.826834e+000  9.238795e+000  5.000000e+001
    endloop
  endfacet
  facet normal  -0.000000e+000  0.000000e+000  1.000000e+000
    outer loop
      vertex  2.500000e+001  2.500000e+001  5.000000e+001
      vertex  3.826834e+000  9.238795e+000  5.000000e+001
      vertex  7.071068e+000  7.071068e+000  5.000000e+001
    endloop
  endfacet
  facet normal  -0.000000e+000  0.000000e+000  1.000000e+000
    outer loop
      vertex  2.500000e+001  2.500000e+001  5.000000e+001
      vertex  7.071068e+000  7.071068e+000  5.000000e+001
      vertex  9.238795e+000  3.826834e+000  5.000000e+001
    endloop
  endfacet
  facet normal  -0.000000e+000  0.000000e+000  1.000000e+000
    outer loop
      vertex  2.500000e+001  2.500000e+001  5.000000e+001
      vertex  9.238795e+000  3.826834e+000  5.000000e+001
      vertex  2.500000e+001 -2.500000e+001  5.000000e+001
    endloop
  endfacet
  facet normal  -0.000000e+000  0.000000e+000 -9.999999e-001
    outer loop
      vertex -4.500000e+001  4.500000e+001 -2.000000e+001
      vertex  4.500000e+001  4.500000e+001 -2.000000e+001
      vertex  1.371976e-014  1.000000e+001 -2.000000e+001
    endloop
  endfacet
  facet normal  -0.000000e+000  0.000000e+000 -1.000000e+000
    outer loop
      vertex -4.500000e+001  4.500000e+001 -2.000000e+001
      vertex  1.371976e-014  1.000000e+001 -2.000000e+001
      vertex -3.826834e+000  9.238795e+000 -2.000000e+001
    endloop
  endfacet
  facet normal  -0.000000e+000  0.000000e+000 -9.999999e-001
    outer loop
      vertex -4.500000e+001  4.500000e+001 -2.000000e+001
      vertex -3.826834e+000  9.238795e+000 -2.000000e+001
      vertex -7.071068e+000  7.071068e+000 -2.000000e+001
    endloop
  endfacet
  facet normal  -0.000000e+000  0.000000e+000 -9.999999e-001
    outer loop
      vertex -4.500000e+001  4.500000e+001 -2.000000e+001
      vertex -7.071068e+000  7.071068e+000 -2.000000e+001
      vertex -4.500000e+001 -4.500000e+001 -2.000000e+001
    endloop
  endfacet
  facet normal  0.000000e+000  0.000000e+000 -1.000000e+000
    outer loop
      vertex -4.500000e+001 -4.500000e+001 -2.000000e+001
      vertex -7.071068e+000  7.071068e+000 -2.000000e+001
      vertex -9.238795e+000  3.826834e+000 -2.000000e+001
    endloop
  endfacet
  facet normal  0.000000e+000  0.000000e+000 -1.000000e+000
    outer loop
      vertex -4.500000e+001 -4.500000e+001 -2.000000e+001
      vertex -9.238795e+000  3.826834e+000 -2.000000e+001
      vertex -1.000000e+001  1.224647e-015 -2.000000e+001
    endloop
  endfacet
  facet normal  0.000000e+000  -0.000000e+000 -1.000000e+000
    outer loop
      vertex -4.500000e+001 -4.500000e+001 -2.000000e+001
      vertex -1.000000e+001  1.224647e-015 -2.000000e+001
      vertex -9.238795e+000 -3.826834e+000 -2.000000e+001
    endloop
  endfacet
  facet normal  0.000000e+000  -0.000000e+000 -9.999999e-001
    outer loop
      vertex -4.500000e+001 -4.500000e+001 -2.000000e+001
      vertex -9.238795e+000 -3.826834e+000 -2.000000e+001
      vertex -7.071068e+000 -7.071068e+000 -2.000000e+001
    endloop
  endfacet
  facet normal  0.000000e+000  -0.000000e+000 -9.999999e-001
    outer loop
      vertex -4.500000e+001 -4.500000e+001 -2.000000e+001
      vertex -7.071068e+000 -7.071068e+000 -2.000000e+001
      vertex -3.826834e+000 -9.238795e+000 -2.000000e+001
    endloop
  endfacet
  facet normal  0.000000e+000  -0.000000e+000 -1.000000e+000
    outer loop
      vertex -4.500000e+001 -4.500000e+001 -2.000000e+001
      vertex -3.826834e+000 -9.238795e+000 -2.000000e+001
      vertex -3.613327e-015 -1.000000e+001 -2.000000e+001
    endloop
  endfacet
  facet normal  0.000000e+000  -0.000000e+000 -9.999999e-001
    outer loop
      vertex -4.500000e+001 -4.500000e+001 -2.000000e+001
      vertex -3.613327e-015 -1.000000e+001 -2.000000e+001
      vertex  4.500000e+001 -4.500000e+001 -2.000000e+001
    endloop
  endfacet
  facet normal  0.000000e+000  0.000000e+000 -1.000000e+000
    outer loop
      vertex  4.500000e+001 -4.500000e+001 -2.000000e+001
      vertex -3.613327e-015 -1.000000e+001 -2.000000e+001
      vertex  3.826834e+000 -9.238795e+000 -2.000000e+001
    endloop
  endfacet
  facet normal  0.000000e+000  0.000000e+000 -9.999999e-001
    outer loop
      vertex  4.500000e+001 -4.500000e+001 -2.000000e+001
      vertex  3.826834e+000 -9.238795e+000 -2.000000e+001
      vertex  7.071068e+000 -7.071068e+000 -2.000000e+001
    endloop
  endfacet
  facet normal  0.000000e+000  0.000000e+000 -9.999999e-001
    outer loop
      vertex  4.500000e+001 -4.500000e+001 -2.000000e+001
      vertex  7.071068e+000 -7.071068e+000 -2.000000e+001
      vertex  9.238795e+000 -3.826834e+000 -2.000000e+001
    endloop
  endfacet
  facet normal  0.000000e+000  0.000000e+000 -1.000000e+000
    outer loop
      vertex  4.500000e+001 -4.500000e+001 -2.000000e+001
      vertex  9.238795e+000 -3.826834e+000 -2.000000e+001
      vertex  1.000000e+001  0.000000e+000 -2.000000e+001
    endloop
  endfacet
  facet normal  0.000000e+000  0.000000e+000 -1.000000e+000
    outer loop
      vertex  4.500000e+001 -4.500000e+001 -2.000000e+001
      vertex  1.000000e+001  0.000000e+000 -2.000000e+001
      vertex  9.238795e+000  3.826834e+000 -2.000000e+001
    endloop
  endfacet
  facet normal  0.000000e+000  0.000000e+000 -1.000000e+000
    outer loop
      vertex  4.500000e+001 -4.500000e+001 -2.000000e+001
      vertex  9.238795e+000  3.826834e+000 -2.000000e+001
      vertex  7.071068e+000  7.071068e+000 -2.000000e+001
    endloop
  endfacet
  facet normal  0.000000e+000  0.000000e+000 -9.999999e-001
    outer loop
      vertex  4.500000e+001  4.500000e+001 -2.000000e+001
      vertex  4.500000e+001 -4.500000e+001 -2.000000e+001
      vertex  7.071068e+000  7.071068e+000 -2.000000e+001
    endloop
  endfacet
  facet normal  0.000000e+000  0.000000e+000 -9.999999e-001
    outer loop
      vertex  4.500000e+001  4.500000e+001 -2.000000e+001
      vertex  7.071068e+000  7.071068e+000 -2.000000e+001
      vertex  3.826834e+000  9.238795e+000 -2.000000e+001
    endloop
  endfacet
  facet normal  0.000000e+000  0.000000e+000 -1.000000e+000
    outer loop
      vertex  4.500000e+001  4.500000e+001 -2.000000e+001
      vertex  3.826834e+000  9.238795e+000 -2.000000e+001
      vertex  1.371976e-014  1.000000e+001 -2.000000e+001
    endloop
  endfacet
  facet normal  1.950903e-001 -9.807853e-001  0.000000e+000
    outer loop
      vertex  1.371976e-014  1.000000e+001 -2.000000e+001
      vertex -3.826834e+000  9.238795e+000  5.000000e+001
      vertex -3.826834e+000  9.238795e+000 -2.000000e+001
    endloop
  endfacet
  facet normal  5.555702e-001 -8.314696e-001  0.000000e+000
    outer loop
      vertex -3.826834e+000  9.238795e+000 -2.000000e+001
      vertex -3.826834e+000  9.238795e+000  5.000000e+001
      vertex -7.071068e+000  7.071068e+000  5.000000e+001
    endloop
  endfacet
  facet normal  5.555702e-001 -8.314696e-001  0.000000e+000
    outer loop
      vertex -3.826834e+000  9.238795e+000 -2.000000e+001
      vertex -7.071068e+000  7.071068e+000  5.000000e+001
      vertex -7.071068e+000  7.071068e+000 -2.000000e+001
    endloop
  endfacet
  facet normal  8.314696e-001 -5.555702e-001  0.000000e+000
    outer loop
      vertex -7.071068e+000  7.071068e+000 -2.000000e+001
      vertex -7.071068e+000  7.071068e+000  5.000000e+001
      vertex -9.238795e+000  3.826834e+000  5.000000e+001
    endloop
  endfacet
  facet normal  8.314696e-001 -5.555702e-001  0.000000e+000
    outer loop
      vertex -7.071068e+000  7.071068e+000 -2.000000e+001
      vertex -9.238795e+000  3.826834e+000  5.000000e+001
      vertex -9.238795e+000  3.826834e+000 -2.000000e+001
    endloop
  endfacet
  facet normal  9.807853e-001 -1.950903e-001  0.000000e+000
    outer loop
      vertex -9.238795e+000  3.826834e+000 -2.000000e+001
      vertex -9.238795e+000  3.826834e+000  5.000000e+001
      vertex -1.000000e+001  1.224647e-015  5.000000e+001
    endloop
  endfacet
  facet normal  9.807853e-001 -1.950903e-001  0.000000e+000
    outer loop
      vertex -9.238795e+000  3.826834e+000 -2.000000e+001
      vertex -1.000000e+001  1.224647e-015  5.000000e+001
      vertex -1.000000e+001  1.224647e-015 -2.000000e+001
    endloop
  endfacet
  facet normal  1.950903e-001 -9.807853e-001  3.653048e-017
    outer loop
      vertex -3.826834e+000  9.238795e+000  5.000000e+001
      vertex  1.371976e-014  1.000000e+001 -2.000000e+001
      vertex  6.123234e-016  1.000000e+001  5.000000e+001
    endloop
  endfacet
  facet normal -1.950903e-001 -9.807853e-001 -3.653048e-017
    outer loop
      vertex  6.123234e-016  1.000000e+001  5.000000e+001
      vertex  1.371976e-014  1.000000e+001 -2.000000e+001
      vertex  3.826834e+000  9.238795e+000 -2.000000e+001
    endloop
  endfacet
  facet normal -1.950903e-001 -9.807853e-001  0.000000e+000
    outer loop
      vertex  6.123234e-016  1.000000e+001  5.000000e+001
      vertex  3.826834e+000  9.238795e+000 -2.000000e+001
      vertex  3.826834e+000  9.238795e+000  5.000000e+001
    endloop
  endfacet
  facet normal -5.555702e-001 -8.314696e-001  -0.000000e+000
    outer loop
      vertex  3.826834e+000  9.238795e+000  5.000000e+001
      vertex  3.826834e+000  9.238795e+000 -2.000000e+001
      vertex  7.071068e+000  7.071068e+000 -2.000000e+001
    endloop
  endfacet
  facet normal -5.555702e-001 -8.314696e-001  0.000000e+000
    outer loop
      vertex  3.826834e+000  9.238795e+000  5.000000e+001
      vertex  7.071068e+000  7.071068e+000 -2.000000e+001
      vertex  7.071068e+000  7.071068e+000  5.000000e+001
    endloop
  endfacet
  facet normal -8.314696e-001 -5.555702e-001  -0.000000e+000
    outer loop
      vertex  7.071068e+000  7.071068e+000  5.000000e+001
      vertex  7.071068e+000  7.071068e+000 -2.000000e+001
      vertex  9.238795e+000  3.826834e+000 -2.000000e+001
    endloop
  endfacet
  facet normal -8.314696e-001 -5.555702e-001  0.000000e+000
    outer loop
      vertex  7.071068e+000  7.071068e+000  5.000000e+001
      vertex  9.238795e+000  3.826834e+000 -2.000000e+001
      vertex  9.238795e+000  3.826834e+000  5.000000e+001
    endloop
  endfacet
  facet normal -9.807853e-001 -1.950903e-001  -0.000000e+000
    outer loop
      vertex  9.238795e+000  3.826834e+000  5.000000e+001
      vertex  9.238795e+000  3.826834e+000 -2.000000e+001
      vertex  1.000000e+001  0.000000e+000 -2.000000e+001
    endloop
  endfacet
  facet normal -9.807853e-001 -1.950903e-001  0.000000e+000
    outer loop
      vertex  9.238795e+000  3.826834e+000  5.000000e+001
      vertex  1.000000e+001  0.000000e+000 -2.000000e+001
      vertex  1.000000e+001  0.000000e+000  5.000000e+001
    endloop
  endfacet
  facet normal -1.950903e-001  9.807853e-001  0.000000e+000
    outer loop
      vertex -3.613327e-015 -1.000000e+001 -2.000000e+001
      vertex  3.826834e+000 -9.238795e+000  5.000000e+001
      vertex  3.826834e+000 -9.238795e+000 -2.000000e+001
    endloop
  endfacet
  facet normal -5.555702e-001  8.314696e-001  0.000000e+000
    outer loop
      vertex  3.826834e+000 -9.238795e+000 -2.000000e+001
      vertex  3.826834e+000 -9.238795e+000  5.000000e+001
      vertex  7.071068e+000 -7.071068e+000  5.000000e+001
    endloop
  endfacet
  facet normal -5.555702e-001  8.314696e-001  0.000000e+000
    outer loop
      vertex  3.826834e+000 -9.238795e+000 -2.000000e+001
      vertex  7.071068e+000 -7.071068e+000  5.000000e+001
      vertex  7.071068e+000 -7.071068e+000 -2.000000e+001
    endloop
  endfacet
  facet normal -8.314696e-001  5.555702e-001  0.000000e+000
    outer loop
      vertex  7.071068e+000 -7.071068e+000 -2.000000e+001
      vertex  7.071068e+000 -7.071068e+000  5.000000e+001
      vertex  9.238795e+000 -3.826834e+000  5.000000e+001
    endloop
  endfacet
  facet normal -8.314696e-001  5.555702e-001  0.000000e+000
    outer loop
      vertex  7.071068e+000 -7.071068e+000 -2.000000e+001
      vertex  9.238795e+000 -3.826834e+000  5.000000e+001
      vertex  9.238795e+000 -3.826834e+000 -2.000000e+001
    endloop
  endfacet
  facet normal -9.807853e-001  1.950903e-001  0.000000e+000
    outer loop
      vertex  9.238795e+000 -3.826834e+000 -2.000000e+001
      vertex  9.238795e+000 -3.826834e+000  5.000000e+001
      vertex  1.000000e+001  0.000000e+000  5.000000e+001
    endloop
  endfacet
  facet normal -9.807853e-001  1.950903e-001  0.000000e+000
    outer loop
      vertex  9.238795e+000 -3.826834e+000 -2.000000e+001
      vertex  1.000000e+001  0.000000e+000  5.000000e+001
      vertex  1.000000e+001  0.000000e+000 -2.000000e+001
    endloop
  endfacet
  facet normal -1.950903e-001  9.807853e-001  4.950714e-018
    outer loop
      vertex  3.826834e+000 -9.238795e+000  5.000000e+001
      vertex -3.613327e-015 -1.000000e+001 -2.000000e+001
      vertex -1.836970e-015 -1.000000e+001  5.000000e+001
    endloop
  endfacet
  facet normal  1.950903e-001  9.807853e-001 -4.950714e-018
    outer loop
      vertex -1.836970e-015 -1.000000e+001  5.000000e+001
      vertex -3.613327e-015 -1.000000e+001 -2.000000e+001
      vertex -3.826834e+000 -9.238795e+000 -2.000000e+001
    endloop
  endfacet
  facet normal  1.950903e-001  9.807853e-001  -0.000000e+000
    outer loop
      vertex -1.836970e-015 -1.000000e+001  5.000000e+001
      vertex -3.826834e+000 -9.238795e+000 -2.000000e+001
      vertex -3.826834e+000 -9.238795e+000  5.000000e+001
    endloop
  endfacet
  facet normal  5.555702e-001  8.314696e-001  0.000000e+000
    outer loop
      vertex -3.826834e+000 -9.238795e+000  5.000000e+001
      vertex -3.826834e+000 -9.238795e+000 -2.000000e+001
      vertex -7.071068e+000 -7.071068e+000 -2.000000e+001
    endloop
  endfacet
  facet normal  5.555702e-001  8.314696e-001  -0.000000e+000
    outer loop
      vertex -3.826834e+000 -9.238795e+000  5.000000e+001
      vertex -7.071068e+000 -7.071068e+000 -2.000000e+001
      vertex -7.071068e+000 -7.071068e+000  5.000000e+001
    endloop
  endfacet
  facet normal  8.314696e-001  5.555702e-001  0.000000e+000
    outer loop
      vertex -7.071068e+000 -7.071068e+000  5.000000e+001
      vertex -7.071068e+000 -7.071068e+000 -2.000000e+001
      vertex -9.238795e+000 -3.826834e+000 -2.000000e+001
    endloop
  endfacet
  facet normal  8.314696e-001  5.555702e-001  -0.000000e+000
    outer loop
      vertex -7.071068e+000 -7.071068e+000  5.000000e+001
      vertex -9.238795e+000 -3.826834e+000 -2.000000e+001
      vertex -9.238795e+000 -3.826834e+000  5.000000e+001
    endloop
  endfacet
  facet normal  9.807853e-001  1.950903e-001  0.000000e+000
    outer loop
      vertex -9.238795e+000 -3.826834e+000  5.000000e+001
      vertex -9.238795e+000 -3.826834e+000 -2.000000e+001
      vertex -1.000000e+001  1.224647e-015 -2.000000e+001
    endloop
  endfacet
  facet normal  9.807853e-001  1.950903e-001  -0.000000e+000
    outer loop
      vertex -9.238795e+000 -3.826834e+000  5.000000e+001
      vertex -1.000000e+001  1.224647e-015 -2.000000e+001
      vertex -1.000000e+001  1.224647e-015  5.000000e+001
    endloop
  endfacet
  facet normal  0.000000e+000  0.000000e+000  1.000000e+000
    outer loop
      vertex  4.500000e+001 -4.500000e+001  0.000000e+000
      vertex  2.500000e+001 -2.500000e+001  0.000000e+000
      vertex -4.500000e+001 -4.500000e+001  0.000000e+000
    endloop
  endfacet
  facet normal  0.000000e+000  0.000000e+000  1.000000e+000
    outer loop
      vertex -4.500000e+001 -4.500000e+001  0.000000e+000
      vertex  2.500000e+001 -2.500000e+001  0.000000e+000
      vertex -2.500000e+001 -2.500000e+001  0.000000e+000
    endloop
  endfacet
  facet normal  0.000000e+000  0.000000e+000  1.000000e+000
    outer loop
      vertex -4.500000e+001 -4.500000e+001  0.000000e+000
      vertex -2.500000e+001 -2.500000e+001  0.000000e+000
      vertex -4.500000e+001  4.500000e+001  0.000000e+000
    endloop
  endfacet
  facet normal  0.000000e+000  0.000000e+000  1.000000e+000
    outer loop
      vertex -4.500000e+001  4.500000e+001  0.000000e+000
      vertex -2.500000e+001 -2.500000e+001  0.000000e+000
      vertex -2.500000e+001  2.500000e+001  0.000000e+000
    endloop
  endfacet
  facet normal  0.000000e+000  -0.000000e+000  1.000000e+000
    outer loop
      vertex -4.500000e+001  4.500000e+001  0.000000e+000
      vertex -2.500000e+001  2.500000e+001  0.000000e+000
      vertex  4.500000e+001  4.500000e+001  0.000000e+000
    endloop
  endfacet
  facet normal  0.000000e+000  0.000000e+000  1.000000e+000
    outer loop
      vertex  4.500000e+001  4.500000e+001  0.000000e+000
      vertex -2.500000e+001  2.500000e+001  0.000000e+000
      vertex  2.500000e+001  2.500000e+001  0.000000e+000
    endloop
  endfacet
  facet normal  -0.000000e+000  0.000000e+000  1.000000e+000
    outer loop
      vertex  4.500000e+001  4.500000e+001  0.000000e+000
      vertex  2.500000e+001  2.500000e+001  0.000000e+000
      vertex  4.500000e+001 -4.500000e+001  0.000000e+000
    endloop
  endfacet
  facet normal  0.000000e+000  0.000000e+000  1.000000e+000
    outer loop
      vertex  4.500000e+001 -4.500000e+001  0.000000e+000
      vertex  2.500000e+001  2.500000e+001  0.000000e+000
      vertex  2.500000e+001 -2.500000e+001  0.000000e+000
    endloop
  endfacet
  facet normal  1.000000e+000  0.000000e+000  0.000000e+000
    outer loop
      vertex  2.500000e+001  2.500000e+001  0.000000e+000
      vertex  2.500000e+001  2.500000e+001  5.000000e+001
      vertex  2.500000e+001 -2.500000e+001  0.000000e+000
    endloop
  endfacet
  facet normal  1.000000e+000  0.000000e+000  0.000000e+000
    outer loop
      vertex  2.500000e+001 -2.500000e+001  0.000000e+000
      vertex  2.500000e+001  2.500000e+001  5.000000e+001
      vertex  2.500000e+001 -2.500000e+001  5.000000e+001
    endloop
  endfacet
  facet normal  0.000000e+000 -1.000000e+000  -0.000000e+000
    outer loop
      vertex  2.500000e+001 -2.500000e+001  0.000000e+000
      vertex  2.500000e+001 -2.500000e+001  5.000000e+001
      vertex -2.500000e+001 -2.500000e+001  0.000000e+000
    endloop
  endfacet
  facet normal  0.000000e+000 -1.000000e+000  0.000000e+000
    outer loop
      vertex -2.500000e+001 -2.500000e+001  0.000000e+000
      vertex  2.500000e+001 -2.500000e+001  5.000000e+001
      vertex -2.500000e+001 -2.500000e+001  5.000000e+001
    endloop
  endfacet
  facet normal -1.000000e+000  0.000000e+000  0.000000e+000
    outer loop
      vertex -2.500000e+001 -2.500000e+001  0.000000e+000
      vertex -2.500000e+001 -2.500000e+001  5.000000e+001
      vertex -2.500000e+001  2.500000e+001  0.000000e+000
    endloop
  endfacet
  facet normal -1.000000e+000  0.000000e+000  0.000000e+000
    outer loop
      vertex -2.500000e+001  2.500000e+001  0.000000e+000
      vertex -2.500000e+001 -2.500000e+001  5.000000e+001
      vertex -2.500000e+001  2.500000e+001  5.000000e+001
    endloop
  endfacet
  facet normal  0.000000e+000  1.000000e+000  0.000000e+000
    outer loop
      vertex -2.500000e+001  2.500000e+001  0.000000e+000
      vertex -2.500000e+001  2.500000e+001  5.000000e+001
      vertex  2.500000e+001  2.500000e+001  0.000000e+000
    endloop
  endfacet
  facet normal  0.000000e+000  1.000000e+000  -0.000000e+000
    outer loop
      vertex  2.500000e+001  2.500000e+001  0.000000e+000
      vertex -2.500000e+001  2.500000e+001  5.000000e+001
      vertex  2.500000e+001  2.500000e+001  5.000000e+001
    endloop
  endfacet
  facet normal  1.000000e+000  0.000000e+000  0.000000e+000
    outer loop
      vertex  4.500000e+001  4.500000e+001 -2.000000e+001
      vertex  4.500000e+001  4.500000e+001  0.000000e+000
      vertex  4.500000e+001 -4.500000e+001 -2.000000e+001
    endloop
  endfacet
  facet normal  1.000000e+000  0.000000e+000  0.000000e+000
    outer loop
      vertex  4.500000e+001 -4.500000e+001 -2.000000e+001
      vertex  4.500000e+001  4.500000e+001  0.000000e+000
      vertex  4.500000e+001 -4.500000e+001  0.000000e+000
    endloop
  endfacet
  facet normal  0.000000e+000 -1.000000e+000  -0.000000e+000
    outer loop
      vertex  4.500000e+001 -4.500000e+001 -2.000000e+001
      vertex  4.500000e+001 -4.500000e+001  0.000000e+000
      vertex -4.500000e+001 -4.500000e+001 -2.000000e+001
    endloop
  endfacet
  facet normal  0.000000e+000 -1.000000e+000  0.000000e+000
    outer loop
      vertex -4.500000e+001 -4.500000e+001 -2.000000e+001
      vertex  4.500000e+001 -4.500000e+001  0.000000e+000
      vertex -4.500000e+001 -4.500000e+001  0.000000e+000
    endloop
  endfacet
  facet normal -1.000000e+000  0.000000e+000  0.000000e+000
    outer loop
      vertex -4.500000e+001 -4.500000e+001 -2.000000e+001
      vertex -4.500000e+001 -4.500000e+001  0.000000e+000
      vertex -4.500000e+001  4.500000e+001 -2.000000e+001
    endloop
  endfacet
  facet normal -1.000000e+000  0.000000e+000  0.000000e+000
    outer loop
      vertex -4.500000e+001  4.500000e+001 -2.000000e+001
      vertex -4.500000e+001 -4.500000e+001  0.000000e+000
      vertex -4.500000e+001  4.500000e+001  0.000000e+000
    endloop
  endfacet
  facet normal  0.000000e+000  1.000000e+000  0.000000e+000
    outer loop
      vertex -4.500000e+001  4.500000e+001 -2.000000e+001
      vertex -4.500000e+001  4.500000e+001  0.000000e+000
      vertex  4.500000e+001  4.500000e+001 -2.000000e+001
    endloop
  endfacet
  facet normal  0.000000e+000  1.000000e+000  -0.000000e+000
    outer loop
      vertex  4.500000e+001  4.500000e+001 -2.000000e+001
      vertex -4.500000e+001  4.500000e+001  0.000000e+000
      vertex  4.500000e+001  4.500000e+001  0.000000e+000
    endloop
  endfacet
endsolid CATIA STL
