solid CATIA STL
  facet normal  0.000000e+000  0.000000e+000  1.000000e+000
    outer loop
      vertex -3.013416e+000 -2.481771e+001  7.000000e+001
      vertex  3.013416e+000 -2.481771e+001  7.000000e+001
      vertex -8.865120e+000 -2.337539e+001  7.000000e+001
    endloop
  endfacet
  facet normal  -0.000000e+000  0.000000e+000  9.999999e-001
    outer loop
      vertex -8.865120e+000 -2.337539e+001  7.000000e+001
      vertex  3.013416e+000 -2.481771e+001  7.000000e+001
      vertex  8.865120e+000 -2.337539e+001  7.000000e+001
    endloop
  endfacet
  facet normal  0.000000e+000  0.000000e+000  1.000000e+000
    outer loop
      vertex -8.865120e+000 -2.337539e+001  7.000000e+001
      vertex  8.865120e+000 -2.337539e+001  7.000000e+001
      vertex -1.420162e+001 -2.057459e+001  7.000000e+001
    endloop
  endfacet
  facet normal  -0.000000e+000  0.000000e+000  1.000000e+000
    outer loop
      vertex -1.420162e+001 -2.057459e+001  7.000000e+001
      vertex  8.865120e+000 -2.337539e+001  7.000000e+001
      vertex  1.420162e+001 -2.057459e+001  7.000000e+001
    endloop
  endfacet
  facet normal  0.000000e+000  0.000000e+000  9.999999e-001
    outer loop
      vertex -1.420162e+001 -2.057459e+001  7.000000e+001
      vertex  1.420162e+001 -2.057459e+001  7.000000e+001
      vertex -1.871276e+001 -1.657806e+001  7.000000e+001
    endloop
  endfacet
  facet normal  -0.000000e+000  0.000000e+000  1.000000e+000
    outer loop
      vertex -1.871276e+001 -1.657806e+001  7.000000e+001
      vertex  1.420162e+001 -2.057459e+001  7.000000e+001
      vertex  1.871276e+001 -1.657806e+001  7.000000e+001
    endloop
  endfacet
  facet normal  0.000000e+000  0.000000e+000  1.000000e+000
    outer loop
      vertex -1.871276e+001 -1.657806e+001  7.000000e+001
      vertex  1.871276e+001 -1.657806e+001  7.000000e+001
      vertex -2.213640e+001 -1.161807e+001  7.000000e+001
    endloop
  endfacet
  facet normal  -0.000000e+000  0.000000e+000  1.000000e+000
    outer loop
      vertex -2.213640e+001 -1.161807e+001  7.000000e+001
      vertex  1.871276e+001 -1.657806e+001  7.000000e+001
      vertex  2.213640e+001 -1.161807e+001  7.000000e+001
    endloop
  endfacet
  facet normal  0.000000e+000  0.000000e+000  1.000000e+000
    outer loop
      vertex -2.213640e+001 -1.161807e+001  7.000000e+001
      vertex  2.213640e+001 -1.161807e+001  7.000000e+001
      vertex -2.427354e+001 -5.982890e+000  7.000000e+001
    endloop
  endfacet
  facet normal  -0.000000e+000  0.000000e+000  1.000000e+000
    outer loop
      vertex -2.427354e+001 -5.982890e+000  7.000000e+001
      vertex  2.213640e+001 -1.161807e+001  7.000000e+001
      vertex  2.427354e+001 -5.982890e+000  7.000000e+001
    endloop
  endfacet
  facet normal  0.000000e+000  1.275202e-006  1.000000e+000
    outer loop
      vertex -2.427354e+001 -5.982890e+000  7.000000e+001
      vertex  2.427354e+001 -5.982890e+000  7.000000e+001
      vertex -2.499998e+001 -7.174084e-011  6.999999e+001
    endloop
  endfacet
  facet normal -1.525880e-007  1.852757e-008  1.000000e+000
    outer loop
      vertex -2.499998e+001 -7.174084e-011  6.999999e+001
      vertex  2.427354e+001 -5.982890e+000  7.000000e+001
      vertex  2.500000e+001  1.438849e-013  7.000000e+001
    endloop
  endfacet
  facet normal -1.525880e-007  1.732036e-008  1.000000e+000
    outer loop
      vertex -2.499998e+001 -7.174084e-011  6.999999e+001
      vertex  2.500000e+001  1.438849e-013  7.000000e+001
      vertex -2.436395e+001  5.603214e+000  6.999999e+001
    endloop
  endfacet
  facet normal  1.600636e-006  1.546311e-005  1.000000e+000
    outer loop
      vertex -2.436395e+001  5.603214e+000  6.999999e+001
      vertex  2.500000e+001  1.438849e-013  7.000000e+001
      vertex  2.438931e+001  5.490540e+000  6.999992e+001
    endloop
  endfacet
  facet normal  1.563625e-006 -5.514877e-007  1.000000e+000
    outer loop
      vertex -2.436395e+001  5.603214e+000  6.999999e+001
      vertex  2.438931e+001  5.490540e+000  6.999992e+001
      vertex -2.248826e+001  1.092133e+001  6.999999e+001
    endloop
  endfacet
  facet normal  1.695258e-006  5.847459e-007  1.000000e+000
    outer loop
      vertex -2.248826e+001  1.092133e+001  6.999999e+001
      vertex  2.438931e+001  5.490540e+000  6.999992e+001
      vertex  2.258793e+001  1.071297e+001  6.999992e+001
    endloop
  endfacet
  facet normal  1.687608e-006 -1.070132e-006  9.999999e-001
    outer loop
      vertex -2.248826e+001  1.092133e+001  6.999999e+001
      vertex  2.258793e+001  1.071297e+001  6.999992e+001
      vertex -1.946835e+001  1.568375e+001  6.999999e+001
    endloop
  endfacet
  facet normal  1.957050e-006  1.209524e-006  1.000000e+000
    outer loop
      vertex -1.946835e+001  1.568375e+001  6.999999e+001
      vertex  2.258793e+001  1.071297e+001  6.999992e+001
      vertex  1.968360e+001  1.541228e+001  6.999992e+001
    endloop
  endfacet
  facet normal  1.935089e-006 -1.957569e-006  1.000000e+000
    outer loop
      vertex -1.946835e+001  1.568375e+001  6.999999e+001
      vertex  1.968360e+001  1.541228e+001  6.999992e+001
      vertex -1.545788e+001  1.964817e+001  6.999999e+001
    endloop
  endfacet
  facet normal  2.461668e-006  2.410987e-006  1.000000e+000
    outer loop
      vertex -1.545788e+001  1.964817e+001  6.999999e+001
      vertex  1.968360e+001  1.541228e+001  6.999992e+001
      vertex  1.581812e+001  1.935901e+001  6.999992e+001
    endloop
  endfacet
  facet normal  2.403423e-006 -3.888824e-006  1.000000e+000
    outer loop
      vertex -1.545788e+001  1.964817e+001  6.999999e+001
      vertex  1.581812e+001  1.935901e+001  6.999992e+001
      vertex -1.066089e+001  2.261287e+001  6.999999e+001
    endloop
  endfacet
  facet normal -2.988376e-007 -2.587908e-005  1.000000e+000
    outer loop
      vertex -1.066089e+001  2.261287e+001  6.999999e+001
      vertex  1.581812e+001  1.935901e+001  6.999992e+001
      vertex  1.118033e+001  2.236066e+001  6.999999e+001
    endloop
  endfacet
  facet normal  0.000000e+000  0.000000e+000  9.999999e-001
    outer loop
      vertex -1.066089e+001  2.261287e+001  6.999999e+001
      vertex  1.118033e+001  2.236066e+001  6.999999e+001
      vertex -5.321463e+000  2.442701e+001  6.999999e+001
    endloop
  endfacet
  facet normal  0.000000e+000  0.000000e+000  9.999999e-001
    outer loop
      vertex -5.321463e+000  2.442701e+001  6.999999e+001
      vertex  1.118033e+001  2.236066e+001  6.999999e+001
      vertex  5.884223e+000  2.429761e+001  6.999999e+001
    endloop
  endfacet
  facet normal  0.000000e+000  0.000000e+000  1.000000e+000
    outer loop
      vertex -5.321463e+000  2.442701e+001  6.999999e+001
      vertex  5.884223e+000  2.429761e+001  6.999999e+001
      vertex  2.887234e-001  2.499828e+001  6.999999e+001
    endloop
  endfacet
  facet normal  0.000000e+000  0.000000e+000 -9.999999e-001
    outer loop
      vertex  2.842171e-014 -4.999999e+001  1.651457e-015
      vertex -8.682407e+000 -4.924038e+001  1.651457e-015
      vertex  8.682407e+000 -4.924038e+001  1.651457e-015
    endloop
  endfacet
  facet normal  0.000000e+000  0.000000e+000 -1.000000e+000
    outer loop
      vertex  8.682407e+000 -4.924038e+001  1.651457e-015
      vertex -8.682407e+000 -4.924038e+001  1.651457e-015
      vertex -1.710101e+001 -4.698462e+001  1.651457e-015
    endloop
  endfacet
  facet normal  0.000000e+000  0.000000e+000 -1.000000e+000
    outer loop
      vertex  8.682407e+000 -4.924038e+001  1.651457e-015
      vertex -1.710101e+001 -4.698462e+001  1.651457e-015
      vertex  1.710101e+001 -4.698462e+001  1.651457e-015
    endloop
  endfacet
  facet normal  0.000000e+000  0.000000e+000 -9.999999e-001
    outer loop
      vertex  1.710101e+001 -4.698462e+001  1.651457e-015
      vertex -1.710101e+001 -4.698462e+001  1.651457e-015
      vertex -2.500000e+001 -4.330126e+001  1.651457e-015
    endloop
  endfacet
  facet normal  0.000000e+000  0.000000e+000 -1.000000e+000
    outer loop
      vertex  1.710101e+001 -4.698462e+001  1.651457e-015
      vertex -2.500000e+001 -4.330126e+001  1.651457e-015
      vertex  2.500000e+001 -4.330126e+001  1.651457e-015
    endloop
  endfacet
  facet normal  0.000000e+000  0.000000e+000 -9.999999e-001
    outer loop
      vertex  2.500000e+001 -4.330126e+001  1.651457e-015
      vertex -2.500000e+001 -4.330126e+001  1.651457e-015
      vertex -3.213938e+001 -3.830222e+001  1.651457e-015
    endloop
  endfacet
  facet normal  0.000000e+000  0.000000e+000 -1.000000e+000
    outer loop
      vertex  2.500000e+001 -4.330126e+001  1.651457e-015
      vertex -3.213938e+001 -3.830222e+001  1.651457e-015
      vertex  3.213938e+001 -3.830222e+001  1.651457e-015
    endloop
  endfacet
  facet normal  0.000000e+000  0.000000e+000 -9.999999e-001
    outer loop
      vertex  3.213938e+001 -3.830222e+001  1.651457e-015
      vertex -3.213938e+001 -3.830222e+001  1.651457e-015
      vertex -3.830222e+001 -3.213937e+001  1.651457e-015
    endloop
  endfacet
  facet normal  0.000000e+000  0.000000e+000 -9.999999e-001
    outer loop
      vertex  3.213938e+001 -3.830222e+001  1.651457e-015
      vertex -3.830222e+001 -3.213937e+001  1.651457e-015
      vertex  3.830222e+001 -3.213937e+001  1.651457e-015
    endloop
  endfacet
  facet normal  0.000000e+000  0.000000e+000 -1.000000e+000
    outer loop
      vertex  3.830222e+001 -3.213937e+001  1.651457e-015
      vertex -3.830222e+001 -3.213937e+001  1.651457e-015
      vertex -4.330127e+001 -2.499999e+001  1.651457e-015
    endloop
  endfacet
  facet normal  0.000000e+000  0.000000e+000 -1.000000e+000
    outer loop
      vertex  3.830222e+001 -3.213937e+001  1.651457e-015
      vertex -4.330127e+001 -2.499999e+001  1.651457e-015
      vertex  4.330127e+001 -2.499999e+001  1.651457e-015
    endloop
  endfacet
  facet normal  0.000000e+000  0.000000e+000 -1.000000e+000
    outer loop
      vertex  4.330127e+001 -2.499999e+001  1.651457e-015
      vertex -4.330127e+001 -2.499999e+001  1.651457e-015
      vertex -4.698463e+001 -1.710100e+001  1.651457e-015
    endloop
  endfacet
  facet normal  0.000000e+000  0.000000e+000 -1.000000e+000
    outer loop
      vertex  4.330127e+001 -2.499999e+001  1.651457e-015
      vertex -4.698463e+001 -1.710100e+001  1.651457e-015
      vertex  4.698463e+001 -1.710100e+001  1.651457e-015
    endloop
  endfacet
  facet normal  0.000000e+000  0.000000e+000 -1.000000e+000
    outer loop
      vertex  4.698463e+001 -1.710100e+001  1.651457e-015
      vertex -4.698463e+001 -1.710100e+001  1.651457e-015
      vertex -4.924039e+001 -8.682407e+000  1.651457e-015
    endloop
  endfacet
  facet normal  0.000000e+000  0.000000e+000 -9.999999e-001
    outer loop
      vertex  4.698463e+001 -1.710100e+001  1.651457e-015
      vertex -4.924039e+001 -8.682407e+000  1.651457e-015
      vertex  4.924039e+001 -8.682407e+000  1.651457e-015
    endloop
  endfacet
  facet normal  0.000000e+000  3.198779e-007 -1.000000e+000
    outer loop
      vertex  4.924039e+001 -8.682407e+000  1.651457e-015
      vertex -4.924039e+001 -8.682407e+000  1.651457e-015
      vertex -5.000001e+001  1.370459e-011  2.777310e-006
    endloop
  endfacet
  facet normal -2.777310e-008  2.429831e-009 -1.000000e+000
    outer loop
      vertex  4.924039e+001 -8.682407e+000  1.651457e-015
      vertex -5.000001e+001  1.370459e-011  2.777310e-006
      vertex  5.000000e+001  1.456613e-013 -5.040022e-015
    endloop
  endfacet
  facet normal -2.777310e-008  2.359998e-009 -1.000000e+000
    outer loop
      vertex  5.000000e+001  1.456613e-013 -5.040022e-015
      vertex -5.000001e+001  1.370459e-011  2.777310e-006
      vertex -4.928315e+001  8.436295e+000  2.777310e-006
    endloop
  endfacet
  facet normal  3.717369e-007  4.704022e-006 -1.000000e+000
    outer loop
      vertex  5.000000e+001  1.456613e-013 -5.040022e-015
      vertex -4.928315e+001  8.436295e+000  2.777310e-006
      vertex  4.937595e+001  7.875275e+000  3.681349e-005
    endloop
  endfacet
  facet normal  3.444785e-007 -8.954236e-008 -1.000000e+000
    outer loop
      vertex  4.937595e+001  7.875275e+000  3.681349e-005
      vertex -4.928315e+001  8.436295e+000  2.777310e-006
      vertex -4.715314e+001  1.663069e+001  2.777310e-006
    endloop
  endfacet
  facet normal  3.605069e-007  8.717225e-008 -1.000000e+000
    outer loop
      vertex  4.937595e+001  7.875275e+000  3.681349e-005
      vertex -4.715314e+001  1.663069e+001  2.777310e-006
      vertex  4.751921e+001  1.555395e+001  3.681349e-005
    endloop
  endfacet
  facet normal  3.576801e-007 -1.613818e-007 -1.000000e+000
    outer loop
      vertex  4.751921e+001  1.555395e+001  3.681349e-005
      vertex -4.715314e+001  1.663069e+001  2.777310e-006
      vertex -4.367107e+001  2.434821e+001  2.777310e-006
    endloop
  endfacet
  facet normal  3.888978e-007  1.623249e-007 -1.000000e+000
    outer loop
      vertex  4.751921e+001  1.555395e+001  3.681349e-005
      vertex -4.367107e+001  2.434821e+001  2.777310e-006
      vertex  4.447623e+001  2.284434e+001  3.681349e-005
    endloop
  endfacet
  facet normal  3.817358e-007 -2.574664e-007 -1.000000e+000
    outer loop
      vertex  4.447623e+001  2.284434e+001  3.681349e-005
      vertex -4.367107e+001  2.434821e+001  2.777310e-006
      vertex -3.893677e+001  3.136757e+001  2.777310e-006
    endloop
  endfacet
  facet normal  4.355495e-007  2.691843e-007 -1.000000e+000
    outer loop
      vertex  4.447623e+001  2.284434e+001  3.681349e-005
      vertex -3.893677e+001  3.136757e+001  2.777310e-006
      vertex  4.032297e+001  2.956445e+001  3.681349e-005
    endloop
  endfacet
  facet normal  4.202851e-007 -4.018000e-007 -1.000000e+000
    outer loop
      vertex  4.032297e+001  2.956445e+001  3.681349e-005
      vertex -3.893677e+001  3.136757e+001  2.777310e-006
      vertex -3.308601e+001  3.748750e+001  2.777310e-006
    endloop
  endfacet
  facet normal  5.112461e-007  4.409767e-007 -1.000000e+000
    outer loop
      vertex  4.032297e+001  2.956445e+001  3.681349e-005
      vertex -3.308601e+001  3.748750e+001  2.777310e-006
      vertex  3.516311e+001  3.554654e+001  3.681349e-005
    endloop
  endfacet
  facet normal  4.802956e-007 -6.473242e-007 -1.000000e+000
    outer loop
      vertex  3.516311e+001  3.554654e+001  3.681349e-005
      vertex -3.308601e+001  3.748750e+001  2.777310e-006
      vertex -2.628653e+001  4.253251e+001  2.777310e-006
    endloop
  endfacet
  facet normal  6.401301e-007  7.586047e-007 -9.999999e-001
    outer loop
      vertex  3.516311e+001  3.554654e+001  3.681349e-005
      vertex -2.628653e+001  4.253251e+001  2.777310e-006
      vertex  2.912546e+001  4.064127e+001  3.681349e-005
    endloop
  endfacet
  facet normal  5.754584e-007 -1.136226e-006 -1.000000e+000
    outer loop
      vertex  2.912546e+001  4.064127e+001  3.681349e-005
      vertex -2.628653e+001  4.253251e+001  2.777310e-006
      vertex -1.873332e+001  4.635794e+001  2.777310e-006
    endloop
  endfacet
  facet normal -3.557082e-007 -8.931755e-006 -1.000000e+000
    outer loop
      vertex  2.912546e+001  4.064127e+001  3.681349e-005
      vertex -1.873332e+001  4.635794e+001  2.777310e-006
      vertex  2.236068e+001  4.472137e+001  2.777310e-006
    endloop
  endfacet
  facet normal  0.000000e+000  0.000000e+000 -1.000000e+000
    outer loop
      vertex  2.236068e+001  4.472137e+001  2.777310e-006
      vertex -1.873332e+001  4.635794e+001  2.777310e-006
      vertex -1.064295e+001  4.885411e+001  2.777310e-006
    endloop
  endfacet
  facet normal  0.000000e+000  0.000000e+000 -1.000000e+000
    outer loop
      vertex  2.236068e+001  4.472137e+001  2.777310e-006
      vertex -1.064295e+001  4.885411e+001  2.777310e-006
      vertex  1.449444e+001  4.785301e+001  2.777310e-006
    endloop
  endfacet
  facet normal  0.000000e+000  0.000000e+000 -1.000000e+000
    outer loop
      vertex  1.449444e+001  4.785301e+001  2.777310e-006
      vertex -1.064295e+001  4.885411e+001  2.777310e-006
      vertex -2.247404e+000  4.994944e+001  2.777310e-006
    endloop
  endfacet
  facet normal  0.000000e+000  0.000000e+000 -1.000000e+000
    outer loop
      vertex  1.449444e+001  4.785301e+001  2.777310e-006
      vertex -2.247404e+000  4.994944e+001  2.777310e-006
      vertex  6.212587e+000  4.961252e+001  2.777310e-006
    endloop
  endfacet
  facet normal  5.114686e-001  7.902513e-001  3.374950e-001
    outer loop
      vertex  1.581812e+001  1.935901e+001  6.999992e+001
      vertex  2.912546e+001  4.064127e+001  3.681349e-005
      vertex  1.118033e+001  2.236066e+001  6.999999e+001
    endloop
  endfacet
  facet normal  4.865528e-001  8.067034e-001  3.354042e-001
    outer loop
      vertex  2.912546e+001  4.064127e+001  3.681349e-005
      vertex  2.236068e+001  4.472137e+001  2.777310e-006
      vertex  1.118033e+001  2.236066e+001  6.999999e+001
    endloop
  endfacet
  facet normal  9.391307e-001  7.441629e-002  3.354038e-001
    outer loop
      vertex  5.000000e+001  1.456613e-013 -5.040022e-015
      vertex  4.937595e+001  7.875275e+000  3.681349e-005
      vertex  2.500000e+001  1.438849e-013  7.000000e+001
    endloop
  endfacet
  facet normal  9.355575e-001  1.040639e-001  3.374951e-001
    outer loop
      vertex  4.937595e+001  7.875275e+000  3.681349e-005
      vertex  2.438931e+001  5.490540e+000  6.999992e+001
      vertex  2.500000e+001  1.438849e-013  7.000000e+001
    endloop
  endfacet
  facet normal  9.159930e-001  2.214914e-001  3.345119e-001
    outer loop
      vertex  4.937595e+001  7.875275e+000  3.681349e-005
      vertex  4.751921e+001  1.555395e+001  3.681349e-005
      vertex  2.438931e+001  5.490540e+000  6.999992e+001
    endloop
  endfacet
  facet normal  8.695763e-001  3.629583e-001  3.348109e-001
    outer loop
      vertex  4.751921e+001  1.555395e+001  3.681349e-005
      vertex  4.447623e+001  2.284434e+001  3.681349e-005
      vertex  2.258793e+001  1.071297e+001  6.999992e+001
    endloop
  endfacet
  facet normal  8.896751e-001  3.068757e-001  3.380909e-001
    outer loop
      vertex  2.438931e+001  5.490540e+000  6.999992e+001
      vertex  4.751921e+001  1.555395e+001  3.681349e-005
      vertex  2.258793e+001  1.071297e+001  6.999992e+001
    endloop
  endfacet
  facet normal  7.135260e-001  6.154530e-001  3.348110e-001
    outer loop
      vertex  4.032297e+001  2.956445e+001  3.681349e-005
      vertex  3.516311e+001  3.554654e+001  3.681349e-005
      vertex  1.968360e+001  1.541228e+001  6.999992e+001
    endloop
  endfacet
  facet normal  8.011036e-001  4.951095e-001  3.363028e-001
    outer loop
      vertex  2.258793e+001  1.071297e+001  6.999992e+001
      vertex  4.032297e+001  2.956445e+001  3.681349e-005
      vertex  1.968360e+001  1.541228e+001  6.999992e+001
    endloop
  endfacet
  facet normal  8.011038e-001  4.951093e-001  3.363027e-001
    outer loop
      vertex  4.447623e+001  2.284434e+001  3.681349e-005
      vertex  4.032297e+001  2.956445e+001  3.681349e-005
      vertex  2.258793e+001  1.071297e+001  6.999992e+001
    endloop
  endfacet
  facet normal  6.077526e-001  7.202350e-001  3.345119e-001
    outer loop
      vertex  3.516311e+001  3.554654e+001  3.681349e-005
      vertex  2.912546e+001  4.064127e+001  3.681349e-005
      vertex  1.581812e+001  1.935901e+001  6.999992e+001
    endloop
  endfacet
  facet normal  6.723529e-001  6.585105e-001  3.380910e-001
    outer loop
      vertex  1.968360e+001  1.541228e+001  6.999992e+001
      vertex  3.516311e+001  3.554654e+001  3.681349e-005
      vertex  1.581812e+001  1.935901e+001  6.999992e+001
    endloop
  endfacet
  facet normal  9.344087e-001 -1.134580e-001  3.376503e-001
    outer loop
      vertex  2.427354e+001 -5.982890e+000  7.000000e+001
      vertex  4.924039e+001 -8.682407e+000  1.651457e-015
      vertex  2.500000e+001  1.438849e-013  7.000000e+001
    endloop
  endfacet
  facet normal  9.385616e-001 -8.211359e-002  3.352006e-001
    outer loop
      vertex  4.924039e+001 -8.682407e+000  1.651457e-015
      vertex  5.000000e+001  1.456613e-013 -5.040022e-015
      vertex  2.500000e+001  1.438849e-013  7.000000e+001
    endloop
  endfacet
  facet normal -9.385614e-001 -8.211450e-002  3.352010e-001
    outer loop
      vertex -5.000001e+001  1.370459e-011  2.777310e-006
      vertex -4.924039e+001 -8.682407e+000  1.651457e-015
      vertex -2.499998e+001 -7.174084e-011  6.999999e+001
    endloop
  endfacet
  facet normal -9.344091e-001 -1.134546e-001  3.376502e-001
    outer loop
      vertex -4.924039e+001 -8.682407e+000  1.651457e-015
      vertex -2.427354e+001 -5.982890e+000  7.000000e+001
      vertex -2.499998e+001 -7.174084e-011  6.999999e+001
    endloop
  endfacet
  facet normal -9.104130e-001 -2.439449e-001  3.341239e-001
    outer loop
      vertex -4.924039e+001 -8.682407e+000  1.651457e-015
      vertex -4.698463e+001 -1.710100e+001  1.651457e-015
      vertex -2.427354e+001 -5.982890e+000  7.000000e+001
    endloop
  endfacet
  facet normal -8.541349e-001 -3.982897e-001  3.343934e-001
    outer loop
      vertex -4.698463e+001 -1.710100e+001  1.651457e-015
      vertex -4.330127e+001 -2.499999e+001  1.651457e-015
      vertex -2.213640e+001 -1.161807e+001  7.000000e+001
    endloop
  endfacet
  facet normal -8.798339e-001 -3.336773e-001  3.384549e-001
    outer loop
      vertex -2.427354e+001 -5.982890e+000  7.000000e+001
      vertex -4.698463e+001 -1.710100e+001  1.651457e-015
      vertex -2.213640e+001 -1.161807e+001  7.000000e+001
    endloop
  endfacet
  facet normal -6.663471e-001 -6.663471e-001  3.346088e-001
    outer loop
      vertex -3.830222e+001 -3.213937e+001  1.651457e-015
      vertex -3.213938e+001 -3.830222e+001  1.651457e-015
      vertex -1.871276e+001 -1.657806e+001  7.000000e+001
    endloop
  endfacet
  facet normal -7.751728e-001 -5.350633e-001  3.358786e-001
    outer loop
      vertex -2.213640e+001 -1.161807e+001  7.000000e+001
      vertex -3.830222e+001 -3.213937e+001  1.651457e-015
      vertex -1.871276e+001 -1.657806e+001  7.000000e+001
    endloop
  endfacet
  facet normal -7.713852e-001 -5.401296e-001  3.364891e-001
    outer loop
      vertex -4.330127e+001 -2.499999e+001  1.651457e-015
      vertex -3.830222e+001 -3.213937e+001  1.651457e-015
      vertex -2.213640e+001 -1.161807e+001  7.000000e+001
    endloop
  endfacet
  facet normal -5.406232e-001 -7.720904e-001  3.340700e-001
    outer loop
      vertex -3.213938e+001 -3.830222e+001  1.651457e-015
      vertex -2.500000e+001 -4.330126e+001  1.651457e-015
      vertex -1.420162e+001 -2.057459e+001  7.000000e+001
    endloop
  endfacet
  facet normal -6.240251e-001 -7.043791e-001  3.382941e-001
    outer loop
      vertex -1.871276e+001 -1.657806e+001  7.000000e+001
      vertex -3.213938e+001 -3.830222e+001  1.651457e-015
      vertex -1.420162e+001 -2.057459e+001  7.000000e+001
    endloop
  endfacet
  facet normal -3.982167e-001 -8.539790e-001  3.348778e-001
    outer loop
      vertex -2.500000e+001 -4.330126e+001  1.651457e-015
      vertex -1.710101e+001 -4.698462e+001  1.651457e-015
      vertex -8.865120e+000 -2.337539e+001  7.000000e+001
    endloop
  endfacet
  facet normal -4.373682e-001 -8.333352e-001  3.380258e-001
    outer loop
      vertex -1.420162e+001 -2.057459e+001  7.000000e+001
      vertex -2.500000e+001 -4.330126e+001  1.651457e-015
      vertex -8.865120e+000 -2.337539e+001  7.000000e+001
    endloop
  endfacet
  facet normal -8.214359e-002 -9.389045e-001  3.342317e-001
    outer loop
      vertex -8.682407e+000 -4.924038e+001  1.651457e-015
      vertex  2.842171e-014 -4.999999e+001  1.651457e-015
      vertex -3.013416e+000 -2.481771e+001  7.000000e+001
    endloop
  endfacet
  facet normal -2.253026e-001 -9.140880e-001  3.371672e-001
    outer loop
      vertex -8.865120e+000 -2.337539e+001  7.000000e+001
      vertex -8.682407e+000 -4.924038e+001  1.651457e-015
      vertex -3.013416e+000 -2.481771e+001  7.000000e+001
    endloop
  endfacet
  facet normal -2.438108e-001 -9.099145e-001  3.355767e-001
    outer loop
      vertex -1.710101e+001 -4.698462e+001  1.651457e-015
      vertex -8.682407e+000 -4.924038e+001  1.651457e-015
      vertex -8.865120e+000 -2.337539e+001  7.000000e+001
    endloop
  endfacet
  facet normal  8.214359e-002 -9.389045e-001  3.342318e-001
    outer loop
      vertex  2.842171e-014 -4.999999e+001  1.651457e-015
      vertex  8.682407e+000 -4.924038e+001  1.651457e-015
      vertex  3.013416e+000 -2.481771e+001  7.000000e+001
    endloop
  endfacet
  facet normal  0.000000e+000 -9.409633e-001  3.385086e-001
    outer loop
      vertex -3.013416e+000 -2.481771e+001  7.000000e+001
      vertex  2.842171e-014 -4.999999e+001  1.651457e-015
      vertex  3.013416e+000 -2.481771e+001  7.000000e+001
    endloop
  endfacet
  facet normal  3.982167e-001 -8.539790e-001  3.348778e-001
    outer loop
      vertex  1.710101e+001 -4.698462e+001  1.651457e-015
      vertex  2.500000e+001 -4.330126e+001  1.651457e-015
      vertex  8.865120e+000 -2.337539e+001  7.000000e+001
    endloop
  endfacet
  facet normal  2.254815e-001 -9.148138e-001  3.350726e-001
    outer loop
      vertex  3.013416e+000 -2.481771e+001  7.000000e+001
      vertex  1.710101e+001 -4.698462e+001  1.651457e-015
      vertex  8.865120e+000 -2.337539e+001  7.000000e+001
    endloop
  endfacet
  facet normal  2.436770e-001 -9.094151e-001  3.370249e-001
    outer loop
      vertex  8.682407e+000 -4.924038e+001  1.651457e-015
      vertex  1.710101e+001 -4.698462e+001  1.651457e-015
      vertex  3.013416e+000 -2.481771e+001  7.000000e+001
    endloop
  endfacet
  facet normal  5.406232e-001 -7.720904e-001  3.340701e-001
    outer loop
      vertex  2.500000e+001 -4.330126e+001  1.651457e-015
      vertex  3.213938e+001 -3.830222e+001  1.651457e-015
      vertex  1.420162e+001 -2.057459e+001  7.000000e+001
    endloop
  endfacet
  facet normal  4.373682e-001 -8.333352e-001  3.380258e-001
    outer loop
      vertex  8.865120e+000 -2.337539e+001  7.000000e+001
      vertex  2.500000e+001 -4.330126e+001  1.651457e-015
      vertex  1.420162e+001 -2.057459e+001  7.000000e+001
    endloop
  endfacet
  facet normal  6.663471e-001 -6.663471e-001  3.346088e-001
    outer loop
      vertex  3.213938e+001 -3.830222e+001  1.651457e-015
      vertex  3.830222e+001 -3.213937e+001  1.651457e-015
      vertex  1.871276e+001 -1.657806e+001  7.000000e+001
    endloop
  endfacet
  facet normal  6.240251e-001 -7.043791e-001  3.382941e-001
    outer loop
      vertex  1.420162e+001 -2.057459e+001  7.000000e+001
      vertex  3.213938e+001 -3.830222e+001  1.651457e-015
      vertex  1.871276e+001 -1.657806e+001  7.000000e+001
    endloop
  endfacet
  facet normal  8.541349e-001 -3.982897e-001  3.343934e-001
    outer loop
      vertex  4.330127e+001 -2.499999e+001  1.651457e-015
      vertex  4.698463e+001 -1.710100e+001  1.651457e-015
      vertex  2.213640e+001 -1.161807e+001  7.000000e+001
    endloop
  endfacet
  facet normal  7.749677e-001 -5.349216e-001  3.365767e-001
    outer loop
      vertex  1.871276e+001 -1.657806e+001  7.000000e+001
      vertex  4.330127e+001 -2.499999e+001  1.651457e-015
      vertex  2.213640e+001 -1.161807e+001  7.000000e+001
    endloop
  endfacet
  facet normal  7.715263e-001 -5.402284e-001  3.360064e-001
    outer loop
      vertex  3.830222e+001 -3.213937e+001  1.651457e-015
      vertex  4.330127e+001 -2.499999e+001  1.651457e-015
      vertex  1.871276e+001 -1.657806e+001  7.000000e+001
    endloop
  endfacet
  facet normal  9.104130e-001 -2.439449e-001  3.341239e-001
    outer loop
      vertex  4.698463e+001 -1.710100e+001  1.651457e-015
      vertex  4.924039e+001 -8.682407e+000  1.651457e-015
      vertex  2.427354e+001 -5.982890e+000  7.000000e+001
    endloop
  endfacet
  facet normal  8.798339e-001 -3.336773e-001  3.384549e-001
    outer loop
      vertex  2.213640e+001 -1.161807e+001  7.000000e+001
      vertex  4.698463e+001 -1.710100e+001  1.651457e-015
      vertex  2.427354e+001 -5.982890e+000  7.000000e+001
    endloop
  endfacet
  facet normal -9.353949e-001  1.061779e-001  3.372872e-001
    outer loop
      vertex -2.436395e+001  5.603214e+000  6.999999e+001
      vertex -4.928315e+001  8.436295e+000  2.777310e-006
      vertex -2.499998e+001 -7.174084e-011  6.999999e+001
    endloop
  endfacet
  facet normal -9.387408e-001  7.976813e-002  3.352650e-001
    outer loop
      vertex -4.928315e+001  8.436295e+000  2.777310e-006
      vertex -5.000001e+001  1.370459e-011  2.777310e-006
      vertex -2.499998e+001 -7.174084e-011  6.999999e+001
    endloop
  endfacet
  facet normal  3.484705e-001  8.753089e-001  3.352650e-001
    outer loop
      vertex  2.236068e+001  4.472137e+001  2.777310e-006
      vertex  1.449444e+001  4.785301e+001  2.777310e-006
      vertex  1.118033e+001  2.236066e+001  6.999999e+001
    endloop
  endfacet
  facet normal  3.233526e-001  8.841270e-001  3.372871e-001
    outer loop
      vertex  1.449444e+001  4.785301e+001  2.777310e-006
      vertex  5.884223e+000  2.429761e+001  6.999999e+001
      vertex  1.118033e+001  2.236066e+001  6.999999e+001
    endloop
  endfacet
  facet normal  1.958582e-001  9.218869e-001  3.343114e-001
    outer loop
      vertex  1.449444e+001  4.785301e+001  2.777310e-006
      vertex  6.212587e+000  4.961252e+001  2.777310e-006
      vertex  5.884223e+000  2.429761e+001  6.999999e+001
    endloop
  endfacet
  facet normal  3.750370e-002  9.417161e-001  3.343114e-001
    outer loop
      vertex  6.212587e+000  4.961252e+001  2.777310e-006
      vertex -2.247404e+000  4.994944e+001  2.777310e-006
      vertex  2.887234e-001  2.499828e+001  6.999999e+001
    endloop
  endfacet
  facet normal  1.169261e-001  9.337683e-001  3.382379e-001
    outer loop
      vertex  5.884223e+000  2.429761e+001  6.999999e+001
      vertex  6.212587e+000  4.961252e+001  2.777310e-006
      vertex  2.887234e-001  2.499828e+001  6.999999e+001
    endloop
  endfacet
  facet normal -1.218813e-001  9.342068e-001  3.352651e-001
    outer loop
      vertex -2.247404e+000  4.994944e+001  2.777310e-006
      vertex -1.064295e+001  4.885411e+001  2.777310e-006
      vertex -5.321463e+000  2.442701e+001  6.999999e+001
    endloop
  endfacet
  facet normal -9.536694e-002  9.365589e-001  3.372870e-001
    outer loop
      vertex  2.887234e-001  2.499828e+001  6.999999e+001
      vertex -2.247404e+000  4.994944e+001  2.777310e-006
      vertex -5.321463e+000  2.442701e+001  6.999999e+001
    endloop
  endfacet
  facet normal -4.258249e-001  8.407789e-001  3.343114e-001
    outer loop
      vertex -1.873332e+001  4.635794e+001  2.777310e-006
      vertex -2.628653e+001  4.253251e+001  2.777310e-006
      vertex -1.066089e+001  2.261287e+001  6.999999e+001
    endloop
  endfacet
  facet normal -3.028502e-001  8.913580e-001  3.372872e-001
    outer loop
      vertex -5.321463e+000  2.442701e+001  6.999999e+001
      vertex -1.873332e+001  4.635794e+001  2.777310e-006
      vertex -1.066089e+001  2.261287e+001  6.999999e+001
    endloop
  endfacet
  facet normal -5.615807e-001  7.568771e-001  3.343114e-001
    outer loop
      vertex -2.628653e+001  4.253251e+001  2.777310e-006
      vertex -3.308601e+001  3.748750e+001  2.777310e-006
      vertex -1.545788e+001  1.964817e+001  6.999999e+001
    endloop
  endfacet
  facet normal -4.947446e-001  8.005141e-001  3.382379e-001
    outer loop
      vertex -1.066089e+001  2.261287e+001  6.999999e+001
      vertex -2.628653e+001  4.253251e+001  2.777310e-006
      vertex -1.545788e+001  1.964817e+001  6.999999e+001
    endloop
  endfacet
  facet normal -6.809893e-001  6.510384e-001  3.352650e-001
    outer loop
      vertex -3.308601e+001  3.748750e+001  2.777310e-006
      vertex -3.893677e+001  3.136757e+001  2.777310e-006
      vertex -1.946835e+001  1.568375e+001  6.999999e+001
    endloop
  endfacet
  facet normal -6.618160e-001  6.695051e-001  3.372871e-001
    outer loop
      vertex -1.545788e+001  1.964817e+001  6.999999e+001
      vertex -3.308601e+001  3.748750e+001  2.777310e-006
      vertex -1.946835e+001  1.568375e+001  6.999999e+001
    endloop
  endfacet
  facet normal -8.590689e-001  3.876036e-001  3.343114e-001
    outer loop
      vertex -4.367107e+001  2.434821e+001  2.777310e-006
      vertex -4.715314e+001  1.663069e+001  2.777310e-006
      vertex -2.248826e+001  1.092133e+001  6.999999e+001
    endloop
  endfacet
  facet normal -7.950343e-001  5.041407e-001  3.372871e-001
    outer loop
      vertex -1.946835e+001  1.568375e+001  6.999999e+001
      vertex -4.367107e+001  2.434821e+001  2.777310e-006
      vertex -2.248826e+001  1.092133e+001  6.999999e+001
    endloop
  endfacet
  facet normal -9.121510e-001  2.370999e-001  3.343114e-001
    outer loop
      vertex -4.715314e+001  1.663069e+001  2.777310e-006
      vertex -4.928315e+001  8.436295e+000  2.777310e-006
      vertex -2.436395e+001  5.603214e+000  6.999999e+001
    endloop
  endfacet
  facet normal -8.874788e-001  3.130119e-001  3.382379e-001
    outer loop
      vertex -2.248826e+001  1.092133e+001  6.999999e+001
      vertex -4.715314e+001  1.663069e+001  2.777310e-006
      vertex -2.436395e+001  5.603214e+000  6.999999e+001
    endloop
  endfacet
  facet normal -2.777590e-001  9.002485e-001  3.352650e-001
    outer loop
      vertex -1.064295e+001  4.885411e+001  2.777310e-006
      vertex -1.873332e+001  4.635794e+001  2.777310e-006
      vertex -5.321463e+000  2.442701e+001  6.999999e+001
    endloop
  endfacet
  facet normal -7.810727e-001  5.268043e-001  3.352651e-001
    outer loop
      vertex -3.893677e+001  3.136757e+001  2.777310e-006
      vertex -4.367107e+001  2.434821e+001  2.777310e-006
      vertex -1.946835e+001  1.568375e+001  6.999999e+001
    endloop
  endfacet
endsolid CATIA STL
