solid CATIA STL
  facet normal  -0.000000e+000  0.000000e+000  1.000000e+000
    outer loop
      vertex  3.013417e+000  2.481772e+001  5.000000e+000
      vertex -3.013417e+000  2.481772e+001  5.000000e+000
      vertex  8.865122e+000  2.337541e+001  5.000000e+000
    endloop
  endfacet
  facet normal  0.000000e+000  0.000000e+000  1.000000e+000
    outer loop
      vertex  8.865122e+000  2.337541e+001  5.000000e+000
      vertex -3.013417e+000  2.481772e+001  5.000000e+000
      vertex -8.865122e+000  2.337541e+001  5.000000e+000
    endloop
  endfacet
  facet normal  -0.000000e+000  0.000000e+000  1.000000e+000
    outer loop
      vertex  8.865122e+000  2.337541e+001  5.000000e+000
      vertex -8.865122e+000  2.337541e+001  5.000000e+000
      vertex  1.420162e+001  2.057460e+001  5.000000e+000
    endloop
  endfacet
  facet normal  0.000000e+000  0.000000e+000  1.000000e+000
    outer loop
      vertex  1.420162e+001  2.057460e+001  5.000000e+000
      vertex -8.865122e+000  2.337541e+001  5.000000e+000
      vertex -1.420162e+001  2.057460e+001  5.000000e+000
    endloop
  endfacet
  facet normal  -0.000000e+000  0.000000e+000  1.000000e+000
    outer loop
      vertex  1.420162e+001  2.057460e+001  5.000000e+000
      vertex -1.420162e+001  2.057460e+001  5.000000e+000
      vertex  1.871277e+001  1.657807e+001  5.000000e+000
    endloop
  endfacet
  facet normal  0.000000e+000  0.000000e+000  1.000000e+000
    outer loop
      vertex  1.871277e+001  1.657807e+001  5.000000e+000
      vertex -1.420162e+001  2.057460e+001  5.000000e+000
      vertex -1.871277e+001  1.657807e+001  5.000000e+000
    endloop
  endfacet
  facet normal  -0.000000e+000  0.000000e+000  1.000000e+000
    outer loop
      vertex  1.871277e+001  1.657807e+001  5.000000e+000
      vertex -1.871277e+001  1.657807e+001  5.000000e+000
      vertex  2.213640e+001  1.161808e+001  5.000000e+000
    endloop
  endfacet
  facet normal  0.000000e+000  0.000000e+000  9.999999e-001
    outer loop
      vertex  2.213640e+001  1.161808e+001  5.000000e+000
      vertex -1.871277e+001  1.657807e+001  5.000000e+000
      vertex -2.213640e+001  1.161808e+001  5.000000e+000
    endloop
  endfacet
  facet normal  -0.000000e+000  0.000000e+000  1.000000e+000
    outer loop
      vertex  2.213640e+001  1.161808e+001  5.000000e+000
      vertex -2.213640e+001  1.161808e+001  5.000000e+000
      vertex  2.427355e+001  5.982892e+000  5.000000e+000
    endloop
  endfacet
  facet normal  0.000000e+000  0.000000e+000  1.000000e+000
    outer loop
      vertex  2.427355e+001  5.982892e+000  5.000000e+000
      vertex -2.213640e+001  1.161808e+001  5.000000e+000
      vertex -2.427355e+001  5.982892e+000  5.000000e+000
    endloop
  endfacet
  facet normal  -0.000000e+000  0.000000e+000  1.000000e+000
    outer loop
      vertex  2.427355e+001  5.982892e+000  5.000000e+000
      vertex -2.427355e+001  5.982892e+000  5.000000e+000
      vertex  2.500000e+001  0.000000e+000  5.000000e+000
    endloop
  endfacet
  facet normal  0.000000e+000  0.000000e+000  1.000000e+000
    outer loop
      vertex  2.500000e+001  0.000000e+000  5.000000e+000
      vertex -2.427355e+001  5.982892e+000  5.000000e+000
      vertex -2.500000e+001  3.061617e-015  5.000000e+000
    endloop
  endfacet
  facet normal  0.000000e+000  0.000000e+000  1.000000e+000
    outer loop
      vertex  2.500000e+001  0.000000e+000  5.000000e+000
      vertex -2.500000e+001  3.061617e-015  5.000000e+000
      vertex  2.427355e+001 -5.982892e+000  5.000000e+000
    endloop
  endfacet
  facet normal  0.000000e+000  0.000000e+000  1.000000e+000
    outer loop
      vertex  2.427355e+001 -5.982892e+000  5.000000e+000
      vertex -2.500000e+001  3.061617e-015  5.000000e+000
      vertex -2.427355e+001 -5.982892e+000  5.000000e+000
    endloop
  endfacet
  facet normal  -0.000000e+000  0.000000e+000  1.000000e+000
    outer loop
      vertex  2.427355e+001 -5.982892e+000  5.000000e+000
      vertex -2.427355e+001 -5.982892e+000  5.000000e+000
      vertex  2.213640e+001 -1.161808e+001  5.000000e+000
    endloop
  endfacet
  facet normal  0.000000e+000  0.000000e+000  1.000000e+000
    outer loop
      vertex  2.213640e+001 -1.161808e+001  5.000000e+000
      vertex -2.427355e+001 -5.982892e+000  5.000000e+000
      vertex -2.213640e+001 -1.161808e+001  5.000000e+000
    endloop
  endfacet
  facet normal  -0.000000e+000  0.000000e+000  9.999999e-001
    outer loop
      vertex  2.213640e+001 -1.161808e+001  5.000000e+000
      vertex -2.213640e+001 -1.161808e+001  5.000000e+000
      vertex  1.871277e+001 -1.657807e+001  5.000000e+000
    endloop
  endfacet
  facet normal  0.000000e+000  0.000000e+000  1.000000e+000
    outer loop
      vertex  1.871277e+001 -1.657807e+001  5.000000e+000
      vertex -2.213640e+001 -1.161808e+001  5.000000e+000
      vertex -1.871277e+001 -1.657807e+001  5.000000e+000
    endloop
  endfacet
  facet normal  -0.000000e+000  0.000000e+000  1.000000e+000
    outer loop
      vertex  1.871277e+001 -1.657807e+001  5.000000e+000
      vertex -1.871277e+001 -1.657807e+001  5.000000e+000
      vertex  1.420162e+001 -2.057460e+001  5.000000e+000
    endloop
  endfacet
  facet normal  0.000000e+000  0.000000e+000  1.000000e+000
    outer loop
      vertex  1.420162e+001 -2.057460e+001  5.000000e+000
      vertex -1.871277e+001 -1.657807e+001  5.000000e+000
      vertex -1.420162e+001 -2.057460e+001  5.000000e+000
    endloop
  endfacet
  facet normal  -0.000000e+000  0.000000e+000  1.000000e+000
    outer loop
      vertex  1.420162e+001 -2.057460e+001  5.000000e+000
      vertex -1.420162e+001 -2.057460e+001  5.000000e+000
      vertex  8.865122e+000 -2.337541e+001  5.000000e+000
    endloop
  endfacet
  facet normal  0.000000e+000  0.000000e+000  1.000000e+000
    outer loop
      vertex  8.865122e+000 -2.337541e+001  5.000000e+000
      vertex -1.420162e+001 -2.057460e+001  5.000000e+000
      vertex -8.865122e+000 -2.337541e+001  5.000000e+000
    endloop
  endfacet
  facet normal  -0.000000e+000  0.000000e+000  1.000000e+000
    outer loop
      vertex  8.865122e+000 -2.337541e+001  5.000000e+000
      vertex -8.865122e+000 -2.337541e+001  5.000000e+000
      vertex  3.013417e+000 -2.481772e+001  5.000000e+000
    endloop
  endfacet
  facet normal  0.000000e+000  0.000000e+000  1.000000e+000
    outer loop
      vertex  3.013417e+000 -2.481772e+001  5.000000e+000
      vertex -8.865122e+000 -2.337541e+001  5.000000e+000
      vertex -3.013417e+000 -2.481772e+001  5.000000e+000
    endloop
  endfacet
  facet normal  0.000000e+000  0.000000e+000 -1.000000e+000
    outer loop
      vertex  2.500000e+001  0.000000e+000  0.000000e+000
      vertex -2.427355e+001  5.982892e+000  0.000000e+000
      vertex  2.427355e+001  5.982892e+000  0.000000e+000
    endloop
  endfacet
  facet normal  0.000000e+000  0.000000e+000 -1.000000e+000
    outer loop
      vertex  2.427355e+001  5.982892e+000  0.000000e+000
      vertex -2.427355e+001  5.982892e+000  0.000000e+000
      vertex -2.213640e+001  1.161808e+001  0.000000e+000
    endloop
  endfacet
  facet normal  0.000000e+000  0.000000e+000 -1.000000e+000
    outer loop
      vertex  2.427355e+001  5.982892e+000  0.000000e+000
      vertex -2.213640e+001  1.161808e+001  0.000000e+000
      vertex  2.213640e+001  1.161808e+001  0.000000e+000
    endloop
  endfacet
  facet normal  0.000000e+000  0.000000e+000 -9.999999e-001
    outer loop
      vertex  2.213640e+001  1.161808e+001  0.000000e+000
      vertex -2.213640e+001  1.161808e+001  0.000000e+000
      vertex -1.871277e+001  1.657807e+001  0.000000e+000
    endloop
  endfacet
  facet normal  0.000000e+000  0.000000e+000 -1.000000e+000
    outer loop
      vertex  2.213640e+001  1.161808e+001  0.000000e+000
      vertex -1.871277e+001  1.657807e+001  0.000000e+000
      vertex  1.871277e+001  1.657807e+001  0.000000e+000
    endloop
  endfacet
  facet normal  0.000000e+000  0.000000e+000 -1.000000e+000
    outer loop
      vertex  1.871277e+001  1.657807e+001  0.000000e+000
      vertex -1.871277e+001  1.657807e+001  0.000000e+000
      vertex -1.420162e+001  2.057460e+001  0.000000e+000
    endloop
  endfacet
  facet normal  0.000000e+000  0.000000e+000 -1.000000e+000
    outer loop
      vertex  1.871277e+001  1.657807e+001  0.000000e+000
      vertex -1.420162e+001  2.057460e+001  0.000000e+000
      vertex  1.420162e+001  2.057460e+001  0.000000e+000
    endloop
  endfacet
  facet normal  0.000000e+000  0.000000e+000 -1.000000e+000
    outer loop
      vertex  1.420162e+001  2.057460e+001  0.000000e+000
      vertex -1.420162e+001  2.057460e+001  0.000000e+000
      vertex -8.865122e+000  2.337541e+001  0.000000e+000
    endloop
  endfacet
  facet normal  0.000000e+000  0.000000e+000 -1.000000e+000
    outer loop
      vertex  1.420162e+001  2.057460e+001  0.000000e+000
      vertex -8.865122e+000  2.337541e+001  0.000000e+000
      vertex  8.865122e+000  2.337541e+001  0.000000e+000
    endloop
  endfacet
  facet normal  0.000000e+000  0.000000e+000 -1.000000e+000
    outer loop
      vertex  8.865122e+000  2.337541e+001  0.000000e+000
      vertex -8.865122e+000  2.337541e+001  0.000000e+000
      vertex -3.013417e+000  2.481772e+001  0.000000e+000
    endloop
  endfacet
  facet normal  0.000000e+000  0.000000e+000 -1.000000e+000
    outer loop
      vertex  8.865122e+000  2.337541e+001  0.000000e+000
      vertex -3.013417e+000  2.481772e+001  0.000000e+000
      vertex  3.013417e+000  2.481772e+001  0.000000e+000
    endloop
  endfacet
  facet normal  0.000000e+000  0.000000e+000 -1.000000e+000
    outer loop
      vertex -2.427355e+001  5.982892e+000  0.000000e+000
      vertex  2.500000e+001  0.000000e+000  0.000000e+000
      vertex -2.500000e+001  3.061617e-015  0.000000e+000
    endloop
  endfacet
  facet normal  0.000000e+000  0.000000e+000 -1.000000e+000
    outer loop
      vertex -2.500000e+001  3.061617e-015  0.000000e+000
      vertex  2.500000e+001  0.000000e+000  0.000000e+000
      vertex  2.427355e+001 -5.982892e+000  0.000000e+000
    endloop
  endfacet
  facet normal  0.000000e+000  0.000000e+000 -1.000000e+000
    outer loop
      vertex -2.500000e+001  3.061617e-015  0.000000e+000
      vertex  2.427355e+001 -5.982892e+000  0.000000e+000
      vertex -2.427355e+001 -5.982892e+000  0.000000e+000
    endloop
  endfacet
  facet normal  0.000000e+000  0.000000e+000 -1.000000e+000
    outer loop
      vertex -2.427355e+001 -5.982892e+000  0.000000e+000
      vertex  2.427355e+001 -5.982892e+000  0.000000e+000
      vertex  2.213640e+001 -1.161808e+001  0.000000e+000
    endloop
  endfacet
  facet normal  0.000000e+000  0.000000e+000 -1.000000e+000
    outer loop
      vertex -2.427355e+001 -5.982892e+000  0.000000e+000
      vertex  2.213640e+001 -1.161808e+001  0.000000e+000
      vertex -2.213640e+001 -1.161808e+001  0.000000e+000
    endloop
  endfacet
  facet normal  0.000000e+000  0.000000e+000 -9.999999e-001
    outer loop
      vertex -2.213640e+001 -1.161808e+001  0.000000e+000
      vertex  2.213640e+001 -1.161808e+001  0.000000e+000
      vertex  1.871277e+001 -1.657807e+001  0.000000e+000
    endloop
  endfacet
  facet normal  0.000000e+000  0.000000e+000 -1.000000e+000
    outer loop
      vertex -2.213640e+001 -1.161808e+001  0.000000e+000
      vertex  1.871277e+001 -1.657807e+001  0.000000e+000
      vertex -1.871277e+001 -1.657807e+001  0.000000e+000
    endloop
  endfacet
  facet normal  0.000000e+000  0.000000e+000 -1.000000e+000
    outer loop
      vertex -1.871277e+001 -1.657807e+001  0.000000e+000
      vertex  1.871277e+001 -1.657807e+001  0.000000e+000
      vertex  1.420162e+001 -2.057460e+001  0.000000e+000
    endloop
  endfacet
  facet normal  0.000000e+000  0.000000e+000 -1.000000e+000
    outer loop
      vertex -1.871277e+001 -1.657807e+001  0.000000e+000
      vertex  1.420162e+001 -2.057460e+001  0.000000e+000
      vertex -1.420162e+001 -2.057460e+001  0.000000e+000
    endloop
  endfacet
  facet normal  0.000000e+000  0.000000e+000 -1.000000e+000
    outer loop
      vertex -1.420162e+001 -2.057460e+001  0.000000e+000
      vertex  1.420162e+001 -2.057460e+001  0.000000e+000
      vertex  8.865122e+000 -2.337541e+001  0.000000e+000
    endloop
  endfacet
  facet normal  0.000000e+000  0.000000e+000 -1.000000e+000
    outer loop
      vertex -1.420162e+001 -2.057460e+001  0.000000e+000
      vertex  8.865122e+000 -2.337541e+001  0.000000e+000
      vertex -8.865122e+000 -2.337541e+001  0.000000e+000
    endloop
  endfacet
  facet normal  0.000000e+000  0.000000e+000 -1.000000e+000
    outer loop
      vertex -8.865122e+000 -2.337541e+001  0.000000e+000
      vertex  8.865122e+000 -2.337541e+001  0.000000e+000
      vertex  3.013417e+000 -2.481772e+001  0.000000e+000
    endloop
  endfacet
  facet normal  0.000000e+000  0.000000e+000 -1.000000e+000
    outer loop
      vertex -8.865122e+000 -2.337541e+001  0.000000e+000
      vertex  3.013417e+000 -2.481772e+001  0.000000e+000
      vertex -3.013417e+000 -2.481772e+001  0.000000e+000
    endloop
  endfacet
  facet normal  9.927089e-001 -1.205366e-001  0.000000e+000
    outer loop
      vertex  2.500000e+001  0.000000e+000  0.000000e+000
      vertex  2.500000e+001  0.000000e+000  5.000000e+000
      vertex  2.427355e+001 -5.982892e+000  0.000000e+000
    endloop
  endfacet
  facet normal  9.927089e-001 -1.205366e-001  0.000000e+000
    outer loop
      vertex  2.427355e+001 -5.982892e+000  0.000000e+000
      vertex  2.500000e+001  0.000000e+000  5.000000e+000
      vertex  2.427355e+001 -5.982892e+000  5.000000e+000
    endloop
  endfacet
  facet normal  9.350161e-001 -3.546050e-001  0.000000e+000
    outer loop
      vertex  2.427355e+001 -5.982892e+000  0.000000e+000
      vertex  2.427355e+001 -5.982892e+000  5.000000e+000
      vertex  2.213640e+001 -1.161808e+001  0.000000e+000
    endloop
  endfacet
  facet normal  9.350161e-001 -3.546050e-001  0.000000e+000
    outer loop
      vertex  2.213640e+001 -1.161808e+001  0.000000e+000
      vertex  2.427355e+001 -5.982892e+000  5.000000e+000
      vertex  2.213640e+001 -1.161808e+001  5.000000e+000
    endloop
  endfacet
  facet normal  8.229838e-001 -5.680647e-001  0.000000e+000
    outer loop
      vertex  2.213640e+001 -1.161808e+001  0.000000e+000
      vertex  2.213640e+001 -1.161808e+001  5.000000e+000
      vertex  1.871277e+001 -1.657807e+001  0.000000e+000
    endloop
  endfacet
  facet normal  8.229838e-001 -5.680647e-001  0.000000e+000
    outer loop
      vertex  1.871277e+001 -1.657807e+001  0.000000e+000
      vertex  2.213640e+001 -1.161808e+001  5.000000e+000
      vertex  1.871277e+001 -1.657807e+001  5.000000e+000
    endloop
  endfacet
  facet normal  6.631227e-001 -7.485107e-001  0.000000e+000
    outer loop
      vertex  1.871277e+001 -1.657807e+001  0.000000e+000
      vertex  1.871277e+001 -1.657807e+001  5.000000e+000
      vertex  1.420162e+001 -2.057460e+001  0.000000e+000
    endloop
  endfacet
  facet normal  6.631227e-001 -7.485107e-001  0.000000e+000
    outer loop
      vertex  1.420162e+001 -2.057460e+001  0.000000e+000
      vertex  1.871277e+001 -1.657807e+001  5.000000e+000
      vertex  1.420162e+001 -2.057460e+001  5.000000e+000
    endloop
  endfacet
  facet normal  4.647233e-001 -8.854560e-001  0.000000e+000
    outer loop
      vertex  1.420162e+001 -2.057460e+001  0.000000e+000
      vertex  1.420162e+001 -2.057460e+001  5.000000e+000
      vertex  8.865122e+000 -2.337541e+001  0.000000e+000
    endloop
  endfacet
  facet normal  4.647233e-001 -8.854560e-001  0.000000e+000
    outer loop
      vertex  8.865122e+000 -2.337541e+001  0.000000e+000
      vertex  1.420162e+001 -2.057460e+001  5.000000e+000
      vertex  8.865122e+000 -2.337541e+001  5.000000e+000
    endloop
  endfacet
  facet normal  2.393157e-001 -9.709418e-001  0.000000e+000
    outer loop
      vertex  8.865122e+000 -2.337541e+001  0.000000e+000
      vertex  8.865122e+000 -2.337541e+001  5.000000e+000
      vertex  3.013417e+000 -2.481772e+001  0.000000e+000
    endloop
  endfacet
  facet normal  2.393157e-001 -9.709418e-001  0.000000e+000
    outer loop
      vertex  3.013417e+000 -2.481772e+001  0.000000e+000
      vertex  8.865122e+000 -2.337541e+001  5.000000e+000
      vertex  3.013417e+000 -2.481772e+001  5.000000e+000
    endloop
  endfacet
  facet normal  0.000000e+000 -1.000000e+000  -0.000000e+000
    outer loop
      vertex  3.013417e+000 -2.481772e+001  0.000000e+000
      vertex  3.013417e+000 -2.481772e+001  5.000000e+000
      vertex -3.013417e+000 -2.481772e+001  0.000000e+000
    endloop
  endfacet
  facet normal  0.000000e+000 -1.000000e+000  0.000000e+000
    outer loop
      vertex -3.013417e+000 -2.481772e+001  0.000000e+000
      vertex  3.013417e+000 -2.481772e+001  5.000000e+000
      vertex -3.013417e+000 -2.481772e+001  5.000000e+000
    endloop
  endfacet
  facet normal -2.393157e-001 -9.709418e-001  -0.000000e+000
    outer loop
      vertex -3.013417e+000 -2.481772e+001  0.000000e+000
      vertex -3.013417e+000 -2.481772e+001  5.000000e+000
      vertex -8.865122e+000 -2.337541e+001  0.000000e+000
    endloop
  endfacet
  facet normal -2.393157e-001 -9.709418e-001  0.000000e+000
    outer loop
      vertex -8.865122e+000 -2.337541e+001  0.000000e+000
      vertex -3.013417e+000 -2.481772e+001  5.000000e+000
      vertex -8.865122e+000 -2.337541e+001  5.000000e+000
    endloop
  endfacet
  facet normal -4.647233e-001 -8.854560e-001  -0.000000e+000
    outer loop
      vertex -8.865122e+000 -2.337541e+001  0.000000e+000
      vertex -8.865122e+000 -2.337541e+001  5.000000e+000
      vertex -1.420162e+001 -2.057460e+001  0.000000e+000
    endloop
  endfacet
  facet normal -4.647233e-001 -8.854560e-001  0.000000e+000
    outer loop
      vertex -1.420162e+001 -2.057460e+001  0.000000e+000
      vertex -8.865122e+000 -2.337541e+001  5.000000e+000
      vertex -1.420162e+001 -2.057460e+001  5.000000e+000
    endloop
  endfacet
  facet normal -6.631227e-001 -7.485107e-001  -0.000000e+000
    outer loop
      vertex -1.420162e+001 -2.057460e+001  0.000000e+000
      vertex -1.420162e+001 -2.057460e+001  5.000000e+000
      vertex -1.871277e+001 -1.657807e+001  0.000000e+000
    endloop
  endfacet
  facet normal -6.631227e-001 -7.485107e-001  0.000000e+000
    outer loop
      vertex -1.871277e+001 -1.657807e+001  0.000000e+000
      vertex -1.420162e+001 -2.057460e+001  5.000000e+000
      vertex -1.871277e+001 -1.657807e+001  5.000000e+000
    endloop
  endfacet
  facet normal -8.229838e-001 -5.680647e-001  -0.000000e+000
    outer loop
      vertex -1.871277e+001 -1.657807e+001  0.000000e+000
      vertex -1.871277e+001 -1.657807e+001  5.000000e+000
      vertex -2.213640e+001 -1.161808e+001  0.000000e+000
    endloop
  endfacet
  facet normal -8.229838e-001 -5.680647e-001  0.000000e+000
    outer loop
      vertex -2.213640e+001 -1.161808e+001  0.000000e+000
      vertex -1.871277e+001 -1.657807e+001  5.000000e+000
      vertex -2.213640e+001 -1.161808e+001  5.000000e+000
    endloop
  endfacet
  facet normal -9.350161e-001 -3.546050e-001  -0.000000e+000
    outer loop
      vertex -2.213640e+001 -1.161808e+001  0.000000e+000
      vertex -2.213640e+001 -1.161808e+001  5.000000e+000
      vertex -2.427355e+001 -5.982892e+000  0.000000e+000
    endloop
  endfacet
  facet normal -9.350161e-001 -3.546050e-001  0.000000e+000
    outer loop
      vertex -2.427355e+001 -5.982892e+000  0.000000e+000
      vertex -2.213640e+001 -1.161808e+001  5.000000e+000
      vertex -2.427355e+001 -5.982892e+000  5.000000e+000
    endloop
  endfacet
  facet normal -9.927089e-001 -1.205366e-001  -0.000000e+000
    outer loop
      vertex -2.427355e+001 -5.982892e+000  0.000000e+000
      vertex -2.427355e+001 -5.982892e+000  5.000000e+000
      vertex -2.500000e+001  3.061617e-015  0.000000e+000
    endloop
  endfacet
  facet normal -9.927089e-001 -1.205366e-001  0.000000e+000
    outer loop
      vertex -2.500000e+001  3.061617e-015  0.000000e+000
      vertex -2.427355e+001 -5.982892e+000  5.000000e+000
      vertex -2.500000e+001  3.061617e-015  5.000000e+000
    endloop
  endfacet
  facet normal -9.927089e-001  1.205366e-001  0.000000e+000
    outer loop
      vertex -2.500000e+001  3.061617e-015  0.000000e+000
      vertex -2.500000e+001  3.061617e-015  5.000000e+000
      vertex -2.427355e+001  5.982892e+000  0.000000e+000
    endloop
  endfacet
  facet normal -9.927089e-001  1.205366e-001  0.000000e+000
    outer loop
      vertex -2.427355e+001  5.982892e+000  0.000000e+000
      vertex -2.500000e+001  3.061617e-015  5.000000e+000
      vertex -2.427355e+001  5.982892e+000  5.000000e+000
    endloop
  endfacet
  facet normal -9.350161e-001  3.546050e-001  0.000000e+000
    outer loop
      vertex -2.427355e+001  5.982892e+000  0.000000e+000
      vertex -2.427355e+001  5.982892e+000  5.000000e+000
      vertex -2.213640e+001  1.161808e+001  0.000000e+000
    endloop
  endfacet
  facet normal -9.350161e-001  3.546050e-001  0.000000e+000
    outer loop
      vertex -2.213640e+001  1.161808e+001  0.000000e+000
      vertex -2.427355e+001  5.982892e+000  5.000000e+000
      vertex -2.213640e+001  1.161808e+001  5.000000e+000
    endloop
  endfacet
  facet normal -8.229838e-001  5.680647e-001  0.000000e+000
    outer loop
      vertex -2.213640e+001  1.161808e+001  0.000000e+000
      vertex -2.213640e+001  1.161808e+001  5.000000e+000
      vertex -1.871277e+001  1.657807e+001  0.000000e+000
    endloop
  endfacet
  facet normal -8.229838e-001  5.680647e-001  0.000000e+000
    outer loop
      vertex -1.871277e+001  1.657807e+001  0.000000e+000
      vertex -2.213640e+001  1.161808e+001  5.000000e+000
      vertex -1.871277e+001  1.657807e+001  5.000000e+000
    endloop
  endfacet
  facet normal -6.631227e-001  7.485107e-001  0.000000e+000
    outer loop
      vertex -1.871277e+001  1.657807e+001  0.000000e+000
      vertex -1.871277e+001  1.657807e+001  5.000000e+000
      vertex -1.420162e+001  2.057460e+001  0.000000e+000
    endloop
  endfacet
  facet normal -6.631227e-001  7.485107e-001  0.000000e+000
    outer loop
      vertex -1.420162e+001  2.057460e+001  0.000000e+000
      vertex -1.871277e+001  1.657807e+001  5.000000e+000
      vertex -1.420162e+001  2.057460e+001  5.000000e+000
    endloop
  endfacet
  facet normal -4.647233e-001  8.854560e-001  0.000000e+000
    outer loop
      vertex -1.420162e+001  2.057460e+001  0.000000e+000
      vertex -1.420162e+001  2.057460e+001  5.000000e+000
      vertex -8.865122e+000  2.337541e+001  0.000000e+000
    endloop
  endfacet
  facet normal -4.647233e-001  8.854560e-001  0.000000e+000
    outer loop
      vertex -8.865122e+000  2.337541e+001  0.000000e+000
      vertex -1.420162e+001  2.057460e+001  5.000000e+000
      vertex -8.865122e+000  2.337541e+001  5.000000e+000
    endloop
  endfacet
  facet normal -2.393157e-001  9.709418e-001  0.000000e+000
    outer loop
      vertex -8.865122e+000  2.337541e+001  0.000000e+000
      vertex -8.865122e+000  2.337541e+001  5.000000e+000
      vertex -3.013417e+000  2.481772e+001  0.000000e+000
    endloop
  endfacet
  facet normal -2.393157e-001  9.709418e-001  0.000000e+000
    outer loop
      vertex -3.013417e+000  2.481772e+001  0.000000e+000
      vertex -8.865122e+000  2.337541e+001  5.000000e+000
      vertex -3.013417e+000  2.481772e+001  5.000000e+000
    endloop
  endfacet
  facet normal  0.000000e+000  1.000000e+000  0.000000e+000
    outer loop
      vertex -3.013417e+000  2.481772e+001  0.000000e+000
      vertex -3.013417e+000  2.481772e+001  5.000000e+000
      vertex  3.013417e+000  2.481772e+001  0.000000e+000
    endloop
  endfacet
  facet normal  0.000000e+000  1.000000e+000  -0.000000e+000
    outer loop
      vertex  3.013417e+000  2.481772e+001  0.000000e+000
      vertex -3.013417e+000  2.481772e+001  5.000000e+000
      vertex  3.013417e+000  2.481772e+001  5.000000e+000
    endloop
  endfacet
  facet normal  2.393157e-001  9.709418e-001  0.000000e+000
    outer loop
      vertex  3.013417e+000  2.481772e+001  0.000000e+000
      vertex  3.013417e+000  2.481772e+001  5.000000e+000
      vertex  8.865122e+000  2.337541e+001  0.000000e+000
    endloop
  endfacet
  facet normal  2.393157e-001  9.709418e-001  -0.000000e+000
    outer loop
      vertex  8.865122e+000  2.337541e+001  0.000000e+000
      vertex  3.013417e+000  2.481772e+001  5.000000e+000
      vertex  8.865122e+000  2.337541e+001  5.000000e+000
    endloop
  endfacet
  facet normal  4.647233e-001  8.854560e-001  0.000000e+000
    outer loop
      vertex  8.865122e+000  2.337541e+001  0.000000e+000
      vertex  8.865122e+000  2.337541e+001  5.000000e+000
      vertex  1.420162e+001  2.057460e+001  0.000000e+000
    endloop
  endfacet
  facet normal  4.647233e-001  8.854560e-001  -0.000000e+000
    outer loop
      vertex  1.420162e+001  2.057460e+001  0.000000e+000
      vertex  8.865122e+000  2.337541e+001  5.000000e+000
      vertex  1.420162e+001  2.057460e+001  5.000000e+000
    endloop
  endfacet
  facet normal  6.631227e-001  7.485107e-001  0.000000e+000
    outer loop
      vertex  1.420162e+001  2.057460e+001  0.000000e+000
      vertex  1.420162e+001  2.057460e+001  5.000000e+000
      vertex  1.871277e+001  1.657807e+001  0.000000e+000
    endloop
  endfacet
  facet normal  6.631227e-001  7.485107e-001  -0.000000e+000
    outer loop
      vertex  1.871277e+001  1.657807e+001  0.000000e+000
      vertex  1.420162e+001  2.057460e+001  5.000000e+000
      vertex  1.871277e+001  1.657807e+001  5.000000e+000
    endloop
  endfacet
  facet normal  8.229838e-001  5.680647e-001  0.000000e+000
    outer loop
      vertex  1.871277e+001  1.657807e+001  0.000000e+000
      vertex  1.871277e+001  1.657807e+001  5.000000e+000
      vertex  2.213640e+001  1.161808e+001  0.000000e+000
    endloop
  endfacet
  facet normal  8.229838e-001  5.680647e-001  -0.000000e+000
    outer loop
      vertex  2.213640e+001  1.161808e+001  0.000000e+000
      vertex  1.871277e+001  1.657807e+001  5.000000e+000
      vertex  2.213640e+001  1.161808e+001  5.000000e+000
    endloop
  endfacet
  facet normal  9.350161e-001  3.546050e-001  0.000000e+000
    outer loop
      vertex  2.213640e+001  1.161808e+001  0.000000e+000
      vertex  2.213640e+001  1.161808e+001  5.000000e+000
      vertex  2.427355e+001  5.982892e+000  0.000000e+000
    endloop
  endfacet
  facet normal  9.350161e-001  3.546050e-001  -0.000000e+000
    outer loop
      vertex  2.427355e+001  5.982892e+000  0.000000e+000
      vertex  2.213640e+001  1.161808e+001  5.000000e+000
      vertex  2.427355e+001  5.982892e+000  5.000000e+000
    endloop
  endfacet
  facet normal  9.927089e-001  1.205366e-001  0.000000e+000
    outer loop
      vertex  2.427355e+001  5.982892e+000  0.000000e+000
      vertex  2.427355e+001  5.982892e+000  5.000000e+000
      vertex  2.500000e+001  0.000000e+000  0.000000e+000
    endloop
  endfacet
  facet normal  9.927089e-001  1.205366e-001  -0.000000e+000
    outer loop
      vertex  2.500000e+001  0.000000e+000  0.000000e+000
      vertex  2.427355e+001  5.982892e+000  5.000000e+000
      vertex  2.500000e+001  0.000000e+000  5.000000e+000
    endloop
  endfacet
endsolid CATIA STL
