solid CATIA STL
  facet normal  0.000000e+000  0.000000e+000  1.000000e+000
    outer loop
      vertex  3.000000e+001 -3.000000e+001  8.000000e+001
      vertex  2.484612e+001 -2.484612e+001  8.000000e+001
      vertex -3.000000e+001 -3.000000e+001  8.000000e+001
    endloop
  endfacet
  facet normal  0.000000e+000  0.000000e+000  1.000000e+000
    outer loop
      vertex -3.000000e+001 -3.000000e+001  8.000000e+001
      vertex  2.484612e+001 -2.484612e+001  8.000000e+001
      vertex -2.484612e+001 -2.484612e+001  8.000000e+001
    endloop
  endfacet
  facet normal  0.000000e+000  0.000000e+000  1.000000e+000
    outer loop
      vertex -3.000000e+001 -3.000000e+001  8.000000e+001
      vertex -2.484612e+001 -2.484612e+001  8.000000e+001
      vertex -3.000000e+001  3.000000e+001  8.000000e+001
    endloop
  endfacet
  facet normal  0.000000e+000  0.000000e+000  1.000000e+000
    outer loop
      vertex -3.000000e+001  3.000000e+001  8.000000e+001
      vertex -2.484612e+001 -2.484612e+001  8.000000e+001
      vertex -2.484612e+001  2.484612e+001  8.000000e+001
    endloop
  endfacet
  facet normal  0.000000e+000  -0.000000e+000  1.000000e+000
    outer loop
      vertex -3.000000e+001  3.000000e+001  8.000000e+001
      vertex -2.484612e+001  2.484612e+001  8.000000e+001
      vertex  3.000000e+001  3.000000e+001  8.000000e+001
    endloop
  endfacet
  facet normal  0.000000e+000  0.000000e+000  1.000000e+000
    outer loop
      vertex  3.000000e+001  3.000000e+001  8.000000e+001
      vertex -2.484612e+001  2.484612e+001  8.000000e+001
      vertex  2.484612e+001  2.484612e+001  8.000000e+001
    endloop
  endfacet
  facet normal  -0.000000e+000  0.000000e+000  1.000000e+000
    outer loop
      vertex  3.000000e+001  3.000000e+001  8.000000e+001
      vertex  2.484612e+001  2.484612e+001  8.000000e+001
      vertex  3.000000e+001 -3.000000e+001  8.000000e+001
    endloop
  endfacet
  facet normal  0.000000e+000  0.000000e+000  1.000000e+000
    outer loop
      vertex  3.000000e+001 -3.000000e+001  8.000000e+001
      vertex  2.484612e+001  2.484612e+001  8.000000e+001
      vertex  2.484612e+001 -2.484612e+001  8.000000e+001
    endloop
  endfacet
  facet normal  -0.000000e+000 -9.701425e-001 -2.425357e-001
    outer loop
      vertex -4.359612e+001  4.359612e+001  5.000000e+000
      vertex  4.359612e+001  4.359612e+001  5.000000e+000
      vertex -2.484612e+001  2.484612e+001  8.000000e+001
    endloop
  endfacet
  facet normal  0.000000e+000 -9.701424e-001 -2.425357e-001
    outer loop
      vertex -2.484612e+001  2.484612e+001  8.000000e+001
      vertex  4.359612e+001  4.359612e+001  5.000000e+000
      vertex  2.484612e+001  2.484612e+001  8.000000e+001
    endloop
  endfacet
  facet normal -9.701425e-001  0.000000e+000 -2.425357e-001
    outer loop
      vertex  4.359612e+001  4.359612e+001  5.000000e+000
      vertex  4.359612e+001 -4.359612e+001  5.000000e+000
      vertex  2.484612e+001  2.484612e+001  8.000000e+001
    endloop
  endfacet
  facet normal -9.701424e-001  -0.000000e+000 -2.425357e-001
    outer loop
      vertex  2.484612e+001  2.484612e+001  8.000000e+001
      vertex  4.359612e+001 -4.359612e+001  5.000000e+000
      vertex  2.484612e+001 -2.484612e+001  8.000000e+001
    endloop
  endfacet
  facet normal  9.701425e-001  0.000000e+000 -2.425357e-001
    outer loop
      vertex -4.359612e+001 -4.359612e+001  5.000000e+000
      vertex -4.359612e+001  4.359612e+001  5.000000e+000
      vertex -2.484612e+001 -2.484612e+001  8.000000e+001
    endloop
  endfacet
  facet normal  9.701424e-001  0.000000e+000 -2.425357e-001
    outer loop
      vertex -2.484612e+001 -2.484612e+001  8.000000e+001
      vertex -4.359612e+001  4.359612e+001  5.000000e+000
      vertex -2.484612e+001  2.484612e+001  8.000000e+001
    endloop
  endfacet
  facet normal  0.000000e+000  9.701425e-001 -2.425357e-001
    outer loop
      vertex  4.359612e+001 -4.359612e+001  5.000000e+000
      vertex -4.359612e+001 -4.359612e+001  5.000000e+000
      vertex  2.484612e+001 -2.484612e+001  8.000000e+001
    endloop
  endfacet
  facet normal  0.000000e+000  9.701424e-001 -2.425357e-001
    outer loop
      vertex  2.484612e+001 -2.484612e+001  8.000000e+001
      vertex -4.359612e+001 -4.359612e+001  5.000000e+000
      vertex -2.484612e+001 -2.484612e+001  8.000000e+001
    endloop
  endfacet
  facet normal  0.000000e+000  0.000000e+000  9.999999e-001
    outer loop
      vertex -4.359612e+001 -4.359612e+001  5.000000e+000
      vertex  4.359612e+001 -4.359612e+001  5.000000e+000
      vertex -4.359612e+001  4.359612e+001  5.000000e+000
    endloop
  endfacet
  facet normal  -0.000000e+000  0.000000e+000  9.999999e-001
    outer loop
      vertex -4.359612e+001  4.359612e+001  5.000000e+000
      vertex  4.359612e+001 -4.359612e+001  5.000000e+000
      vertex  4.359612e+001  4.359612e+001  5.000000e+000
    endloop
  endfacet
  facet normal  0.000000e+000  0.000000e+000 -1.000000e+000
    outer loop
      vertex -5.000000e+001 -5.000000e+001  3.552714e-015
      vertex -5.000000e+001  5.000000e+001  3.552714e-015
      vertex  5.000000e+001 -5.000000e+001  3.552714e-015
    endloop
  endfacet
  facet normal -1.776357e-017 -1.776357e-017 -1.000000e+000
    outer loop
      vertex  5.000000e+001 -5.000000e+001  3.552714e-015
      vertex -5.000000e+001  5.000000e+001  3.552714e-015
      vertex  5.000000e+001  5.000000e+001  1.776357e-015
    endloop
  endfacet
  facet normal  9.701425e-001  4.308298e-018  2.425356e-001
    outer loop
      vertex  5.000000e+001 -5.000000e+001  3.552714e-015
      vertex  5.000000e+001  5.000000e+001  1.776357e-015
      vertex  3.000000e+001 -3.000000e+001  8.000000e+001
    endloop
  endfacet
  facet normal  9.701425e-001  -0.000000e+000  2.425356e-001
    outer loop
      vertex  3.000000e+001 -3.000000e+001  8.000000e+001
      vertex  5.000000e+001  5.000000e+001  1.776357e-015
      vertex  3.000000e+001  3.000000e+001  8.000000e+001
    endloop
  endfacet
  facet normal  0.000000e+000 -9.701425e-001  2.425356e-001
    outer loop
      vertex -5.000000e+001 -5.000000e+001  3.552714e-015
      vertex  5.000000e+001 -5.000000e+001  3.552714e-015
      vertex -3.000000e+001 -3.000000e+001  8.000000e+001
    endloop
  endfacet
  facet normal  0.000000e+000 -9.701425e-001  2.425356e-001
    outer loop
      vertex -3.000000e+001 -3.000000e+001  8.000000e+001
      vertex  5.000000e+001 -5.000000e+001  3.552714e-015
      vertex  3.000000e+001 -3.000000e+001  8.000000e+001
    endloop
  endfacet
  facet normal -9.701425e-001  0.000000e+000  2.425356e-001
    outer loop
      vertex -5.000000e+001  5.000000e+001  3.552714e-015
      vertex -5.000000e+001 -5.000000e+001  3.552714e-015
      vertex -3.000000e+001  3.000000e+001  8.000000e+001
    endloop
  endfacet
  facet normal -9.701425e-001  0.000000e+000  2.425356e-001
    outer loop
      vertex -3.000000e+001  3.000000e+001  8.000000e+001
      vertex -5.000000e+001 -5.000000e+001  3.552714e-015
      vertex -3.000000e+001 -3.000000e+001  8.000000e+001
    endloop
  endfacet
  facet normal  4.308298e-018  9.701425e-001  2.425356e-001
    outer loop
      vertex  5.000000e+001  5.000000e+001  1.776357e-015
      vertex -5.000000e+001  5.000000e+001  3.552714e-015
      vertex  3.000000e+001  3.000000e+001  8.000000e+001
    endloop
  endfacet
  facet normal  0.000000e+000  9.701425e-001  2.425356e-001
    outer loop
      vertex  3.000000e+001  3.000000e+001  8.000000e+001
      vertex -5.000000e+001  5.000000e+001  3.552714e-015
      vertex -3.000000e+001  3.000000e+001  8.000000e+001
    endloop
  endfacet
endsolid CATIA STL
